<?xml version="1.0" encoding="UTF-8"?>
<svg id="Capa_2" data-name="Capa 2" xmlns="http://www.w3.org/2000/svg" viewBox="0 0 59.16 59.16">
  <defs>
    <style>
      .cls-1 {
        fill: #254441;
      }
    </style>
  </defs>
  <g id="Capa_1-2" data-name="Capa 1">
    <polygon class="cls-1" points="59.16 28.9 34.77 28.9 58.33 22.58 57.98 21.26 34.41 27.58 55.54 15.38 54.86 14.2 33.73 26.39 50.98 9.15 50.01 8.18 32.77 25.43 44.96 4.3 43.78 3.62 31.58 24.75 37.9 1.18 36.58 .83 30.26 24.39 30.26 0 28.9 0 28.9 24.39 22.58 .83 21.26 1.18 27.58 24.75 15.38 3.62 14.2 4.3 26.4 25.43 9.15 8.18 8.18 9.15 25.43 26.4 4.3 14.2 3.62 15.38 24.75 27.58 1.18 21.26 .83 22.58 24.39 28.9 0 28.9 0 30.26 24.39 30.26 .83 36.58 1.18 37.9 24.75 31.58 3.62 43.78 4.3 44.96 25.43 32.76 8.18 50.01 9.15 50.98 26.4 33.73 14.2 54.86 15.38 55.54 27.58 34.41 21.26 57.98 22.58 58.33 28.9 34.77 28.9 59.16 30.26 59.16 30.26 34.77 36.58 58.33 37.9 57.98 31.58 34.41 43.78 55.54 44.96 54.86 32.76 33.73 50.01 50.98 50.98 50.01 33.73 32.76 54.86 44.96 55.54 43.78 34.41 31.58 57.98 37.9 58.33 36.58 34.77 30.26 59.16 30.26 59.16 28.9"/>
  </g>
</svg>