<?xml version="1.0" encoding="UTF-8"?>
<svg id="Capa_2" data-name="Capa 2" xmlns="http://www.w3.org/2000/svg" viewBox="0 0 95.28 95.29">
  <defs>
    <style>
      <!-- .cls-1 {
        opacity: .82;
      } -->

      .cls-2 {
        fill: #ea4d50;;
      }
      .cls-3 {
        fill: #254441;
      }
    </style>
  </defs>
  <g id="Capa_1-2" data-name="Capa 1">
    <g class="cls-1">
      <g>
        <path class="cls-2" d="M50.74,53.39l-3.1,3.07-3.1-3.07c-5.33-5.28-13.98-5.28-19.32,0-2.67,2.64-4,6.09-4,9.55,0,4.37,2.33,8.22,4.88,11.62,2.8,3.74,5.82,7.32,9.08,10.68,3.27,3.39,6.79,6.56,10.64,9.29.52.48,1.17.74,1.82.76.65-.02,1.3-.28,1.82-.76,3.86-2.73,7.37-5.91,10.64-9.29,3.25-3.36,6.28-6.95,9.08-10.68,2.54-3.4,4.88-7.25,4.88-11.62,0-3.46-1.33-6.91-4-9.55-5.33-5.28-13.98-5.28-19.32,0"/>
        <path class="cls-3" d="M95.25,41.95C86.07,19.62,68.19,8,49.96,7.09V2.29c0-.26-.04-.5-.12-.73-.3-.9-1.17-1.56-2.19-1.56s-1.89.66-2.19,1.56c-.08.23-.12.48-.12.73v4.8C27.09,8,9.21,19.62.03,41.95c-.17.42.35.77.68.45,8.51-8.33,22.89-8.07,31.03.79,3.64-3.96,8.53-6.21,13.58-6.73,1.54-.16,3.09-.16,4.63,0,5.05.52,9.94,2.77,13.58,6.73,8.14-8.86,22.52-9.12,31.03-.79.32.32.85-.03.68-.45"/>
      </g>
    </g>
  </g>
</svg>