<!--?xml version="1.0" encoding="UTF-8"?-->
<svg id="Capa_2" data-name="Capa 2" xmlns="http://www.w3.org/2000/svg" viewBox="0 0 72.33 71.58" width="72.33000183105469" height="71.58000183105469">
  <defs>
    <style>
      .<!-- cls-1 {
        opacity: .60;
        fill: #ea4d50;
      }
      .cls-1_2{
        opacity:  .3;
        fill: #ea4d50;
      } -->
/***************************************************
 * Generated by SVG Artista on 11/1/2024, 4:05:07 PM
 * MIT license (https://opensource.org/licenses/MIT)
 * W. https://svgartista.net
 **************************************************/

svg .svg-elem-1 {
  fill: transparent;
  transition: fill 0.7s cubic-bezier(0.47, 0, 0.745, 0.715) 0.3s;
}

svg.active .svg-elem-1 {
  fill: rgb(234, 77, 80);
}

svg .svg-elem-2 {
  fill: transparent;
  transition: fill 0.7s cubic-bezier(0.47, 0, 0.745, 0.715) 0.4s;
}

svg.active .svg-elem-2 {
  fill: rgb(234, 77, 80);
}

svg .svg-elem-3 {
  fill: transparent;
  transition: fill 0.7s cubic-bezier(0.47, 0, 0.745, 0.715) 0.5s;
}

svg.active .svg-elem-3 {
  fill: rgb(234, 77, 80);
}

svg .svg-elem-4 {
  fill: transparent;
  transition: fill 0.7s cubic-bezier(0.47, 0, 0.745, 0.715) 0.6000000000000001s;
}

svg.active .svg-elem-4 {
  fill: rgb(234, 77, 80);
}

    </style>
  </defs>
  <g id="Capa_1-2" data-name="Capa 1">
    <g>
      <path class="cls-1 svg-elem-1" d="M37.09,71.58H2.97c-1.64,0-2.97-1.33-2.97-2.97v-33.37c0-1.64,1.33-2.97,2.97-2.97s2.97,1.33,2.97,2.97v30.4h31.16c1.64,0,2.97,1.33,2.97,2.97s-1.33,2.97-2.97,2.97Z"></path>
      <path class="cls-1 cls-1_2 svg-elem-2" d="M47.85,60.82H13.72c-1.64,0-2.97-1.33-2.97-2.97V24.48c0-1.64,1.33-2.97,2.97-2.97s2.97,1.33,2.97,2.97v30.4h31.16c1.64,0,2.97,1.33,2.97,2.97s-1.33,2.97-2.97,2.97Z"></path>
      <path class="cls-1 svg-elem-3" d="M58.61,50.06H24.48c-1.64,0-2.97-1.33-2.97-2.97V13.72c0-1.64,1.33-2.97,2.97-2.97s2.97,1.33,2.97,2.97v30.4h31.16c1.64,0,2.97,1.33,2.97,2.97s-1.33,2.97-2.97,2.97Z"></path>
      <path class="cls-1 cls-1_2 svg-elem-4" d="M69.36,39.3h-34.13c-1.64,0-2.97-1.33-2.97-2.97V2.97c0-1.64,1.33-2.97,2.97-2.97s2.97,1.33,2.97,2.97v30.4h31.16c1.64,0,2.97,1.33,2.97,2.97s-1.33,2.97-2.97,2.97Z"></path>
    </g>
  </g>
</svg>