<?xml version="1.0" encoding="UTF-8"?>
<svg id="Capa_2" data-name="Capa 2" xmlns="http://www.w3.org/2000/svg" viewBox="0 0 673.87 443.16">
  <defs>
    <style>
      .cls-1 {
        fill: #244340;
      }

      .cls-2 {
        fill: #ea4d50;
      }
    </style>
  </defs>
  <g id="Capa_1-2" data-name="Capa 1">
    <g>
      <path class="cls-2" d="M240.21,382.07c.56.75,1.16,1.5,1.78,2.25l.19-1.22c-.66-.34-1.31-.69-1.97-1.03Z"/>
      <path class="cls-2" d="M253.01,111.32C247.23,54.19,207.41,8.72,155.13,1.63,88.51-7.4,38.35,21.21,15.83,83.55c-7.4,20.52-11.28,42.63-12.9,64.24-5.25,70.43,17.93,136.67,57.84,199.2-20.61,11.71-41.07,27.64-60.78,38.82,10.15,18.68,19.36,36.6,30.64,57.34,16.49-7.18,52.06-36.01,65.93-44.41,31.67-19.18,28.02-18.8,57-.81,13.68,8.5,39.26,25.14,79.33,45.22l9.09-58.84c-.62-.75-1.22-1.5-1.78-2.25-19.33-9.93-32.07-16.55-69.83-33.42,14.65-16.18,27.27-32.54,37.98-49.19-.53-5.56-.81-11.21-.81-16.99,0-44.72,17.24-84.01,46.01-112.31,1.72-19.15,1.5-38.73-.53-58.84ZM119.56,289.19c-31.48-58.97-45.29-116.15-27.36-175.84,2.12-7.09,7.37-13.4,13.68-19.46,13.05-12.52,35.04-12.06,47.94.59,7.18,7.09,13.09,14.37,14.62,22.33,11.68,61.22-8.9,117-48.88,172.37Z"/>
    </g>
    <g>
      <path class="cls-2" d="M444.68,243.56s0,.03.03.03v-.03h-.03Z"/>
      <path class="cls-1" d="M518.45,325.95c-4.03,18.71-11.31,35.54-21.36,50.13-.66.94-1.31,1.87-2.03,2.78-.62.94-1.34,1.91-2.03,2.81-13.56,17.61-31.33,31.51-52.28,40.95-1.12.5-2.25,1-3.37,1.47-1.09.47-2.19.94-3.31,1.34-18.65,7.34-39.6,11.27-62.18,11.27-88.89,0-154.13-61.06-157.91-146.32-.13-2.62-.19-5.25-.19-7.9,0-39.98,14.37-75.43,38.67-102.04,28.48-31.33,70.74-50.47,119.43-50.47,37.92,0,71.37,11.46,97.01,31.79-18.86,16.55-28.42,38.6-28.42,65.62,0,1.09,0,2.19.06,3.25-15.24-21.11-40.32-33.7-68.65-33.7-49.69,0-87.17,36.76-87.17,85.55s36.67,87.26,87.17,87.26c33.04,0,61-16.33,75.11-43.79h71.46Z"/>
    </g>
    <g>
      <path class="cls-2" d="M673.87,344.94c0,18.05-5.56,34.67-16.52,49.44-11.06,14.84-26.98,26.7-47.38,35.29-20.55,8.62-45.66,12.99-74.61,12.99-19.68,0-36.82-1.16-51-3.4-12.81-2.09-26.92-5.75-41.98-10.93,23.02-10.4,42.54-25.92,57.12-45.51,10.49,1.81,21.49,2.69,32.73,2.69,8.12,0,16.83-.97,25.92-2.94,9.31-2,17.55-5.47,24.52-10.28,7.53-5.22,11.34-12.68,11.34-22.17,0-10.28-3.5-17.83-10.43-22.49-6.28-4.19-15.09-7.9-26.2-11.09l-38.7-10.37c-22.71-5.97-40.63-14.93-53.28-26.64-8.24-7.62-13.8-17.93-16.55-30.83-.25-1.03-.47-2.06-.62-3.12-.19-1-.37-2.06-.5-3.12-.66-4.72-1-9.74-1-15.09,0-14.02,2.75-26.58,8.21-37.6,4.5-9.03,10.78-17.02,18.86-23.96.78-.69,1.56-1.34,2.37-1.97.84-.72,1.75-1.41,2.66-2.06.19-.16.41-.31.62-.47,22.05-16.05,52.6-24.2,90.85-24.2,30.73,0,61.93,5.12,92.76,15.21-.94,9.03-2.94,18.43-5.9,28.02-2.9,9.46-6.37,17.96-10.31,25.3-9.43-3.5-19.83-6.62-30.92-9.24-12.21-2.94-25.27-4.44-38.79-4.44-14.59,0-26.2,2.16-34.48,6.4-8.99,4.59-13.56,12.02-13.56,22.08s3.31,16.49,9.9,20.52c5.87,3.62,14.21,7.03,24.83,10.15l35.6,9.81c22.71,6,41.07,15.09,54.59,26.98,13.18,11.65,19.83,30.83,19.83,57.03Z"/>
      <path class="cls-2" d="M444.68,243.56s0,.03.03.03v-.03h-.03ZM444.68,243.56s0,.03.03.03v-.03h-.03ZM444.68,243.56s0,.03.03.03v-.03h-.03ZM444.68,243.56s0,.03.03.03v-.03h-.03Z"/>
    </g>
  </g>
</svg>