<?xml version="1.0" encoding="UTF-8"?>
<svg id="Capa_2" data-name="Capa 2" xmlns="http://www.w3.org/2000/svg" viewBox="0 0 79.67 11.63">
  <defs>
    <style>
      .cls-1 {
        fill: #ea4d50;
      }
    </style>
  </defs>
  <g id="Capa_1-2" data-name="Capa 1">
    <path class="cls-1" d="M.22,11.49c-.08-.62-.19-1.17-.21-1.72-.03-1.21,0-2.41,0-2.92,3.57-1.56,6.65-2.73,9.5-4.2,6.89-3.55,14.7-3.39,21.62.43,2,1.1,4.23,2.13,6.53,2.6,3.48.71,6.71-.17,9.71-1.92,8.68-5.05,15.82-4.97,24.47-.06,1.51.86,3.27,1.78,5,1.91,2.41.19,3.04.97,2.79,2.77-.13.95-.02,1.93-.02,3.09-4.22.13-7.64-.95-10.94-2.69-2.28-1.2-4.74-2.41-7.31-2.91-3.34-.65-6.49.31-9.39,2.03-8.39,5-16,4.94-24.44,0-5.13-3-9.86-3.1-15-.09-3.68,2.15-7.48,3.84-12.29,3.68Z"/>
  </g>
</svg>