<?xml version="1.0" encoding="UTF-8"?>
<svg id="Capa_2" data-name="Capa 2" xmlns="http://www.w3.org/2000/svg" viewBox="0 0 126.4 126.4">
  <defs>
    <style>
      .cls-1 {
        fill: #ea4d50;
      }
    </style>
  </defs>
  <g id="Capa_1-2" data-name="Capa 1">
    <polygon class="cls-1" points="126.4 61.74 74.28 61.74 124.62 48.25 123.87 45.43 73.53 58.92 118.66 32.86 117.2 30.34 72.07 56.39 108.92 19.54 106.86 17.48 70 54.33 96.06 9.2 93.54 7.74 67.48 52.87 80.97 2.53 78.15 1.78 64.66 52.12 64.66 0 61.74 0 61.74 52.12 48.25 1.78 45.43 2.53 58.92 52.87 32.86 7.74 30.34 9.2 56.4 54.33 19.54 17.48 17.48 19.54 54.33 56.4 9.2 30.34 7.74 32.86 52.87 58.92 2.53 45.43 1.78 48.25 52.12 61.74 0 61.74 0 64.66 52.12 64.66 1.78 78.15 2.53 80.97 52.87 67.48 7.74 93.54 9.2 96.06 54.33 70 17.48 106.86 19.54 108.92 56.4 72.07 30.34 117.2 32.86 118.66 58.92 73.53 45.43 123.87 48.25 124.62 61.74 74.28 61.74 126.4 64.66 126.4 64.66 74.28 78.15 124.62 80.97 123.87 67.48 73.53 93.54 118.66 96.06 117.2 70 72.07 106.86 108.92 108.92 106.86 72.07 70 117.2 96.06 118.66 93.54 73.53 67.48 123.87 80.97 124.62 78.15 74.28 64.66 126.4 64.66 126.4 61.74"/>
  </g>
</svg>