<?xml version="1.0" encoding="UTF-8"?>
<svg id="Capa_2" data-name="Capa 2" xmlns="http://www.w3.org/2000/svg" xmlns:xlink="http://www.w3.org/1999/xlink" viewBox="0 0 65.9 87.18">
  <defs>
    <style>
      .cls-1 {
        fill: #254441;
      }

      .cls-2 {
        fill: none;
      }

      .cls-3 {
        fill: #3d4f5b;
      }

      .cls-4 {
        fill: #ea4d50;
      }

      .cls-5 {
        clip-path: url(#clippath);
      }

      .cls-6 {
        fill: #fbefe5;
      }
    </style>
    <clipPath id="clippath">
      <rect class="cls-2" y="0" width="65.9" height="87.18"/>
    </clipPath>
  </defs>
  <g id="Capa_1-2" data-name="Capa 1">
    <g class="cls-5">
      <path class="cls-3" d="M19.18,32.03v-11.48c0-7.59,6.18-13.77,13.77-13.77s13.77,6.18,13.77,13.77v11.48h6.77v-11.48C53.49,9.2,44.29,0,32.95,0S12.4,9.2,12.4,20.54v11.48h6.77Z"/>
      <path class="cls-1" d="M48.38,87.18h-30.86C7.84,87.18,0,79.34,0,69.67v-21.92C0,38.07,7.84,30.23,17.52,30.23h30.86c9.67,0,17.52,7.84,17.52,17.52v21.92c0,9.67-7.84,17.52-17.52,17.52"/>
      <path class="cls-4" d="M53.49,55.33c-.19,9.79-9.04,18.68-20.54,20.81-11.5-2.13-20.35-11.02-20.54-20.81-.06-3.2.78-6.56,3.13-9.21,2.35-2.65,6.42-4.45,10.25-3.92,3.2.44,5.78,2.42,7.16,4.81,1.39-2.39,3.96-4.37,7.17-4.81,3.83-.53,7.89,1.27,10.25,3.92,2.35,2.65,3.19,6.01,3.13,9.21"/>
      <path class="cls-6" d="M35.12,61l.38,4.68c.06.7-.5,1.3-1.2,1.3h-2.71c-.7,0-1.26-.6-1.2-1.3l.38-4.68c-1.24-.74-2.06-2.09-2.06-3.63,0-2.34,1.89-4.23,4.23-4.23s4.23,1.89,4.23,4.23c0,1.54-.83,2.89-2.06,3.63"/>
    </g>
  </g>
</svg>