<?xml version="1.0" encoding="UTF-8"?>
<svg id="Capa_2" data-name="Capa 2" xmlns="http://www.w3.org/2000/svg" viewBox="0 0 94.78 64.44">
  <defs>
    <style>
      .cls-1 {
        fill: #ea4d50;
      }
    </style>
  </defs>
  <g id="Capa_1-2" data-name="Capa 1">
    <polygon class="cls-1" points="94.78 32.22 89.24 35.3 93.51 39.7 87.19 41.2 89.91 46.49 83.38 46.48 84.61 52.2 78.23 50.92 78.17 56.75 72.16 54.45 71 60.18 65.47 57.06 63.35 62.58 58.39 58.78 55.43 63.98 51.08 59.63 47.39 64.44 43.7 59.63 39.35 63.98 36.4 58.78 31.43 62.58 29.31 57.06 23.79 60.18 22.62 54.45 16.61 56.75 16.55 50.92 10.17 52.2 11.4 46.48 4.87 46.49 7.59 41.2 1.28 39.7 5.54 35.3 0 32.22 5.54 29.15 1.28 24.74 7.59 23.24 4.87 17.95 11.41 17.97 10.17 12.24 16.55 13.53 16.61 7.7 22.62 10 23.79 4.26 29.31 7.38 31.43 1.87 36.4 5.66 39.35 .46 43.7 4.82 47.39 0 51.08 4.82 55.43 .46 58.39 5.66 63.35 1.87 65.47 7.38 71 4.26 72.16 10 78.17 7.7 78.24 13.53 84.61 12.24 83.38 17.97 89.91 17.95 87.19 23.24 93.51 24.74 89.24 29.15 94.78 32.22"/>
  </g>
</svg>