<?xml version="1.0" encoding="UTF-8"?>
<svg id="Capa_2" data-name="Capa 2" xmlns="http://www.w3.org/2000/svg" viewBox="0 0 79.6 69.87">
  <defs>
    <style>
      .cls-1 {
        fill: #254441;
      }
    </style>
  </defs>
  <g id="Capa_1-2" data-name="Capa 1">
    <path class="cls-1" d="M44.47,6.03l-4.67,4.67-4.67-4.67C27.09-2.01,14.06-2.01,6.03,6.03,2.01,10.05,0,15.31,0,20.58c0,6.65,3.52,12.53,7.35,17.7,4.21,5.7,8.77,11.16,13.67,16.28,4.93,5.16,10.23,10,16.04,14.16.79.73,1.77,1.13,2.74,1.15.97-.03,1.95-.43,2.74-1.15,5.81-4.16,11.11-9,16.04-14.16,4.9-5.12,9.46-10.58,13.67-16.28,3.83-5.18,7.35-11.05,7.35-17.7,0-5.26-2.01-10.53-6.03-14.55-8.03-8.04-21.07-8.04-29.1,0"/>
  </g>
</svg>