<?xml version="1.0" encoding="UTF-8"?>
<svg id="Capa_2" data-name="Capa 2" xmlns="http://www.w3.org/2000/svg" viewBox="0 0 142.84 108.87">
  <defs>
    <style>
      .cls-1 {
        fill: none;
        stroke: #000;
        stroke-linecap: round;
        stroke-linejoin: round;
      }

      .cls-2 {
        fill: #ea4d50;
      }
    </style>
  </defs>
  <g id="Capa_1-2" data-name="Capa 1">
    <g>
      <g>
        <path class="cls-2" d="M91.88,34.47c9.88,1.56,17.42,10.13,17.34,20.44-.08,10.31-7.74,18.76-17.64,20.17l-.25,33.79c28.51-1.38,51.3-24.81,51.52-53.71.22-28.89-22.22-52.67-50.71-54.47l-.25,33.79Z"/>
        <path class="cls-2" d="M46.25,34.13c9.88,1.56,17.42,10.13,17.34,20.44-.08,10.31-7.74,18.76-17.64,20.17l-.25,33.79c28.51-1.38,51.3-24.81,51.52-53.71S74.99,2.15,46.5.34l-.25,33.79Z"/>
        <path class="cls-2" d="M.56,33.79c9.88,1.56,17.42,10.13,17.34,20.44-.08,10.31-7.74,18.76-17.64,20.17l-.25,33.79c28.51-1.38,51.3-24.81,51.52-53.71S29.3,1.81.81,0l-.25,33.79Z"/>
      </g>
      <path class="cls-1" d="M45.96,17.3c21.39.16,38.6,17.63,38.44,39.02-.16,21.39-17.63,38.6-39.02,38.44"/>
      <path class="cls-1" d="M1.6,16.97c21.39.16,38.6,17.63,38.44,39.02-.16,21.39-17.63,38.6-39.02,38.44"/>
      <path class="cls-1" d="M92.3,17.65c21.39.16,38.6,17.63,38.44,39.02-.16,21.39-17.63,38.6-39.02,38.44"/>
    </g>
  </g>
</svg>