<?xml version="1.0" encoding="UTF-8"?>
<svg id="Capa_2" data-name="Capa 2" xmlns="http://www.w3.org/2000/svg" viewBox="0 0 72.33 71.58">
  <defs>
    <style>
      .cls-1 {
        fill: #254441;
      }
    </style>
  </defs>
  <g id="Capa_1-2" data-name="Capa 1">
    <g>
      <path class="cls-1" d="M37.09,71.58H2.97c-1.64,0-2.97-1.33-2.97-2.97v-33.37c0-1.64,1.33-2.97,2.97-2.97s2.97,1.33,2.97,2.97v30.4h31.16c1.64,0,2.97,1.33,2.97,2.97s-1.33,2.97-2.97,2.97Z"/>
      <path class="cls-1" d="M47.85,60.82H13.72c-1.64,0-2.97-1.33-2.97-2.97V24.48c0-1.64,1.33-2.97,2.97-2.97s2.97,1.33,2.97,2.97v30.4h31.16c1.64,0,2.97,1.33,2.97,2.97s-1.33,2.97-2.97,2.97Z"/>
      <path class="cls-1" d="M58.61,50.06H24.48c-1.64,0-2.97-1.33-2.97-2.97V13.72c0-1.64,1.33-2.97,2.97-2.97s2.97,1.33,2.97,2.97v30.4h31.16c1.64,0,2.97,1.33,2.97,2.97s-1.33,2.97-2.97,2.97Z"/>
      <path class="cls-1" d="M69.36,39.3h-34.13c-1.64,0-2.97-1.33-2.97-2.97V2.97c0-1.64,1.33-2.97,2.97-2.97s2.97,1.33,2.97,2.97v30.4h31.16c1.64,0,2.97,1.33,2.97,2.97s-1.33,2.97-2.97,2.97Z"/>
    </g>
  </g>
</svg>