<svg xmlns="http://www.w3.org/2000/svg" xmlns:xlink="http://www.w3.org/1999/xlink" width="1080" zoomAndPan="magnify" viewBox="0 0 810 809.999993" height="1080" preserveAspectRatio="xMidYMid meet" version="1.0"><defs><filter x="0%" y="0%" width="100%" height="100%" id="f77c4743fc"><feColorMatrix values="0 0 0 0 1 0 0 0 0 1 0 0 0 0 1 0 0 0 1 0" color-interpolation-filters="sRGB"/></filter><mask id="6525e20b40"><g filter="url(#f77c4743fc)"><rect x="-81" width="972" fill="#000000" y="-80.999999" height="971.999992" fill-opacity="0.11"/></g></mask><clipPath id="91c735c623"><rect x="0" width="810" y="0" height="810"/></clipPath></defs><g mask="url(#6525e20b40)"><g transform="matrix(1, 0, 0, 1, 0, 0.000000000000039746)"><g clip-path="url(#91c735c623)"><path fill="#18403e" d="M 810 355.445312 L 589.921875 355.445312 L 780.515625 245.414062 L 730.960938 159.585938 L 540.367188 269.632812 L 650.414062 79.039062 L 564.585938 29.484375 L 454.539062 220.078125 L 454.539062 0 L 355.445312 0 L 355.445312 220.078125 L 245.414062 29.484375 L 159.585938 79.039062 L 269.632812 269.632812 L 79.039062 159.585938 L 29.484375 245.414062 L 220.078125 355.445312 L 0 355.445312 L 0 454.539062 L 220.078125 454.539062 L 29.484375 564.585938 L 79.039062 650.414062 L 269.632812 540.367188 L 159.585938 730.960938 L 245.414062 780.515625 L 355.445312 589.90625 L 355.445312 810 L 454.539062 810 L 454.539062 589.90625 L 564.585938 780.515625 L 650.414062 730.960938 L 540.367188 540.367188 L 730.960938 650.414062 L 780.515625 564.585938 L 589.921875 454.539062 L 810 454.539062 Z M 810 355.445312 " fill-opacity="1" fill-rule="nonzero"/></g></g></g></svg>