<svg xmlns="http://www.w3.org/2000/svg" xmlns:xlink="http://www.w3.org/1999/xlink" width="1157" zoomAndPan="magnify" viewBox="0 0 867.75 809.999993" height="1080" preserveAspectRatio="xMidYMid meet" version="1.0"><defs><clipPath id="43ac0e3d55"><path d="M 176 4 L 695.6875 4 L 695.6875 808 L 176 808 Z M 176 4 " clip-rule="nonzero"/></clipPath></defs><g clip-path="url(#43ac0e3d55)"><path fill="#f05759" d="M 213.800781 652.292969 C 190.589844 637.632812 171.859375 628.488281 177.847656 650.953125 C 180.027344 658.375 188.121094 669.894531 206.109375 686.636719 C 224.132812 703.265625 251.917969 725.289062 293.476562 750.71875 C 365.707031 793.925781 398.390625 809.824219 404.933594 806.859375 C 409.085938 804.675781 412.359375 793.503906 416.585938 764.476562 C 421.292969 735.792969 425.542969 687.957031 442.148438 619.878906 C 446.648438 600.304688 455.199219 561.957031 446.320312 551.566406 C 438.667969 542.402344 426.480469 561.863281 419.167969 584.152344 C 397.203125 652.175781 394.660156 707.09375 390.792969 715.570312 C 388.785156 720.832031 384 703.589844 373.574219 681.453125 C 353.269531 638.820312 335.800781 593.703125 323.441406 550.9375 C 305.570312 487.160156 298.050781 422.410156 303.214844 361.125 C 308.039062 299.875 325.199219 242.890625 350.957031 196.183594 C 376.769531 149.230469 411.039062 113.773438 446.054688 89.777344 C 481.089844 65.6875 515.550781 52.429688 542.738281 45.253906 C 589.179688 33.945312 623.140625 36.089844 644.648438 39.09375 C 666.308594 42.324219 676.527344 45.464844 678.785156 46.019531 C 685.882812 47.511719 694.667969 46.382812 695.257812 41.445312 C 695.527344 38.976562 693.691406 35.515625 688.21875 30.824219 C 685.460938 28.511719 681.828125 25.753906 677.023438 22.886719 C 672.105469 20.359375 666.058594 17.605469 658.65625 14.621094 C 626.816406 2.429688 581.066406 0.0976562 534.875 11.15625 C 481.316406 23.535156 429.367188 51.796875 387.675781 90.371094 C 345.484375 129.136719 316.589844 178.351562 297.457031 226.378906 C 272.714844 289.734375 265.0625 352.703125 265.941406 409.246094 C 266.746094 466.074219 277.210938 516.609375 289.226562 560.273438 C 305.835938 616.546875 324.109375 657.34375 336.738281 685.660156 C 349.691406 713.847656 357.308594 729.632812 358.148438 733.996094 C 360.351562 744.976562 316.6875 717.097656 276.371094 693.179688 C 265.003906 686.636719 236.914062 667.214844 213.800781 652.292969 Z M 213.800781 652.292969 " fill-opacity="1" fill-rule="nonzero"/></g></svg>