<svg id="Capa_2" data-name="Capa 2" xmlns="http://www.w3.org/2000/svg" viewBox="0 0 72.33 71.58" width="72.33" height="71.58">
  <defs>
    <style>
      @-webkit-keyframes animate-svg-fill-1 {
        0% { fill: transparent; }
        100% { fill: #f9fafb; }
      }
      @keyframes animate-svg-fill-1 {
        0% { fill: transparent; }
        100% { fill: #f9fafb; }
      }
      .svg-elem-1 {
        -webkit-animation: animate-svg-fill-1 1.5s cubic-bezier(0.47, 0, 0.745, 0.715) 1.1s infinite;
                animation: animate-svg-fill-1 1.5s cubic-bezier(0.47, 0, 0.745, 0.715) 1.1s infinite;
      }

      @-webkit-keyframes animate-svg-fill-2 {
        0% { fill: transparent; }
        100% { fill: #f9fafb; }
      }
      @keyframes animate-svg-fill-2 {
        0% { fill: transparent; }
        100% { fill: #f9fafb; }
      }
      .svg-elem-2 {
        -webkit-animation: animate-svg-fill-2 1.5s cubic-bezier(0.47, 0, 0.745, 0.715) 1s infinite;
                animation: animate-svg-fill-2 1.5s cubic-bezier(0.47, 0, 0.745, 0.715) 1s infinite;
      }

      @-webkit-keyframes animate-svg-fill-3 {
        0% { fill: transparent; }
        100% { fill: #f9fafb; }
      }
      @keyframes animate-svg-fill-3 {
        0% { fill: transparent; }
        100% { fill: #f9fafb; }
      }
      .svg-elem-3 {
        -webkit-animation: animate-svg-fill-3 1.5s cubic-bezier(0.47, 0, 0.745, 0.715) 0.9s infinite;
                animation: animate-svg-fill-3 1.5s cubic-bezier(0.47, 0, 0.745, 0.715) 0.9s infinite;
      }

      @-webkit-keyframes animate-svg-fill-4 {
        0% { fill: transparent; }
        100% { fill: #f9fafb; }
      }
      @keyframes animate-svg-fill-4 {
        0% { fill: transparent; }
        100% { fill: #f9fafb; }
      }
      .svg-elem-4 {
        -webkit-animation: animate-svg-fill-4 1.5s cubic-bezier(0.47, 0, 0.745, 0.715) 0.8s infinite;
                animation: animate-svg-fill-4 1.5s cubic-bezier(0.47, 0, 0.745, 0.715) 0.8s infinite;
      }

      .cls-1 {
        opacity: 0.6;
        fill: #f9fafb;
      }
      .cls-1_2 {
        opacity: 0.3;
        fill: #f9fafb;
      }
    </style>
  </defs>
  <g id="Capa_1-2" data-name="Capa 1">
    <g>
      <path class="cls-1 svg-elem-1" d="M37.09,71.58H2.97c-1.64,0-2.97-1.33-2.97-2.97v-33.37c0-1.64,1.33-2.97,2.97-2.97s2.97,1.33,2.97,2.97v30.4h31.16c1.64,0,2.97,1.33,2.97,2.97s-1.33,2.97-2.97,2.97Z"></path>
      <path class="cls-1 cls-1_2 svg-elem-2" d="M47.85,60.82H13.72c-1.64,0-2.97-1.33-2.97-2.97V24.48c0-1.64,1.33-2.97,2.97-2.97s2.97,1.33,2.97,2.97v30.4h31.16c1.64,0,2.97,1.33,2.97,2.97s-1.33,2.97-2.97,2.97Z"></path>
      <path class="cls-1 svg-elem-3" d="M58.61,50.06H24.48c-1.64,0-2.97-1.33-2.97-2.97V13.72c0-1.64,1.33-2.97,2.97-2.97s2.97,1.33,2.97,2.97v30.4h31.16c1.64,0,2.97,1.33,2.97,2.97s-1.33,2.97-2.97,2.97Z"></path>
      <path class="cls-1 cls-1_2 svg-elem-4" d="M69.36,39.3h-34.13c-1.64,0-2.97-1.33-2.97-2.97V2.97c0-1.64,1.33-2.97,2.97-2.97s2.97,1.33,2.97,2.97v30.4h31.16c1.64,0,2.97,1.33,2.97,2.97s-1.33,2.97-2.97,2.97Z"></path>
    </g>
  </g>
</svg>
