<svg xmlns="http://www.w3.org/2000/svg" xmlns:xlink="http://www.w3.org/1999/xlink" width="783" zoomAndPan="magnify" viewBox="0 0 587.25 809.999971" height="1080" 
stroke="5" preserveAspectRatio="xMidYMid meet" version="1.0"><defs>
    <style>
      .cls-1 {
        fill: #f9fafb;
      }
      .cls-2{
        
        fill: #f9fafb;
      }
      .cls-3{
        
        fill: #f9fafb;
      }

    </style>


<clipPath id="04a03d8d82"><path d="M 169.558594 470.242188 L 171.03125 470.242188 L 171.03125 471.492188 L 169.558594 471.492188 Z M 169.558594 470.242188 " clip-rule="nonzero"/></clipPath><clipPath id="bd02ea80e5"><path d="M 171.007812 470.691406 C 170.332031 471.738281 169.734375 471.515625 169.660156 471.289062 C 169.507812 471.140625 169.582031 470.464844 169.808594 470.316406 C 170.03125 470.167969 170.78125 470.390625 170.78125 470.390625 " clip-rule="nonzero"/></clipPath></defs><path class="cls-1"  d="M 563.542969 363.402344 C 563.542969 363.402344 563.542969 363.402344 563.535156 363.402344 L 223.777344 23.660156 C 200.808594 0.699219 163.5625 0.699219 140.589844 23.660156 C 117.605469 46.601562 117.605469 83.871094 140.589844 106.847656 L 438.730469 404.976562 L 140.589844 703.160156 C 117.605469 726.121094 117.605469 763.390625 140.589844 786.351562 C 163.5625 809.300781 200.824219 809.300781 223.777344 786.351562 L 563.535156 446.589844 C 586.503906 423.632812 586.519531 386.351562 563.542969 363.402344 " fill-opacity="1" fill-rule="nonzero"/><path class="cls-2"  d="M 287.75 363.402344 C 287.75 363.402344 287.75 363.402344 287.734375 363.402344 L 106.832031 182.507812 C 83.878906 159.515625 46.609375 159.515625 23.644531 182.507812 C 0.660156 205.441406 0.660156 242.710938 23.644531 265.695312 L 162.9375 404.976562 L 23.027344 544.914062 C 0.0390625 567.90625 0.0390625 605.144531 23.027344 628.101562 C 45.992188 651.117188 83.269531 651.117188 106.207031 628.101562 L 287.734375 446.589844 C 310.734375 423.632812 310.734375 386.351562 287.75 363.402344 " fill-opacity="1" fill-rule="nonzero"/><g clip-path="url(#04a03d8d82)"><g clip-path="url(#bd02ea80e5)"><path class="cls-3"  d="M 166.664062 467.320312 L 174.070312 467.320312 L 174.070312 474.585938 L 166.664062 474.585938 Z M 166.664062 467.320312 " fill-opacity="1" fill-rule="nonzero"/></g></g></svg>