<svg xmlns="http://www.w3.org/2000/svg" xmlns:xlink="http://www.w3.org/1999/xlink" width="540" zoomAndPan="magnify" viewBox="0 0 404.88 809.999993" height="1080" preserveAspectRatio="xMidYMid meet" version="1.0"><defs><clipPath id="9d03ad912a"><path d="M 0 0.121094 L 404.5625 0.121094 L 404.5625 809.875 L 0 809.875 Z M 0 0.121094 " clip-rule="nonzero"/></clipPath></defs><g clip-path="url(#9d03ad912a)"><path fill="#f1595a" d="M -0.472656 559.371094 L -0.472656 542.882812 C 1.785156 542.882812 4.039062 542.824219 6.292969 542.714844 C 8.546875 542.605469 10.796875 542.4375 13.039062 542.21875 C 15.285156 541.996094 17.523438 541.71875 19.753906 541.390625 C 21.988281 541.058594 24.207031 540.671875 26.421875 540.234375 C 28.632812 539.792969 30.835938 539.296875 33.023438 538.75 C 35.210938 538.203125 37.382812 537.601562 39.542969 536.945312 C 41.703125 536.289062 43.84375 535.582031 45.96875 534.824219 C 48.09375 534.0625 50.195312 533.25 52.28125 532.386719 C 54.363281 531.523438 56.425781 530.609375 58.464844 529.648438 C 60.503906 528.683594 62.519531 527.667969 64.507812 526.605469 C 66.5 525.542969 68.460938 524.429688 70.394531 523.269531 C 72.332031 522.109375 74.238281 520.902344 76.113281 519.648438 C 77.988281 518.398438 79.832031 517.097656 81.644531 515.753906 C 83.457031 514.410156 85.234375 513.023438 86.976562 511.589844 C 88.722656 510.160156 90.429688 508.6875 92.101562 507.171875 C 93.773438 505.65625 95.40625 504.101562 97 502.507812 C 98.597656 500.910156 100.152344 499.277344 101.667969 497.605469 C 103.179688 495.933594 104.65625 494.226562 106.085938 492.484375 C 107.515625 490.738281 108.90625 488.960938 110.25 487.148438 C 111.59375 485.335938 112.890625 483.492188 114.144531 481.617188 C 115.398438 479.742188 116.605469 477.835938 117.765625 475.902344 C 118.921875 473.96875 120.035156 472.003906 121.097656 470.015625 C 122.164062 468.027344 123.175781 466.011719 124.140625 463.972656 C 125.105469 461.933594 126.019531 459.871094 126.882812 457.785156 C 127.746094 455.703125 128.558594 453.597656 129.316406 451.472656 C 130.078125 449.351562 130.785156 447.207031 131.441406 445.050781 C 132.09375 442.890625 132.695312 440.71875 133.246094 438.527344 C 133.792969 436.339844 134.285156 434.140625 134.726562 431.925781 C 135.167969 429.714844 135.550781 427.492188 135.882812 425.261719 C 136.214844 423.03125 136.492188 420.792969 136.710938 418.546875 C 136.933594 416.300781 137.097656 414.050781 137.210938 411.796875 C 137.320312 409.546875 137.375 407.289062 137.375 405.035156 C 137.375 402.777344 137.320312 400.523438 137.210938 398.269531 C 137.097656 396.019531 136.933594 393.769531 136.710938 391.523438 C 136.492188 389.277344 136.214844 387.039062 135.882812 384.808594 C 135.550781 382.578125 135.167969 380.355469 134.726562 378.140625 C 134.285156 375.929688 133.792969 373.730469 133.246094 371.539062 C 132.695312 369.351562 132.09375 367.179688 131.441406 365.019531 C 130.785156 362.859375 130.078125 360.71875 129.316406 358.59375 C 128.558594 356.472656 127.746094 354.367188 126.882812 352.28125 C 126.019531 350.199219 125.105469 348.136719 124.140625 346.097656 C 123.175781 344.058594 122.164062 342.042969 121.097656 340.054688 C 120.035156 338.066406 118.921875 336.101562 117.765625 334.167969 C 116.605469 332.234375 115.398438 330.328125 114.144531 328.453125 C 112.890625 326.574219 111.59375 324.730469 110.25 322.917969 C 108.90625 321.109375 107.515625 319.328125 106.085938 317.585938 C 104.65625 315.84375 103.179688 314.132812 101.667969 312.460938 C 100.152344 310.792969 98.597656 309.15625 97 307.5625 C 95.40625 305.96875 93.773438 304.414062 92.101562 302.898438 C 90.429688 301.382812 88.722656 299.910156 86.976562 298.476562 C 85.234375 297.046875 83.457031 295.660156 81.644531 294.316406 C 79.832031 292.972656 77.988281 291.671875 76.113281 290.417969 C 74.238281 289.167969 72.332031 287.960938 70.394531 286.800781 C 68.460938 285.640625 66.5 284.527344 64.507812 283.464844 C 62.519531 282.402344 60.503906 281.386719 58.464844 280.421875 C 56.425781 279.457031 54.363281 278.542969 52.28125 277.679688 C 50.195312 276.816406 48.09375 276.007812 45.96875 275.246094 C 43.84375 274.484375 41.703125 273.777344 39.542969 273.125 C 37.382812 272.46875 35.210938 271.867188 33.023438 271.320312 C 30.835938 270.769531 28.632812 270.277344 26.421875 269.835938 C 24.207031 269.398438 21.988281 269.011719 19.753906 268.679688 C 17.523438 268.347656 15.285156 268.074219 13.039062 267.851562 C 10.796875 267.628906 8.546875 267.464844 6.292969 267.355469 C 4.039062 267.242188 1.785156 267.1875 -0.472656 267.1875 L -0.472656 250.636719 C 2.035156 250.667969 4.542969 250.753906 7.042969 250.90625 C 9.546875 251.054688 12.046875 251.269531 14.539062 251.539062 C 17.03125 251.8125 19.515625 252.144531 21.992188 252.539062 C 24.46875 252.933594 26.933594 253.386719 29.390625 253.898438 C 31.84375 254.414062 34.285156 254.984375 36.710938 255.617188 C 39.136719 256.25 41.546875 256.941406 43.941406 257.691406 C 46.332031 258.441406 48.707031 259.25 51.058594 260.113281 C 53.414062 260.980469 55.746094 261.902344 58.054688 262.882812 C 60.363281 263.863281 62.644531 264.894531 64.902344 265.988281 C 67.160156 267.078125 69.390625 268.222656 71.59375 269.421875 C 73.796875 270.621094 75.96875 271.871094 78.109375 273.179688 C 80.25 274.484375 82.359375 275.839844 84.433594 277.246094 C 86.507812 278.65625 88.550781 280.113281 90.554688 281.621094 C 92.558594 283.128906 94.523438 284.683594 96.453125 286.285156 C 98.378906 287.890625 100.269531 289.539062 102.117188 291.234375 C 103.964844 292.929688 105.769531 294.667969 107.53125 296.449219 C 109.296875 298.234375 111.015625 300.058594 112.6875 301.925781 C 114.363281 303.792969 115.992188 305.699219 117.570312 307.644531 C 119.152344 309.59375 120.6875 311.574219 122.171875 313.597656 C 123.65625 315.617188 125.089844 317.675781 126.472656 319.765625 C 127.859375 321.855469 129.191406 323.980469 130.472656 326.136719 C 131.753906 328.292969 132.980469 330.476562 134.152344 332.691406 C 135.328125 334.910156 136.449219 337.152344 137.511719 339.421875 C 138.578125 341.691406 139.585938 343.988281 140.539062 346.304688 C 141.492188 348.625 142.390625 350.96875 143.226562 353.332031 C 144.066406 355.695312 144.847656 358.074219 145.570312 360.476562 C 146.292969 362.878906 146.957031 365.296875 147.5625 367.730469 C 148.167969 370.164062 148.714844 372.609375 149.199219 375.070312 C 149.683594 377.53125 150.109375 380 150.476562 382.480469 C 150.839844 384.960938 151.144531 387.449219 151.390625 389.945312 C 151.632812 392.441406 151.816406 394.941406 151.9375 397.445312 C 152.0625 399.953125 152.121094 402.457031 152.121094 404.964844 C 152.121094 407.472656 152.0625 409.980469 151.9375 412.484375 C 151.816406 414.988281 151.632812 417.488281 151.390625 419.984375 C 151.144531 422.480469 150.839844 424.96875 150.476562 427.449219 C 150.109375 429.929688 149.683594 432.402344 149.199219 434.863281 C 148.714844 437.320312 148.167969 439.769531 147.5625 442.203125 C 146.957031 444.636719 146.292969 447.054688 145.570312 449.453125 C 144.847656 451.855469 144.066406 454.238281 143.226562 456.601562 C 142.390625 458.964844 141.492188 461.304688 140.539062 463.625 C 139.585938 465.945312 138.578125 468.238281 137.511719 470.507812 C 136.449219 472.78125 135.328125 475.023438 134.152344 477.238281 C 132.980469 479.453125 131.753906 481.640625 130.472656 483.796875 C 129.191406 485.953125 127.859375 488.074219 126.472656 490.167969 C 125.089844 492.257812 123.65625 494.3125 122.171875 496.335938 C 120.6875 498.355469 119.152344 500.339844 117.570312 502.285156 C 115.992188 504.230469 114.363281 506.136719 112.6875 508.003906 C 111.015625 509.871094 109.296875 511.695312 107.53125 513.480469 C 105.769531 515.261719 103.964844 517.003906 102.117188 518.699219 C 100.269531 520.394531 98.378906 522.042969 96.453125 523.644531 C 94.523438 525.25 92.558594 526.804688 90.554688 528.3125 C 88.550781 529.816406 86.507812 531.277344 84.433594 532.683594 C 82.359375 534.089844 80.25 535.449219 78.109375 536.753906 C 75.96875 538.058594 73.796875 539.308594 71.59375 540.507812 C 69.390625 541.710938 67.160156 542.855469 64.902344 543.945312 C 62.644531 545.035156 60.363281 546.070312 58.054688 547.050781 C 55.746094 548.027344 53.414062 548.949219 51.058594 549.816406 C 48.707031 550.683594 46.332031 551.488281 43.941406 552.238281 C 41.546875 552.988281 39.136719 553.679688 36.710938 554.3125 C 34.285156 554.945312 31.84375 555.519531 29.390625 556.03125 C 26.933594 556.546875 24.46875 557 21.992188 557.394531 C 19.515625 557.785156 17.03125 558.117188 14.539062 558.390625 C 12.046875 558.664062 9.546875 558.875 7.042969 559.023438 C 4.542969 559.175781 2.035156 559.265625 -0.472656 559.292969 Z M 404.449219 405.035156 C 404.449219 181.753906 222.789062 0.117188 -0.472656 0.117188 L -0.472656 16.605469 C 213.714844 16.605469 387.957031 190.847656 387.957031 405.035156 C 387.957031 619.222656 213.714844 793.484375 -0.472656 793.484375 L -0.472656 809.972656 C 222.789062 809.972656 404.449219 628.316406 404.449219 405.035156 Z M 189.648438 405.035156 C 189.644531 401.925781 189.566406 398.816406 189.410156 395.710938 C 189.253906 392.601562 189.023438 389.5 188.714844 386.40625 C 188.40625 383.3125 188.023438 380.226562 187.5625 377.148438 C 187.105469 374.074219 186.570312 371.007812 185.960938 367.960938 C 185.351562 364.910156 184.667969 361.875 183.910156 358.859375 C 183.152344 355.84375 182.320312 352.84375 181.414062 349.871094 C 180.507812 346.894531 179.53125 343.941406 178.484375 341.015625 C 177.433594 338.085938 176.3125 335.183594 175.121094 332.3125 C 173.929688 329.4375 172.667969 326.597656 171.335938 323.785156 C 170.003906 320.976562 168.605469 318.199219 167.136719 315.457031 C 165.667969 312.710938 164.136719 310.007812 162.535156 307.339844 C 160.933594 304.671875 159.269531 302.046875 157.542969 299.460938 C 155.8125 296.875 154.023438 294.332031 152.167969 291.835938 C 150.316406 289.335938 148.402344 286.886719 146.429688 284.480469 C 144.453125 282.078125 142.421875 279.722656 140.335938 277.417969 C 138.246094 275.113281 136.101562 272.863281 133.902344 270.664062 C 131.703125 268.464844 129.449219 266.320312 127.144531 264.230469 C 124.839844 262.140625 122.484375 260.109375 120.082031 258.136719 C 117.679688 256.160156 115.226562 254.25 112.730469 252.394531 C 110.230469 250.542969 107.6875 248.75 105.101562 247.023438 C 102.515625 245.292969 99.890625 243.628906 97.222656 242.027344 C 94.554688 240.429688 91.851562 238.894531 89.109375 237.425781 C 86.367188 235.960938 83.589844 234.558594 80.777344 233.230469 C 77.964844 231.898438 75.125 230.636719 72.25 229.445312 C 69.378906 228.25 66.476562 227.132812 63.550781 226.082031 C 60.621094 225.03125 57.667969 224.054688 54.695312 223.148438 C 51.71875 222.242188 48.722656 221.414062 45.703125 220.652344 C 42.6875 219.894531 39.65625 219.210938 36.605469 218.601562 C 33.554688 217.992188 30.492188 217.460938 27.414062 217 C 24.339844 216.539062 21.253906 216.15625 18.15625 215.847656 C 15.0625 215.539062 11.960938 215.308594 8.855469 215.152344 C 5.746094 214.996094 2.640625 214.917969 -0.472656 214.914062 L -0.472656 231.40625 C 2.371094 231.40625 5.210938 231.472656 8.050781 231.613281 C 10.886719 231.753906 13.71875 231.960938 16.546875 232.242188 C 19.375 232.519531 22.195312 232.867188 25.007812 233.285156 C 27.816406 233.703125 30.617188 234.1875 33.40625 234.742188 C 36.191406 235.296875 38.964844 235.917969 41.71875 236.609375 C 44.476562 237.300781 47.214844 238.058594 49.933594 238.882812 C 52.652344 239.707031 55.351562 240.597656 58.027344 241.554688 C 60.703125 242.511719 63.351562 243.535156 65.976562 244.621094 C 68.601562 245.710938 71.199219 246.859375 73.769531 248.074219 C 76.339844 249.292969 78.875 250.570312 81.382812 251.90625 C 83.886719 253.246094 86.359375 254.648438 88.796875 256.109375 C 91.234375 257.570312 93.636719 259.089844 95.996094 260.667969 C 98.359375 262.246094 100.683594 263.882812 102.964844 265.574219 C 105.25 267.269531 107.488281 269.015625 109.683594 270.820312 C 111.882812 272.621094 114.03125 274.476562 116.136719 276.386719 C 118.242188 278.292969 120.300781 280.253906 122.3125 282.261719 C 124.320312 284.273438 126.277344 286.328125 128.1875 288.433594 C 130.097656 290.539062 131.953125 292.691406 133.753906 294.890625 C 135.558594 297.085938 137.304688 299.324219 138.996094 301.609375 C 140.691406 303.890625 142.328125 306.210938 143.90625 308.574219 C 145.484375 310.9375 147.003906 313.339844 148.464844 315.777344 C 149.925781 318.214844 151.324219 320.683594 152.664062 323.191406 C 154.003906 325.699219 155.28125 328.234375 156.496094 330.804688 C 157.710938 333.371094 158.863281 335.96875 159.949219 338.59375 C 161.039062 341.222656 162.0625 343.871094 163.019531 346.546875 C 163.976562 349.222656 164.867188 351.921875 165.691406 354.640625 C 166.515625 357.359375 167.273438 360.097656 167.964844 362.855469 C 168.65625 365.609375 169.277344 368.382812 169.832031 371.167969 C 170.386719 373.957031 170.871094 376.753906 171.289062 379.566406 C 171.707031 382.378906 172.054688 385.195312 172.332031 388.023438 C 172.609375 390.851562 172.820312 393.6875 172.960938 396.523438 C 173.097656 399.363281 173.167969 402.203125 173.167969 405.042969 C 173.167969 407.886719 173.097656 410.726562 172.960938 413.566406 C 172.820312 416.402344 172.609375 419.234375 172.332031 422.0625 C 172.054688 424.890625 171.707031 427.710938 171.289062 430.523438 C 170.871094 433.332031 170.386719 436.132812 169.832031 438.921875 C 169.277344 441.707031 168.65625 444.480469 167.964844 447.234375 C 167.273438 449.992188 166.515625 452.730469 165.691406 455.449219 C 164.867188 458.167969 163.976562 460.867188 163.019531 463.542969 C 162.0625 466.21875 161.039062 468.867188 159.949219 471.492188 C 158.863281 474.117188 157.710938 476.714844 156.496094 479.285156 C 155.28125 481.855469 154.003906 484.390625 152.664062 486.898438 C 151.324219 489.402344 149.925781 491.875 148.464844 494.3125 C 147.003906 496.75 145.484375 499.152344 143.90625 501.511719 C 142.328125 503.875 140.691406 506.199219 138.996094 508.480469 C 137.304688 510.765625 135.558594 513.003906 133.753906 515.199219 C 131.953125 517.398438 130.097656 519.546875 128.1875 521.652344 C 126.277344 523.757812 124.320312 525.816406 122.3125 527.828125 C 120.300781 529.835938 118.242188 531.792969 116.136719 533.703125 C 114.03125 535.613281 111.882812 537.46875 109.683594 539.269531 C 107.488281 541.074219 105.25 542.820312 102.964844 544.511719 C 100.683594 546.207031 98.359375 547.84375 95.996094 549.421875 C 93.636719 551 91.234375 552.519531 88.796875 553.980469 C 86.359375 555.441406 83.886719 556.839844 81.382812 558.179688 C 78.875 559.519531 76.339844 560.796875 73.769531 562.011719 C 71.199219 563.226562 68.601562 564.378906 65.976562 565.46875 C 63.351562 566.554688 60.703125 567.578125 58.027344 568.535156 C 55.351562 569.492188 52.652344 570.382812 49.933594 571.207031 C 47.214844 572.03125 44.476562 572.789062 41.71875 573.480469 C 38.964844 574.171875 36.191406 574.792969 33.40625 575.347656 C 30.617188 575.902344 27.816406 576.386719 25.007812 576.804688 C 22.195312 577.222656 19.375 577.570312 16.546875 577.847656 C 13.71875 578.125 10.886719 578.335938 8.050781 578.476562 C 5.210938 578.613281 2.371094 578.683594 -0.472656 578.683594 L -0.472656 595.175781 C 2.640625 595.171875 5.75 595.089844 8.855469 594.933594 C 11.960938 594.777344 15.0625 594.546875 18.15625 594.238281 C 21.253906 593.929688 24.339844 593.546875 27.414062 593.085938 C 30.492188 592.628906 33.554688 592.09375 36.605469 591.484375 C 39.65625 590.871094 42.6875 590.1875 45.707031 589.429688 C 48.722656 588.671875 51.71875 587.839844 54.695312 586.933594 C 57.671875 586.03125 60.625 585.050781 63.550781 584 C 66.480469 582.953125 69.378906 581.832031 72.253906 580.636719 C 75.125 579.445312 77.96875 578.183594 80.777344 576.851562 C 83.589844 575.519531 86.367188 574.121094 89.109375 572.652344 C 91.851562 571.1875 94.558594 569.652344 97.226562 568.050781 C 99.890625 566.453125 102.519531 564.785156 105.105469 563.058594 C 107.691406 561.328125 110.230469 559.535156 112.730469 557.683594 C 115.226562 555.828125 117.679688 553.914062 120.082031 551.941406 C 122.488281 549.96875 124.84375 547.9375 127.144531 545.847656 C 129.449219 543.757812 131.703125 541.613281 133.902344 539.414062 C 136.101562 537.214844 138.246094 534.960938 140.335938 532.65625 C 142.425781 530.351562 144.457031 528 146.429688 525.59375 C 148.402344 523.191406 150.316406 520.738281 152.167969 518.238281 C 154.023438 515.742188 155.8125 513.199219 157.542969 510.613281 C 159.273438 508.027344 160.9375 505.402344 162.535156 502.734375 C 164.136719 500.066406 165.667969 497.359375 167.136719 494.617188 C 168.605469 491.875 170.003906 489.097656 171.335938 486.285156 C 172.667969 483.476562 173.929688 480.632812 175.121094 477.761719 C 176.3125 474.886719 177.433594 471.988281 178.484375 469.058594 C 179.53125 466.128906 180.511719 463.179688 181.414062 460.203125 C 182.320312 457.226562 183.152344 454.230469 183.910156 451.210938 C 184.667969 448.195312 185.351562 445.164062 185.960938 442.113281 C 186.570312 439.0625 187.105469 436 187.5625 432.921875 C 188.023438 429.84375 188.40625 426.757812 188.714844 423.664062 C 189.023438 420.570312 189.253906 417.46875 189.410156 414.359375 C 189.566406 411.253906 189.644531 408.144531 189.648438 405.035156 Z M 82.242188 405.035156 C 82.238281 403.683594 82.203125 402.328125 82.132812 400.976562 C 82.066406 399.625 81.964844 398.277344 81.828125 396.933594 C 81.695312 395.585938 81.527344 394.242188 81.328125 392.90625 C 81.128906 391.566406 80.894531 390.234375 80.628906 388.90625 C 80.363281 387.582031 80.066406 386.261719 79.734375 384.949219 C 79.40625 383.636719 79.042969 382.335938 78.648438 381.039062 C 78.253906 379.746094 77.828125 378.460938 77.371094 377.1875 C 76.914062 375.914062 76.425781 374.652344 75.90625 373.402344 C 75.390625 372.152344 74.839844 370.917969 74.261719 369.695312 C 73.679688 368.472656 73.070312 367.265625 72.433594 366.070312 C 71.796875 364.878906 71.128906 363.703125 70.429688 362.542969 C 69.734375 361.382812 69.011719 360.238281 68.257812 359.113281 C 67.507812 357.992188 66.726562 356.882812 65.921875 355.796875 C 65.113281 354.710938 64.28125 353.644531 63.425781 352.601562 C 62.566406 351.554688 61.683594 350.53125 60.773438 349.527344 C 59.863281 348.523438 58.929688 347.546875 57.976562 346.589844 C 57.019531 345.632812 56.039062 344.699219 55.035156 343.789062 C 54.035156 342.882812 53.007812 342 51.964844 341.140625 C 50.917969 340.28125 49.851562 339.449219 48.765625 338.640625 C 47.679688 337.835938 46.574219 337.058594 45.449219 336.304688 C 44.324219 335.550781 43.179688 334.828125 42.019531 334.132812 C 40.859375 333.4375 39.683594 332.769531 38.492188 332.128906 C 37.300781 331.492188 36.089844 330.882812 34.867188 330.304688 C 33.644531 329.722656 32.410156 329.175781 31.160156 328.65625 C 29.910156 328.136719 28.648438 327.648438 27.375 327.191406 C 26.101562 326.734375 24.816406 326.308594 23.523438 325.914062 C 22.230469 325.519531 20.925781 325.160156 19.613281 324.828125 C 18.300781 324.5 16.980469 324.199219 15.65625 323.933594 C 14.328125 323.667969 12.996094 323.4375 11.660156 323.234375 C 10.320312 323.035156 8.976562 322.867188 7.632812 322.734375 C 6.285156 322.597656 4.9375 322.496094 3.585938 322.429688 C 2.234375 322.359375 0.882812 322.324219 -0.472656 322.324219 L -0.472656 338.792969 C 0.613281 338.792969 1.695312 338.820312 2.777344 338.875 C 3.863281 338.925781 4.941406 339.007812 6.023438 339.113281 C 7.101562 339.21875 8.175781 339.351562 9.25 339.511719 C 10.320312 339.671875 11.386719 339.855469 12.453125 340.066406 C 13.515625 340.277344 14.574219 340.515625 15.625 340.78125 C 16.675781 341.042969 17.71875 341.332031 18.757812 341.644531 C 19.792969 341.960938 20.824219 342.300781 21.84375 342.667969 C 22.867188 343.03125 23.875 343.421875 24.878906 343.835938 C 25.878906 344.25 26.871094 344.691406 27.851562 345.152344 C 28.832031 345.617188 29.796875 346.105469 30.753906 346.617188 C 31.710938 347.125 32.652344 347.660156 33.582031 348.21875 C 34.511719 348.777344 35.429688 349.355469 36.332031 349.957031 C 37.230469 350.558594 38.117188 351.183594 38.988281 351.828125 C 39.859375 352.476562 40.714844 353.140625 41.550781 353.832031 C 42.390625 354.519531 43.210938 355.226562 44.011719 355.953125 C 44.816406 356.683594 45.601562 357.429688 46.367188 358.195312 C 47.132812 358.960938 47.882812 359.746094 48.609375 360.550781 C 49.335938 361.355469 50.046875 362.175781 50.734375 363.011719 C 51.421875 363.851562 52.089844 364.703125 52.734375 365.574219 C 53.378906 366.445312 54.003906 367.332031 54.605469 368.234375 C 55.207031 369.136719 55.789062 370.050781 56.34375 370.980469 C 56.902344 371.910156 57.4375 372.851562 57.949219 373.808594 C 58.457031 374.765625 58.945312 375.734375 59.410156 376.714844 C 59.875 377.691406 60.3125 378.683594 60.726562 379.6875 C 61.140625 380.6875 61.53125 381.699219 61.898438 382.71875 C 62.261719 383.738281 62.601562 384.769531 62.917969 385.804688 C 63.230469 386.84375 63.519531 387.886719 63.785156 388.941406 C 64.046875 389.992188 64.285156 391.046875 64.496094 392.113281 C 64.707031 393.175781 64.894531 394.242188 65.050781 395.316406 C 65.210938 396.386719 65.34375 397.464844 65.449219 398.542969 C 65.554688 399.621094 65.636719 400.703125 65.691406 401.785156 C 65.742188 402.867188 65.769531 403.949219 65.769531 405.035156 C 65.769531 406.117188 65.742188 407.203125 65.691406 408.285156 C 65.636719 409.367188 65.554688 410.449219 65.449219 411.527344 C 65.34375 412.605469 65.210938 413.683594 65.050781 414.753906 C 64.894531 415.828125 64.707031 416.894531 64.496094 417.957031 C 64.285156 419.019531 64.046875 420.078125 63.785156 421.128906 C 63.519531 422.179688 63.230469 423.226562 62.917969 424.261719 C 62.601562 425.300781 62.261719 426.328125 61.898438 427.351562 C 61.53125 428.371094 61.140625 429.382812 60.726562 430.382812 C 60.3125 431.386719 59.875 432.375 59.410156 433.355469 C 58.945312 434.335938 58.457031 435.304688 57.949219 436.261719 C 57.4375 437.214844 56.902344 438.160156 56.34375 439.089844 C 55.789062 440.019531 55.207031 440.933594 54.605469 441.835938 C 54.003906 442.738281 53.378906 443.625 52.734375 444.496094 C 52.089844 445.363281 51.421875 446.21875 50.734375 447.058594 C 50.046875 447.894531 49.335938 448.714844 48.609375 449.519531 C 47.882812 450.324219 47.132812 451.105469 46.367188 451.875 C 45.601562 452.640625 44.816406 453.386719 44.011719 454.117188 C 43.210938 454.84375 42.390625 455.550781 41.550781 456.238281 C 40.714844 456.925781 39.859375 457.59375 38.988281 458.238281 C 38.117188 458.886719 37.230469 459.507812 36.332031 460.113281 C 35.429688 460.714844 34.511719 461.292969 33.582031 461.851562 C 32.652344 462.410156 31.710938 462.941406 30.753906 463.453125 C 29.796875 463.964844 28.832031 464.453125 27.851562 464.914062 C 26.871094 465.378906 25.878906 465.816406 24.878906 466.234375 C 23.875 466.648438 22.867188 467.039062 21.84375 467.402344 C 20.824219 467.769531 19.792969 468.109375 18.757812 468.421875 C 17.71875 468.738281 16.675781 469.027344 15.625 469.289062 C 14.574219 469.554688 13.515625 469.789062 12.453125 470.003906 C 11.386719 470.214844 10.320312 470.398438 9.25 470.558594 C 8.175781 470.71875 7.101562 470.851562 6.023438 470.957031 C 4.941406 471.0625 3.863281 471.140625 2.777344 471.195312 C 1.695312 471.25 0.613281 471.273438 -0.472656 471.273438 L -0.472656 487.765625 C 0.882812 487.765625 2.234375 487.730469 3.585938 487.660156 C 4.9375 487.589844 6.285156 487.488281 7.632812 487.355469 C 8.980469 487.222656 10.320312 487.054688 11.660156 486.851562 C 13 486.652344 14.332031 486.417969 15.65625 486.152344 C 16.984375 485.886719 18.304688 485.589844 19.617188 485.257812 C 20.929688 484.929688 22.234375 484.566406 23.527344 484.171875 C 24.820312 483.777344 26.105469 483.351562 27.378906 482.894531 C 28.652344 482.4375 29.914062 481.949219 31.164062 481.429688 C 32.414062 480.914062 33.652344 480.363281 34.875 479.785156 C 36.097656 479.203125 37.304688 478.59375 38.496094 477.957031 C 39.691406 477.316406 40.867188 476.648438 42.027344 475.953125 C 43.1875 475.257812 44.328125 474.53125 45.453125 473.78125 C 46.578125 473.027344 47.683594 472.25 48.773438 471.441406 C 49.859375 470.636719 50.925781 469.804688 51.96875 468.945312 C 53.015625 468.085938 54.039062 467.203125 55.042969 466.292969 C 56.046875 465.382812 57.023438 464.449219 57.980469 463.492188 C 58.9375 462.535156 59.871094 461.554688 60.78125 460.554688 C 61.6875 459.550781 62.574219 458.527344 63.429688 457.480469 C 64.289062 456.433594 65.121094 455.367188 65.929688 454.28125 C 66.734375 453.195312 67.515625 452.089844 68.265625 450.964844 C 69.019531 449.839844 69.742188 448.695312 70.4375 447.535156 C 71.132812 446.375 71.800781 445.199219 72.441406 444.003906 C 73.078125 442.8125 73.6875 441.605469 74.265625 440.382812 C 74.847656 439.15625 75.394531 437.921875 75.914062 436.671875 C 76.433594 435.421875 76.921875 434.160156 77.375 432.886719 C 77.832031 431.613281 78.257812 430.328125 78.652344 429.035156 C 79.046875 427.738281 79.410156 426.4375 79.738281 425.125 C 80.070312 423.8125 80.367188 422.492188 80.632812 421.164062 C 80.898438 419.835938 81.128906 418.503906 81.332031 417.167969 C 81.53125 415.828125 81.699219 414.484375 81.832031 413.140625 C 81.964844 411.792969 82.066406 410.441406 82.136719 409.09375 C 82.203125 407.742188 82.238281 406.386719 82.242188 405.035156 Z M 46.4375 405.035156 C 46.4375 403.5 46.359375 401.964844 46.207031 400.4375 C 46.054688 398.910156 45.828125 397.390625 45.527344 395.886719 C 45.226562 394.378906 44.851562 392.890625 44.40625 391.421875 C 43.957031 389.953125 43.441406 388.507812 42.851562 387.089844 C 42.261719 385.671875 41.605469 384.285156 40.882812 382.929688 C 40.15625 381.574219 39.367188 380.257812 38.515625 378.984375 C 37.660156 377.707031 36.746094 376.472656 35.773438 375.285156 C 34.796875 374.097656 33.769531 372.960938 32.683594 371.875 C 31.597656 370.789062 30.460938 369.757812 29.273438 368.785156 C 28.085938 367.808594 26.855469 366.894531 25.578125 366.039062 C 24.300781 365.1875 22.984375 364.394531 21.632812 363.671875 C 20.277344 362.945312 18.890625 362.289062 17.472656 361.699219 C 16.054688 361.109375 14.609375 360.59375 13.140625 360.144531 C 11.671875 359.695312 10.183594 359.324219 8.675781 359.019531 C 7.171875 358.71875 5.652344 358.492188 4.125 358.339844 C 2.597656 358.1875 1.066406 358.109375 -0.472656 358.105469 L -0.472656 374.597656 C 0.527344 374.597656 1.519531 374.644531 2.511719 374.742188 C 3.503906 374.839844 4.488281 374.988281 5.46875 375.183594 C 6.445312 375.375 7.410156 375.617188 8.363281 375.90625 C 9.316406 376.199219 10.253906 376.53125 11.175781 376.914062 C 12.097656 377.296875 12.996094 377.722656 13.878906 378.191406 C 14.757812 378.660156 15.609375 379.171875 16.4375 379.726562 C 17.269531 380.28125 18.066406 380.875 18.839844 381.507812 C 19.609375 382.140625 20.347656 382.808594 21.050781 383.511719 C 21.757812 384.21875 22.425781 384.953125 23.058594 385.726562 C 23.691406 386.496094 24.28125 387.296875 24.835938 388.125 C 25.390625 388.953125 25.902344 389.808594 26.371094 390.6875 C 26.84375 391.566406 27.269531 392.464844 27.648438 393.386719 C 28.03125 394.308594 28.367188 395.246094 28.65625 396.199219 C 28.945312 397.152344 29.1875 398.117188 29.382812 399.097656 C 29.574219 400.074219 29.722656 401.058594 29.820312 402.050781 C 29.917969 403.042969 29.964844 404.039062 29.964844 405.035156 C 29.964844 406.03125 29.917969 407.027344 29.820312 408.019531 C 29.722656 409.011719 29.574219 409.996094 29.382812 410.972656 C 29.1875 411.949219 28.945312 412.917969 28.65625 413.871094 C 28.367188 414.824219 28.03125 415.761719 27.648438 416.683594 C 27.269531 417.605469 26.84375 418.503906 26.371094 419.382812 C 25.902344 420.261719 25.390625 421.117188 24.835938 421.945312 C 24.28125 422.773438 23.691406 423.574219 23.058594 424.34375 C 22.425781 425.113281 21.757812 425.851562 21.050781 426.558594 C 20.347656 427.261719 19.609375 427.929688 18.839844 428.5625 C 18.066406 429.195312 17.269531 429.789062 16.4375 430.34375 C 15.609375 430.894531 14.757812 431.410156 13.878906 431.878906 C 12.996094 432.347656 12.097656 432.773438 11.175781 433.15625 C 10.253906 433.535156 9.320312 433.871094 8.363281 434.160156 C 7.410156 434.449219 6.445312 434.691406 5.46875 434.886719 C 4.488281 435.082031 3.503906 435.226562 2.511719 435.324219 C 1.519531 435.421875 0.527344 435.472656 -0.472656 435.472656 L -0.472656 451.964844 C 1.066406 451.960938 2.597656 451.882812 4.125 451.730469 C 5.65625 451.578125 7.171875 451.351562 8.679688 451.050781 C 10.183594 450.75 11.671875 450.375 13.144531 449.929688 C 14.613281 449.480469 16.058594 448.964844 17.476562 448.375 C 18.894531 447.785156 20.28125 447.128906 21.636719 446.402344 C 22.988281 445.679688 24.304688 444.890625 25.582031 444.035156 C 26.859375 443.179688 28.089844 442.265625 29.277344 441.292969 C 30.464844 440.316406 31.601562 439.285156 32.6875 438.199219 C 33.773438 437.113281 34.804688 435.976562 35.777344 434.789062 C 36.753906 433.601562 37.667969 432.367188 38.519531 431.089844 C 39.375 429.8125 40.164062 428.5 40.886719 427.144531 C 41.613281 425.789062 42.269531 424.402344 42.855469 422.984375 C 43.445312 421.5625 43.960938 420.121094 44.410156 418.648438 C 44.855469 417.179688 45.230469 415.691406 45.53125 414.183594 C 45.832031 412.679688 46.054688 411.160156 46.207031 409.632812 C 46.359375 408.101562 46.4375 406.570312 46.4375 405.035156 Z M 118.042969 405.035156 C 118.042969 403.097656 117.992188 401.15625 117.894531 399.222656 C 117.796875 397.285156 117.652344 395.351562 117.460938 393.421875 C 117.269531 391.492188 117.03125 389.570312 116.742188 387.652344 C 116.457031 385.734375 116.125 383.824219 115.742188 381.921875 C 115.363281 380.023438 114.9375 378.132812 114.464844 376.25 C 113.992188 374.371094 113.472656 372.503906 112.910156 370.648438 C 112.34375 368.792969 111.734375 366.953125 111.082031 365.125 C 110.425781 363.300781 109.730469 361.492188 108.984375 359.703125 C 108.242188 357.910156 107.457031 356.140625 106.625 354.386719 C 105.796875 352.636719 104.925781 350.902344 104.007812 349.195312 C 103.09375 347.484375 102.136719 345.796875 101.140625 344.136719 C 100.144531 342.472656 99.105469 340.835938 98.027344 339.222656 C 96.949219 337.613281 95.832031 336.027344 94.679688 334.46875 C 93.523438 332.914062 92.332031 331.386719 91.101562 329.886719 C 89.871094 328.386719 88.601562 326.921875 87.300781 325.484375 C 86 324.046875 84.664062 322.644531 83.292969 321.273438 C 81.921875 319.902344 80.515625 318.566406 79.078125 317.261719 C 77.644531 315.960938 76.175781 314.695312 74.675781 313.464844 C 73.179688 312.234375 71.648438 311.039062 70.09375 309.886719 C 68.535156 308.730469 66.953125 307.613281 65.339844 306.535156 C 63.726562 305.457031 62.089844 304.421875 60.425781 303.421875 C 58.765625 302.425781 57.078125 301.46875 55.367188 300.554688 C 53.660156 299.640625 51.929688 298.765625 50.175781 297.9375 C 48.421875 297.109375 46.652344 296.320312 44.859375 295.578125 C 43.070312 294.835938 41.261719 294.136719 39.4375 293.480469 C 37.613281 292.828125 35.773438 292.21875 33.917969 291.652344 C 32.0625 291.089844 30.195312 290.570312 28.3125 290.097656 C 26.433594 289.625 24.542969 289.199219 22.640625 288.820312 C 20.738281 288.441406 18.828125 288.105469 16.910156 287.820312 C 14.992188 287.535156 13.070312 287.296875 11.140625 287.101562 C 9.210938 286.910156 7.277344 286.765625 5.34375 286.667969 C 3.40625 286.570312 1.46875 286.523438 -0.472656 286.519531 L -0.472656 302.992188 C 1.199219 302.992188 2.867188 303.035156 4.535156 303.117188 C 6.203125 303.199219 7.867188 303.324219 9.527344 303.488281 C 11.1875 303.652344 12.84375 303.855469 14.496094 304.101562 C 16.148438 304.347656 17.792969 304.632812 19.429688 304.960938 C 21.066406 305.285156 22.695312 305.652344 24.3125 306.058594 C 25.933594 306.464844 27.542969 306.910156 29.140625 307.398438 C 30.738281 307.882812 32.320312 308.40625 33.894531 308.96875 C 35.464844 309.53125 37.023438 310.132812 38.5625 310.773438 C 40.105469 311.414062 41.632812 312.089844 43.140625 312.804688 C 44.648438 313.519531 46.140625 314.269531 47.613281 315.054688 C 49.085938 315.84375 50.535156 316.667969 51.96875 317.527344 C 53.398438 318.382812 54.808594 319.277344 56.199219 320.207031 C 57.585938 321.132812 58.949219 322.09375 60.289062 323.089844 C 61.628906 324.085938 62.945312 325.113281 64.238281 326.171875 C 65.527344 327.230469 66.789062 328.320312 68.027344 329.441406 C 69.261719 330.566406 70.472656 331.714844 71.652344 332.898438 C 72.832031 334.078125 73.984375 335.285156 75.105469 336.523438 C 76.226562 337.761719 77.316406 339.023438 78.375 340.316406 C 79.433594 341.605469 80.457031 342.921875 81.453125 344.265625 C 82.449219 345.605469 83.410156 346.96875 84.335938 348.359375 C 85.261719 349.746094 86.15625 351.15625 87.011719 352.589844 C 87.871094 354.019531 88.695312 355.472656 89.480469 356.945312 C 90.265625 358.417969 91.019531 359.910156 91.730469 361.417969 C 92.445312 362.925781 93.121094 364.453125 93.757812 365.996094 C 94.398438 367.539062 95 369.09375 95.5625 370.667969 C 96.125 372.238281 96.648438 373.824219 97.132812 375.421875 C 97.617188 377.019531 98.0625 378.628906 98.464844 380.246094 C 98.871094 381.867188 99.238281 383.496094 99.5625 385.132812 C 99.886719 386.769531 100.175781 388.414062 100.417969 390.066406 C 100.664062 391.71875 100.867188 393.375 101.03125 395.035156 C 101.195312 396.699219 101.316406 398.363281 101.398438 400.027344 C 101.480469 401.695312 101.523438 403.363281 101.523438 405.035156 C 101.523438 406.703125 101.480469 408.371094 101.398438 410.039062 C 101.316406 411.707031 101.195312 413.371094 101.03125 415.035156 C 100.867188 416.695312 100.664062 418.351562 100.417969 420.003906 C 100.175781 421.65625 99.886719 423.300781 99.5625 424.9375 C 99.238281 426.574219 98.871094 428.203125 98.464844 429.820312 C 98.0625 431.441406 97.617188 433.050781 97.132812 434.648438 C 96.648438 436.246094 96.125 437.828125 95.5625 439.402344 C 95 440.972656 94.398438 442.53125 93.761719 444.074219 C 93.121094 445.617188 92.445312 447.140625 91.730469 448.652344 C 91.019531 450.160156 90.265625 451.652344 89.480469 453.125 C 88.695312 454.597656 87.871094 456.046875 87.011719 457.480469 C 86.15625 458.914062 85.261719 460.324219 84.335938 461.710938 C 83.410156 463.101562 82.449219 464.464844 81.453125 465.804688 C 80.460938 467.148438 79.433594 468.464844 78.375 469.753906 C 77.316406 471.042969 76.226562 472.308594 75.105469 473.546875 C 73.984375 474.78125 72.832031 475.992188 71.652344 477.171875 C 70.472656 478.355469 69.261719 479.503906 68.027344 480.625 C 66.789062 481.746094 65.527344 482.839844 64.238281 483.898438 C 62.945312 484.957031 61.628906 485.984375 60.289062 486.980469 C 58.949219 487.972656 57.585938 488.9375 56.199219 489.863281 C 54.808594 490.792969 53.398438 491.683594 51.96875 492.542969 C 50.535156 493.402344 49.085938 494.226562 47.613281 495.011719 C 46.140625 495.800781 44.648438 496.550781 43.140625 497.265625 C 41.632812 497.980469 40.105469 498.65625 38.5625 499.296875 C 37.023438 499.9375 35.464844 500.539062 33.894531 501.101562 C 32.320312 501.664062 30.738281 502.1875 29.140625 502.671875 C 27.542969 503.15625 25.933594 503.605469 24.3125 504.011719 C 22.695312 504.417969 21.066406 504.78125 19.429688 505.109375 C 17.792969 505.433594 16.148438 505.722656 14.496094 505.96875 C 12.84375 506.210938 11.1875 506.417969 9.527344 506.582031 C 7.867188 506.746094 6.203125 506.871094 4.535156 506.953125 C 2.867188 507.035156 1.199219 507.078125 -0.472656 507.078125 L -0.472656 523.570312 C 1.46875 523.566406 3.40625 523.515625 5.34375 523.421875 C 7.28125 523.324219 9.210938 523.179688 11.140625 522.984375 C 13.070312 522.792969 14.996094 522.554688 16.914062 522.269531 C 18.832031 521.980469 20.742188 521.648438 22.644531 521.269531 C 24.542969 520.890625 26.4375 520.460938 28.316406 519.988281 C 30.195312 519.515625 32.066406 519 33.921875 518.433594 C 35.773438 517.871094 37.617188 517.261719 39.441406 516.605469 C 41.265625 515.953125 43.074219 515.253906 44.867188 514.507812 C 46.65625 513.765625 48.429688 512.980469 50.179688 512.148438 C 51.933594 511.320312 53.664062 510.445312 55.375 509.53125 C 57.085938 508.617188 58.769531 507.660156 60.433594 506.664062 C 62.097656 505.664062 63.734375 504.628906 65.347656 503.550781 C 66.957031 502.472656 68.542969 501.355469 70.097656 500.199219 C 71.65625 499.042969 73.183594 497.851562 74.683594 496.621094 C 76.183594 495.390625 77.648438 494.121094 79.085938 492.820312 C 80.523438 491.519531 81.925781 490.179688 83.296875 488.808594 C 84.667969 487.4375 86.007812 486.035156 87.308594 484.597656 C 88.609375 483.160156 89.875 481.691406 91.105469 480.195312 C 92.335938 478.695312 93.53125 477.167969 94.683594 475.609375 C 95.839844 474.050781 96.957031 472.46875 98.035156 470.855469 C 99.113281 469.242188 100.148438 467.605469 101.148438 465.941406 C 102.144531 464.277344 103.101562 462.59375 104.015625 460.882812 C 104.929688 459.171875 105.800781 457.441406 106.632812 455.6875 C 107.460938 453.9375 108.25 452.164062 108.992188 450.375 C 109.734375 448.582031 110.433594 446.773438 111.085938 444.949219 C 111.742188 443.121094 112.351562 441.28125 112.914062 439.425781 C 113.476562 437.570312 113.996094 435.703125 114.46875 433.824219 C 114.941406 431.941406 115.367188 430.050781 115.746094 428.148438 C 116.125 426.246094 116.460938 424.335938 116.746094 422.417969 C 117.03125 420.5 117.269531 418.578125 117.460938 416.648438 C 117.652344 414.71875 117.796875 412.785156 117.894531 410.847656 C 117.992188 408.910156 118.042969 406.972656 118.042969 405.035156 Z M 332.84375 405.035156 C 332.84375 221.246094 183.316406 71.664062 -0.53125 71.664062 L -0.53125 88.132812 C 174.164062 88.132812 316.3125 230.28125 316.3125 404.976562 C 316.3125 579.671875 174.164062 721.816406 -0.53125 721.816406 L -0.53125 738.308594 C 183.316406 738.367188 332.84375 588.84375 332.84375 405.035156 Z M 368.644531 405.035156 C 368.644531 201.5 203.0625 35.917969 -0.472656 35.917969 L -0.472656 52.390625 C 193.96875 52.390625 352.152344 210.59375 352.152344 405.035156 C 352.152344 599.476562 193.96875 757.601562 -0.472656 757.601562 L -0.472656 774.09375 C 203.0625 774.171875 368.644531 608.570312 368.644531 405.035156 Z M 297.039062 405.035156 C 297.039062 240.992188 163.570312 107.503906 -0.472656 107.503906 L -0.472656 123.996094 C 154.496094 123.996094 280.566406 250.066406 280.566406 405.035156 C 280.566406 560.003906 154.496094 686.074219 -0.472656 686.074219 L -0.472656 702.566406 C 163.570312 702.566406 297.039062 569.097656 297.039062 405.035156 Z M 261.257812 405.035156 C 261.257812 260.71875 143.84375 143.308594 -0.472656 143.308594 L -0.472656 159.898438 C 3.519531 159.933594 7.507812 160.066406 11.492188 160.296875 C 15.476562 160.527344 19.453125 160.855469 23.417969 161.28125 C 27.386719 161.703125 31.34375 162.226562 35.285156 162.84375 C 39.230469 163.460938 43.15625 164.171875 47.0625 164.984375 C 50.96875 165.792969 54.855469 166.695312 58.71875 167.695312 C 62.582031 168.695312 66.421875 169.785156 70.230469 170.972656 C 74.042969 172.160156 77.820312 173.4375 81.570312 174.808594 C 85.316406 176.179688 89.03125 177.640625 92.707031 179.191406 C 96.382812 180.746094 100.019531 182.386719 103.617188 184.117188 C 107.214844 185.84375 110.765625 187.660156 114.273438 189.5625 C 117.78125 191.46875 121.242188 193.453125 124.652344 195.527344 C 128.0625 197.597656 131.421875 199.753906 134.726562 201.988281 C 138.03125 204.222656 141.28125 206.539062 144.476562 208.933594 C 147.667969 211.328125 150.800781 213.796875 153.871094 216.34375 C 156.945312 218.894531 159.953125 221.511719 162.898438 224.207031 C 165.839844 226.902344 168.71875 229.667969 171.527344 232.5 C 174.335938 235.335938 177.074219 238.238281 179.742188 241.207031 C 182.410156 244.171875 185.003906 247.203125 187.523438 250.300781 C 190.042969 253.394531 192.484375 256.550781 194.851562 259.761719 C 197.21875 262.976562 199.503906 266.246094 201.707031 269.574219 C 203.914062 272.898438 206.039062 276.277344 208.078125 279.707031 C 210.121094 283.136719 212.078125 286.613281 213.949219 290.136719 C 215.820312 293.664062 217.605469 297.230469 219.300781 300.84375 C 221 304.453125 222.605469 308.105469 224.125 311.796875 C 225.644531 315.488281 227.074219 319.210938 228.410156 322.972656 C 229.746094 326.734375 230.992188 330.523438 232.144531 334.34375 C 233.296875 338.164062 234.355469 342.011719 235.316406 345.882812 C 236.28125 349.757812 237.152344 353.652344 237.925781 357.566406 C 238.699219 361.480469 239.378906 365.414062 239.960938 369.359375 C 240.542969 373.308594 241.027344 377.269531 241.417969 381.242188 C 241.804688 385.210938 242.097656 389.191406 242.292969 393.179688 C 242.488281 397.164062 242.585938 401.152344 242.585938 405.144531 C 242.585938 409.132812 242.488281 413.121094 242.292969 417.109375 C 242.097656 421.09375 241.804688 425.074219 241.417969 429.046875 C 241.027344 433.019531 240.542969 436.976562 239.960938 440.925781 C 239.378906 444.875 238.699219 448.804688 237.925781 452.71875 C 237.152344 456.636719 236.28125 460.53125 235.316406 464.402344 C 234.355469 468.273438 233.296875 472.121094 232.144531 475.941406 C 230.992188 479.761719 229.746094 483.554688 228.410156 487.3125 C 227.074219 491.074219 225.644531 494.800781 224.125 498.488281 C 222.605469 502.179688 221 505.832031 219.300781 509.445312 C 217.605469 513.054688 215.820312 516.625 213.949219 520.148438 C 212.078125 523.675781 210.121094 527.152344 208.078125 530.582031 C 206.039062 534.011719 203.914062 537.386719 201.707031 540.714844 C 199.503906 544.039062 197.21875 547.308594 194.851562 550.523438 C 192.484375 553.738281 190.042969 556.890625 187.523438 559.988281 C 185.003906 563.082031 182.410156 566.113281 179.742188 569.082031 C 177.074219 572.050781 174.335938 574.949219 171.527344 577.785156 C 168.71875 580.621094 165.839844 583.382812 162.898438 586.078125 C 159.953125 588.773438 156.945312 591.394531 153.871094 593.941406 C 150.800781 596.488281 147.667969 598.960938 144.476562 601.355469 C 141.28125 603.746094 138.03125 606.0625 134.726562 608.296875 C 131.421875 610.535156 128.0625 612.6875 124.652344 614.761719 C 121.242188 616.832031 117.78125 618.820312 114.273438 620.722656 C 110.765625 622.625 107.214844 624.441406 103.617188 626.171875 C 100.019531 627.902344 96.382812 629.542969 92.707031 631.09375 C 89.03125 632.644531 85.316406 634.105469 81.570312 635.476562 C 77.820312 636.847656 74.042969 638.125 70.230469 639.3125 C 66.421875 640.5 62.582031 641.59375 58.71875 642.589844 C 54.855469 643.589844 50.96875 644.496094 47.0625 645.304688 C 43.15625 646.113281 39.230469 646.828125 35.285156 647.445312 C 31.34375 648.0625 27.386719 648.582031 23.417969 649.007812 C 19.453125 649.433594 15.476562 649.757812 11.492188 649.988281 C 7.507812 650.21875 3.519531 650.351562 -0.472656 650.390625 L -0.472656 666.859375 C 143.84375 666.859375 261.257812 549.351562 261.257812 405.035156 Z M 225.453125 405.035156 C 225.449219 401.339844 225.355469 397.644531 225.167969 393.953125 C 224.984375 390.261719 224.707031 386.578125 224.34375 382.898438 C 223.976562 379.21875 223.519531 375.554688 222.972656 371.898438 C 222.429688 368.242188 221.792969 364.601562 221.070312 360.976562 C 220.34375 357.351562 219.53125 353.746094 218.632812 350.164062 C 217.730469 346.578125 216.742188 343.015625 215.667969 339.480469 C 214.589844 335.945312 213.429688 332.4375 212.183594 328.957031 C 210.933594 325.476562 209.601562 322.03125 208.1875 318.617188 C 206.769531 315.203125 205.269531 311.824219 203.6875 308.484375 C 202.105469 305.144531 200.445312 301.84375 198.699219 298.585938 C 196.957031 295.328125 195.132812 292.113281 193.234375 288.941406 C 191.332031 285.773438 189.351562 282.652344 187.300781 279.578125 C 185.246094 276.507812 183.117188 273.484375 180.914062 270.515625 C 178.710938 267.546875 176.4375 264.636719 174.09375 261.777344 C 171.746094 258.921875 169.332031 256.125 166.851562 253.386719 C 164.367188 250.648438 161.820312 247.972656 159.207031 245.355469 C 156.59375 242.742188 153.917969 240.195312 151.179688 237.714844 C 148.4375 235.230469 145.640625 232.816406 142.785156 230.472656 C 139.929688 228.125 137.015625 225.851562 134.046875 223.648438 C 131.078125 221.449219 128.058594 219.320312 124.984375 217.265625 C 121.914062 215.210938 118.789062 213.230469 115.621094 211.332031 C 112.453125 209.429688 109.238281 207.605469 105.976562 205.863281 C 102.71875 204.121094 99.417969 202.457031 96.078125 200.875 C 92.738281 199.292969 89.359375 197.792969 85.945312 196.375 C 82.53125 194.960938 79.085938 193.628906 75.605469 192.378906 C 72.125 191.132812 68.617188 189.972656 65.082031 188.894531 C 61.546875 187.820312 57.984375 186.832031 54.402344 185.933594 C 50.816406 185.03125 47.210938 184.21875 43.585938 183.496094 C 39.960938 182.769531 36.320312 182.136719 32.667969 181.589844 C 29.011719 181.042969 25.34375 180.585938 21.664062 180.222656 C 17.988281 179.855469 14.300781 179.582031 10.609375 179.394531 C 6.917969 179.210938 3.226562 179.113281 -0.472656 179.109375 L -0.472656 195.601562 C 2.933594 195.636719 6.339844 195.75 9.738281 195.949219 C 13.140625 196.148438 16.535156 196.429688 19.921875 196.796875 C 23.308594 197.160156 26.683594 197.609375 30.050781 198.136719 C 33.414062 198.667969 36.765625 199.277344 40.101562 199.96875 C 43.4375 200.664062 46.753906 201.4375 50.050781 202.292969 C 53.347656 203.148438 56.625 204.082031 59.875 205.097656 C 63.128906 206.109375 66.355469 207.203125 69.550781 208.375 C 72.75 209.546875 75.917969 210.796875 79.058594 212.125 C 82.195312 213.449219 85.300781 214.851562 88.367188 216.332031 C 91.4375 217.808594 94.46875 219.359375 97.460938 220.984375 C 100.457031 222.613281 103.410156 224.308594 106.320312 226.078125 C 109.230469 227.847656 112.097656 229.6875 114.917969 231.597656 C 117.738281 233.507812 120.511719 235.488281 123.234375 237.53125 C 125.960938 239.578125 128.632812 241.6875 131.253906 243.863281 C 133.875 246.039062 136.445312 248.277344 138.957031 250.578125 C 141.46875 252.878906 143.921875 255.238281 146.320312 257.660156 C 148.71875 260.078125 151.054688 262.558594 153.332031 265.089844 C 155.605469 267.625 157.820312 270.214844 159.96875 272.855469 C 162.121094 275.5 164.203125 278.191406 166.222656 280.9375 C 168.242188 283.679688 170.191406 286.472656 172.074219 289.3125 C 173.957031 292.152344 175.769531 295.035156 177.511719 297.964844 C 179.25 300.890625 180.921875 303.859375 182.519531 306.871094 C 184.113281 309.878906 185.636719 312.925781 187.085938 316.007812 C 188.535156 319.09375 189.90625 322.210938 191.203125 325.359375 C 192.496094 328.511719 193.714844 331.691406 194.855469 334.902344 C 195.996094 338.109375 197.058594 341.347656 198.042969 344.609375 C 199.027344 347.871094 199.929688 351.152344 200.75 354.460938 C 201.574219 357.765625 202.316406 361.089844 202.976562 364.429688 C 203.636719 367.773438 204.214844 371.128906 204.710938 374.5 C 205.210938 377.871094 205.625 381.25 205.957031 384.640625 C 206.289062 388.03125 206.535156 391.429688 206.703125 394.832031 C 206.867188 398.234375 206.953125 401.636719 206.953125 405.042969 C 206.953125 408.453125 206.867188 411.855469 206.703125 415.257812 C 206.535156 418.660156 206.289062 422.058594 205.957031 425.449219 C 205.625 428.839844 205.210938 432.21875 204.710938 435.589844 C 204.214844 438.960938 203.636719 442.316406 202.976562 445.65625 C 202.316406 449 201.574219 452.324219 200.75 455.628906 C 199.929688 458.9375 199.027344 462.21875 198.042969 465.480469 C 197.058594 468.742188 195.996094 471.980469 194.855469 475.1875 C 193.714844 478.398438 192.496094 481.578125 191.203125 484.730469 C 189.90625 487.878906 188.535156 490.996094 187.085938 494.082031 C 185.636719 497.164062 184.113281 500.210938 182.519531 503.21875 C 180.921875 506.230469 179.25 509.199219 177.511719 512.125 C 175.769531 515.054688 173.957031 517.9375 172.074219 520.777344 C 170.191406 523.617188 168.242188 526.40625 166.222656 529.152344 C 164.203125 531.894531 162.121094 534.589844 159.96875 537.230469 C 157.820312 539.875 155.605469 542.464844 153.332031 544.996094 C 151.054688 547.53125 148.71875 550.011719 146.320312 552.429688 C 143.921875 554.851562 141.46875 557.210938 138.957031 559.511719 C 136.445312 561.8125 133.875 564.050781 131.253906 566.226562 C 128.632812 568.402344 125.960938 570.511719 123.234375 572.558594 C 120.511719 574.601562 117.738281 576.582031 114.917969 578.488281 C 112.097656 580.398438 109.230469 582.238281 106.320312 584.007812 C 103.410156 585.78125 100.457031 587.476562 97.460938 589.101562 C 94.46875 590.730469 91.4375 592.28125 88.367188 593.757812 C 85.300781 595.238281 82.195312 596.640625 79.058594 597.964844 C 75.917969 599.292969 72.75 600.542969 69.550781 601.714844 C 66.355469 602.886719 63.128906 603.980469 59.875 604.992188 C 56.625 606.007812 53.347656 606.941406 50.050781 607.796875 C 46.753906 608.652344 43.4375 609.425781 40.101562 610.117188 C 36.765625 610.8125 33.414062 611.421875 30.050781 611.953125 C 26.683594 612.480469 23.308594 612.929688 19.921875 613.292969 C 16.535156 613.65625 13.140625 613.941406 9.738281 614.140625 C 6.339844 614.339844 2.933594 614.453125 -0.472656 614.488281 L -0.472656 630.957031 C 3.226562 630.953125 6.917969 630.859375 10.609375 630.675781 C 14.300781 630.488281 17.988281 630.214844 21.664062 629.847656 C 25.34375 629.480469 29.011719 629.027344 32.667969 628.480469 C 36.320312 627.933594 39.960938 627.300781 43.585938 626.574219 C 47.210938 625.851562 50.816406 625.039062 54.402344 624.136719 C 57.984375 623.238281 61.546875 622.25 65.082031 621.171875 C 68.617188 620.097656 72.125 618.9375 75.605469 617.6875 C 79.085938 616.441406 82.53125 615.109375 85.945312 613.691406 C 89.359375 612.277344 92.738281 610.777344 96.078125 609.195312 C 99.417969 607.613281 102.71875 605.949219 105.976562 604.207031 C 109.238281 602.460938 112.453125 600.640625 115.621094 598.738281 C 118.789062 596.835938 121.914062 594.859375 124.984375 592.804688 C 128.058594 590.75 131.078125 588.621094 134.046875 586.417969 C 137.015625 584.21875 139.929688 581.941406 142.785156 579.597656 C 145.640625 577.253906 148.4375 574.839844 151.179688 572.355469 C 153.917969 569.875 156.59375 567.324219 159.207031 564.710938 C 161.820312 562.097656 164.367188 559.421875 166.851562 556.683594 C 169.332031 553.945312 171.746094 551.148438 174.09375 548.289062 C 176.4375 545.433594 178.710938 542.519531 180.914062 539.550781 C 183.117188 536.585938 185.246094 533.5625 187.300781 530.492188 C 189.355469 527.417969 191.332031 524.296875 193.234375 521.128906 C 195.132812 517.957031 196.957031 514.742188 198.699219 511.484375 C 200.445312 508.226562 202.105469 504.925781 203.6875 501.585938 C 205.269531 498.242188 206.769531 494.867188 208.1875 491.453125 C 209.601562 488.039062 210.933594 484.589844 212.183594 481.113281 C 213.429688 477.632812 214.589844 474.125 215.667969 470.589844 C 216.742188 467.050781 217.730469 463.492188 218.632812 459.90625 C 219.53125 456.320312 220.34375 452.71875 221.070312 449.09375 C 221.792969 445.46875 222.429688 441.828125 222.972656 438.171875 C 223.519531 434.515625 223.976562 430.847656 224.339844 427.171875 C 224.707031 423.492188 224.984375 419.808594 225.167969 416.117188 C 225.355469 412.425781 225.449219 408.730469 225.453125 405.035156 Z M 225.453125 405.035156 " fill-opacity="1" fill-rule="nonzero"/></g></svg>