<svg xmlns="http://www.w3.org/2000/svg" xmlns:xlink="http://www.w3.org/1999/xlink" width="520" zoomAndPan="magnify" viewBox="0 0 390 389.999986" height="520" preserveAspectRatio="xMidYMid meet" version="1.0"><defs><filter x="0%" y="0%" width="100%" height="100%" id="b88940b1e5"><feColorMatrix values="0 0 0 0 1 0 0 0 0 1 0 0 0 0 1 0 0 0 1 0" color-interpolation-filters="sRGB"/></filter><mask id="123cc7a202"><g filter="url(#b88940b1e5)"><rect x="-39" width="468" fill="#000000" y="-38.999999" height="467.999983" fill-opacity="0.34"/></g></mask><clipPath id="d3609f90e8"><path d="M 0 0 L 389.710938 0 L 389.710938 389.710938 L 0 389.710938 Z M 0 0 " clip-rule="nonzero"/></clipPath><clipPath id="971d324bd7"><path d="M 92.648438 93.234375 L 389.023438 93.234375 L 389.023438 389.609375 L 92.648438 389.609375 Z M 92.648438 93.234375 " clip-rule="nonzero"/></clipPath><clipPath id="8a1c351914"><rect x="0" width="390" y="0" height="390"/></clipPath></defs><g mask="url(#123cc7a202)"><g transform="matrix(1, 0, 0, 1, 0, 0)"><g clip-path="url(#8a1c351914)"><g clip-path="url(#d3609f90e8)"><path fill="#ffffff" d="M 389.996094 173.664062 L 389.996094 0 C 174.605469 0 0 174.605469 0 389.996094 L 173.664062 389.996094 C 173.664062 270.519531 270.523438 173.664062 389.996094 173.664062 Z M 389.996094 173.664062 " fill-opacity="1" fill-rule="nonzero"/></g><g clip-path="url(#971d324bd7)"><path fill="#254441" d="M 389.414062 225.382812 L 389.414062 93.234375 C 225.515625 93.234375 92.648438 226.097656 92.648438 389.996094 L 224.796875 389.996094 C 224.796875 299.082031 298.5 225.382812 389.414062 225.382812 Z M 389.414062 225.382812 " fill-opacity="1" fill-rule="nonzero"/></g></g></g></g></svg>