<?xml version="1.0" encoding="UTF-8"?>
<svg id="Capa_2" data-name="Capa 2" xmlns="http://www.w3.org/2000/svg" viewBox="0 0 88.59 191.38">
  <defs>
    <style>
      .cls-1 {
        fill: none;
        stroke: #ea4d50;
        stroke-miterlimit: 10;
      }

      .cls-2 {
        fill: #244340;
      }
    </style>
  </defs>
  <g id="Capa_1-2" data-name="Capa 1">
    <g>
      <g>
        <path class="cls-2" d="M61.23,73.93c-1.2,8.01-8.09,14.16-16.44,14.16s-15.24-6.15-16.44-14.16H1c1.29,23.07,20.4,41.38,43.79,41.38s42.5-18.31,43.79-41.38h-27.35Z"/>
        <path class="cls-2" d="M61.23,36.99c-1.2,8.01-8.09,14.16-16.44,14.16s-15.24-6.15-16.44-14.16H1c1.29,23.07,20.4,41.38,43.79,41.38s42.5-18.31,43.79-41.38h-27.35Z"/>
        <path class="cls-2" d="M61.23,0c-1.2,8.01-8.09,14.16-16.44,14.16S29.56,8.01,28.35,0H1c1.29,23.07,20.4,41.38,43.79,41.38S87.3,23.07,88.59,0h-27.35Z"/>
      </g>
      <path class="cls-1" d="M74.86,36.65c0,17.32-14.04,31.35-31.35,31.35s-31.35-14.04-31.35-31.35"/>
      <path class="cls-1" d="M74.86.74c0,17.32-14.04,31.35-31.35,31.35S12.15,18.06,12.15.74"/>
      <path class="cls-1" d="M74.86,74.17c0,17.32-14.04,31.35-31.35,31.35s-31.35-14.04-31.35-31.35"/>
      <path class="cls-2" d="M60.23,149.99c-1.2,8.01-8.09,14.16-16.44,14.16s-15.24-6.15-16.44-14.16H0c1.29,23.07,20.4,41.38,43.79,41.38s42.5-18.31,43.79-41.38h-27.35Z"/>
      <path class="cls-2" d="M60.23,113c-1.2,8.01-8.09,14.16-16.44,14.16s-15.24-6.15-16.44-14.16H0c1.29,23.07,20.4,41.38,43.79,41.38s42.5-18.31,43.79-41.38h-27.35Z"/>
      <path class="cls-1" d="M73.86,149.65c0,17.32-14.04,31.35-31.35,31.35s-31.35-14.04-31.35-31.35"/>
      <path class="cls-1" d="M73.86,113.74c0,17.32-14.04,31.35-31.35,31.35s-31.35-14.04-31.35-31.35"/>
    </g>
  </g>
</svg>