<?xml version="1.0" encoding="UTF-8"?>
<svg id="Capa_2" data-name="Capa 2" xmlns="http://www.w3.org/2000/svg" viewBox="0 0 33.55 145.06">
  <defs>
    <style>
      .cls-1 {
        fill: #244340;
      }
    </style>
  </defs>
  <g id="Capa_1-2" data-name="Capa 1">
    <path class="cls-1" d="M9.69,145.06l-4.47-12.69c4.76-1.68,9.57-3.68,12.51-6.99,3.11-3.49,3.11-9.37.01-12.83-1.38-1.54-3.12-3.03-4.96-4.61-4.91-4.21-11.02-9.45-12.42-18.21-1.35-8.46,2.25-17.18,9.16-22.24.68-.5,1.37-.98,2.07-1.47,3.35-2.34,5.43-3.88,6.01-5.97,1.11-3.99-.04-5.53-5.46-10.36-2.3-2.05-4.91-4.38-7.06-7.33C.91,36.61-.78,29.78.33,23.11c1.1-6.57,4.84-12.38,10.52-16.35C15.48,3.53,20.65,1.66,25.22,0l4.58,12.65c-3.97,1.44-8.08,2.93-11.25,5.14-2.7,1.88-4.46,4.56-4.95,7.54-.51,3.07.33,6.31,2.36,9.1,1.31,1.79,3.17,3.46,5.15,5.22,5.46,4.87,12.93,11.54,9.46,24.01-1.91,6.86-7.1,10.48-11.27,13.39-.62.43-1.23.86-1.83,1.3-2.79,2.04-4.36,5.85-3.81,9.26.59,3.7,3.38,6.25,7.89,10.12,2.09,1.79,4.26,3.65,6.22,5.85,7.7,8.6,7.71,22.1.02,30.75-4.98,5.59-11.64,8.47-18.1,10.74Z"/>
  </g>
</svg>