<?xml version="1.0" encoding="UTF-8"?>
<svg id="Capa_2" data-name="Capa 2" xmlns="http://www.w3.org/2000/svg" xmlns:xlink="http://www.w3.org/1999/xlink" viewBox="0 0 61.35 71.01">
  <defs>
    <style>
      .cls-1 {
        fill: #254441;
      }

      .cls-2 {
        fill: none;
      }

      .cls-3 {
        fill: #ea4d50;
      }

      .cls-4 {
        clip-path: url(#clippath);
      }
    </style>
    <clipPath id="clippath">
      <rect class="cls-2" width="61.35" height="71.01"/>
    </clipPath>
  </defs>
  <g id="Capa_1-2" data-name="Capa 1">
    <g class="cls-4">
      <path class="cls-1" d="M56.85,23.67v6.27c0,7.82-1.39,14.6-4.14,20.15-2.17,4.38-5.19,8.03-8.98,10.84-3.4,2.52-6.81,3.9-9.08,4.61-1.97.62-3.44.86-3.97.93-.54-.07-2-.31-3.97-.93-2.27-.71-5.68-2.09-9.08-4.61-3.79-2.81-6.81-6.46-8.98-10.84-2.75-5.55-4.14-12.33-4.14-20.15v-10.93c3.73-.81,7.37-1.94,10.85-3.38,3.24-1.34,6.36-2.96,9.25-4.79,2.75-1.75,4.79-3.37,6.07-4.48,1.29,1.12,3.32,2.74,6.07,4.48,2.4,1.52,4.94,2.89,7.59,4.08l2.65-3.76c-2.69-1.16-5.27-2.51-7.69-4.04-4.55-2.87-6.97-5.37-6.99-5.4L30.69,0l-1.64,1.72s-2.44,2.53-7,5.4c-2.67,1.68-5.53,3.16-8.52,4.39-3.73,1.54-7.66,2.7-11.69,3.44L0,15.3v14.65C0,38.53,1.57,46.03,4.68,52.24c2.52,5.04,6.04,9.23,10.46,12.46,7.52,5.49,15.01,6.26,15.33,6.29l.21.02.21-.02c.32-.03,7.81-.8,15.33-6.29,4.42-3.23,7.94-7.42,10.46-12.46,3.11-6.21,4.68-13.71,4.68-22.3v-12.66l-4.51,6.39Z"/>
      <path class="cls-3" d="M28.82,53.85l-13.2-10.92c-1.08-.89-1.23-2.5-.34-3.58l2.96-3.57c.89-1.08,2.5-1.23,3.58-.34l7.22,5.98L52.02,8.85c.81-1.15,2.39-1.42,3.54-.61l3.79,2.67c1.15.81,1.42,2.39.61,3.54l-27.44,38.9c-.85,1.21-2.55,1.44-3.7.49"/>
    </g>
  </g>
</svg>