<?xml version="1.0" encoding="UTF-8"?>
<svg id="Capa_2" data-name="Capa 2" xmlns="http://www.w3.org/2000/svg" viewBox="0 0 75.48 70.66">
  <defs>
    <style>
      .cls-1 {
        fill: #254441;
      }

      .cls-2 {
        fill: #ea4d50;
      }
    </style>
  </defs>
  <g id="Capa_1-2" data-name="Capa 1">
    <g>
      <path class="cls-1" d="M.69,9.68V0c9.99.65,18.61,4.18,26.05,10.53,7.33,6.26,12.23,14.11,15.08,23.35,4.57,14.85,14.67,23.64,29.92,26.52,1.21.23,2.43.39,3.71.6v9.66c-14.23-.79-25.84-6.49-34.42-17.53-3.46-4.45-6.32-9.69-8.12-15.03C27.23,21.29,18.23,12.94.69,9.68Z"/>
      <path class="cls-2" d="M0,68.66v-9.66c4.87-.45,9.27-2.25,11.63-6.67,1.36-2.55,2.28-5.71,2.21-8.57-.17-7.08-5.31-11.79-13.71-13.25v-9.69c8.92.5,15.86,4.18,20.3,11.76,4.91,8.38,4.76,17.01-.5,25.2-4.52,7.04-11.18,10.61-19.94,10.88Z"/>
      <path class="cls-2" d="M75.48,2.3v9.36c-10.44,3.4-14.31,7.69-13.91,15.36.38,7.09,5.09,11.73,13.87,13.5v9.58c-8.15-.28-14.63-3.54-19.23-10.01-5.56-7.82-6.23-16.35-1.8-24.86,4.29-8.23,11.35-12.5,21.07-12.93Z"/>
    </g>
  </g>
</svg>