<svg xmlns="http://www.w3.org/2000/svg" xmlns:xlink="http://www.w3.org/1999/xlink" width="522" zoomAndPan="magnify" viewBox="0 0 391.5 42.75" height="57" preserveAspectRatio="xMidYMid meet" version="1.0"><defs><clipPath id="b054c68001"><path d="M 1 0.0390625 L 390 0.0390625 L 390 42 L 1 42 Z M 1 0.0390625 " clip-rule="nonzero"/></clipPath></defs><g clip-path="url(#b054c68001)"><path fill="#e8abac" d="M 374.691406 29.230469 C 374.683594 29.238281 374.679688 29.246094 374.671875 29.253906 C 374.667969 29.257812 374.664062 29.257812 374.660156 29.261719 Z M 210.203125 1.234375 C 210.1875 1.273438 210.175781 1.3125 210.164062 1.351562 C 210.191406 1.328125 210.21875 1.304688 210.25 1.277344 C 210.25 1.277344 210.238281 1.269531 210.226562 1.257812 L 210.25 1.277344 C 210.308594 1.261719 210.367188 1.257812 210.425781 1.242188 C 210.347656 1.242188 210.273438 1.242188 210.203125 1.234375 Z M 389.515625 16.65625 C 388.925781 17.789062 388.425781 19.007812 387.832031 20.085938 C 387.015625 21.5625 386.125 23.722656 383.570312 22.886719 C 382.023438 24.078125 380.453125 22.089844 378.886719 22.90625 C 378.742188 22.984375 378.351562 22.660156 378.253906 22.738281 C 377.011719 23.738281 375.476562 23.210938 374.128906 23.585938 C 373.742188 23.695312 373.160156 23.964844 373.113281 24.238281 C 373.007812 24.863281 373.402344 25.179688 374.125 25.105469 C 374.378906 25.078125 374.671875 25.449219 374.945312 25.636719 C 374.710938 25.863281 374.503906 26.242188 374.238281 26.289062 C 373.480469 26.417969 373.109375 26.597656 373.429688 27.496094 C 373.511719 27.71875 372.957031 28.382812 372.578125 28.515625 C 371.507812 28.886719 370.375 29.09375 369.269531 29.359375 C 369.007812 29.421875 368.746094 29.453125 368.484375 29.5 C 368.726562 29.753906 369.039062 30.269531 369.203125 30.226562 C 370.546875 29.871094 372.003906 30.519531 373.285156 29.746094 L 373.277344 29.730469 C 373.320312 29.71875 373.367188 29.707031 373.410156 29.695312 C 373.367188 29.710938 373.328125 29.726562 373.285156 29.746094 C 373.625 30.277344 373.941406 31.214844 374.359375 29.765625 C 374.410156 29.582031 374.5625 29.425781 374.671875 29.253906 C 374.867188 29.183594 375.058594 29.109375 375.253906 29.035156 C 375.554688 30.5 376.6875 30.40625 377.742188 30.273438 C 378.921875 30.128906 380.234375 30.777344 381.269531 29.722656 C 382.296875 30.429688 383.339844 30.148438 384.484375 30.019531 C 385.277344 29.929688 385.871094 31.03125 385.648438 31.945312 C 385.402344 32.964844 385.785156 33.242188 386.664062 33.589844 C 387.867188 34.066406 387.90625 34.617188 386.796875 35.328125 C 385.425781 36.203125 384.027344 36.871094 382.210938 36.710938 C 380.402344 36.546875 378.515625 36.820312 376.722656 37.191406 C 376.09375 37.320312 375.285156 38.25 375.179688 38.910156 C 374.9375 40.425781 373.664062 40.644531 372.808594 40.652344 C 370.976562 40.667969 369.164062 40.8125 367.339844 40.921875 C 365.136719 41.054688 362.929688 41.148438 360.722656 41.1875 C 359.707031 41.203125 358.6875 41.042969 357.667969 40.964844 C 356.898438 40.90625 356.109375 40.71875 355.363281 40.828125 C 354.234375 40.992188 353.140625 40.886719 352.023438 40.828125 C 351.292969 40.789062 350.351562 40.824219 349.847656 41.242188 C 348.945312 41.992188 347.886719 41.703125 347.28125 41.425781 C 345.046875 40.40625 342.75 40.972656 340.5 40.847656 C 338.191406 40.71875 335.882812 41.238281 333.539062 40.851562 C 332.617188 40.699219 331.542969 41.019531 330.640625 41.375 C 329.789062 41.710938 329.027344 41.890625 328.261719 41.378906 C 326.496094 40.207031 324.796875 40.425781 323.058594 41.449219 C 322.804688 41.597656 322.121094 41.566406 322.089844 41.472656 C 321.765625 40.476562 320.949219 40.824219 320.328125 40.808594 C 317.917969 40.75 315.5 40.863281 313.097656 40.707031 C 310.292969 40.523438 307.507812 40.738281 304.71875 40.84375 C 303.785156 40.882812 302.910156 40.695312 302.027344 40.679688 C 298.949219 40.625 295.863281 40.855469 292.78125 40.894531 C 290.886719 40.921875 288.988281 40.773438 287.09375 40.746094 C 285.214844 40.722656 283.339844 40.738281 281.460938 40.765625 C 281.003906 40.773438 280.527344 40.84375 280.09375 40.988281 C 279.515625 41.183594 278.78125 42.480469 278.601562 40.6875 C 278.59375 40.605469 278.207031 40.507812 278 40.515625 C 275.152344 40.609375 272.308594 40.714844 269.460938 40.824219 C 266.886719 40.921875 264.339844 40.925781 261.753906 40.585938 C 259.492188 40.292969 257.140625 40.695312 254.828125 40.738281 C 252.296875 40.789062 249.753906 40.65625 247.234375 40.824219 C 244.421875 41.015625 241.632812 40.578125 238.820312 40.753906 C 235.898438 40.933594 232.960938 40.792969 230.03125 40.792969 C 227.085938 40.792969 224.144531 40.851562 221.203125 40.78125 C 218.722656 40.722656 216.246094 40.46875 213.765625 40.386719 C 212.78125 40.355469 211.789062 40.617188 210.796875 40.648438 C 208.589844 40.726562 206.378906 40.78125 204.167969 40.78125 C 199.355469 40.777344 194.539062 40.5625 189.738281 40.789062 C 188.058594 40.871094 186.195312 40.140625 184.609375 41.339844 L 184.617188 41.355469 C 184.570312 41.367188 184.527344 41.378906 184.480469 41.390625 C 184.519531 41.375 184.5625 41.359375 184.601562 41.34375 C 184.382812 41.167969 184.164062 40.855469 183.941406 40.855469 C 179.714844 40.867188 175.484375 40.898438 171.253906 40.972656 C 169.855469 40.996094 168.460938 41.207031 167.0625 41.199219 C 166.730469 41.199219 166.429688 40.617188 166.054688 40.40625 C 165.820312 40.277344 165.472656 40.34375 165.171875 40.320312 C 164.992188 40.046875 164.8125 39.773438 164.632812 39.503906 C 164.457031 39.675781 164.285156 39.847656 164.109375 40.019531 C 164.382812 40.203125 164.652344 40.382812 164.925781 40.5625 C 163.558594 40.890625 162.199219 41.042969 160.867188 40.429688 C 160.871094 40.4375 160.875 40.445312 160.875 40.453125 C 159.882812 40.566406 158.890625 40.660156 157.902344 40.800781 C 156.949219 40.941406 156.101562 41.078125 156.71875 39.617188 C 156.804688 39.40625 156.472656 39.023438 156.339844 38.722656 C 156.011719 38.886719 155.382812 39.125 155.402344 39.207031 C 155.644531 40.207031 154.734375 40.285156 154.261719 40.652344 C 153.902344 40.925781 153.378906 41.175781 152.953125 41.140625 C 151.527344 41.023438 151.132812 40.058594 152.070312 38.945312 C 152.550781 38.375 153.320312 38.046875 153.816406 37.488281 C 154.125 37.140625 154.207031 36.566406 154.292969 36.078125 C 154.304688 35.992188 153.824219 35.742188 153.554688 35.710938 C 153.027344 35.652344 152.609375 35.625 152.515625 36.46875 C 152.453125 37.058594 151.757812 38.042969 151.34375 38.042969 C 149.53125 38.050781 149.375 38.695312 150.230469 40.066406 C 150.300781 40.179688 150.175781 40.589844 150.105469 40.597656 C 149.425781 40.695312 148.738281 40.757812 148.050781 40.78125 C 147.335938 40.808594 146.851562 40.773438 146.722656 39.730469 C 146.605469 38.773438 145.910156 38.824219 145.230469 39.746094 C 144.972656 40.097656 144.703125 40.644531 144.367188 40.699219 C 143.558594 40.84375 142.703125 40.757812 141.871094 40.726562 C 141.828125 40.726562 141.757812 40.386719 141.765625 40.207031 C 141.785156 39.699219 141.832031 39.195312 141.871094 38.691406 C 141.945312 38.535156 142.015625 38.382812 142.085938 38.226562 C 141.933594 38.300781 141.78125 38.375 141.625 38.445312 C 141.289062 38.597656 140.773438 38.660156 140.652344 38.914062 C 140.390625 39.46875 140.476562 40.527344 140.148438 40.648438 C 139.398438 40.929688 138.488281 40.777344 137.640625 40.789062 C 136.820312 40.796875 135.960938 40.835938 136.628906 39.570312 C 136.679688 39.476562 136.464844 39.125 136.308594 39.074219 C 136.148438 39.019531 135.855469 39.121094 135.726562 39.253906 C 135.414062 39.578125 135.167969 39.960938 134.894531 40.320312 C 134.710938 39.898438 134.53125 39.46875 134.328125 39.054688 C 134.320312 39.035156 134.078125 39.132812 133.945312 39.175781 C 134.109375 39.597656 134.273438 40.023438 134.449219 40.441406 C 134.472656 40.496094 134.570312 40.515625 134.636719 40.554688 C 133.648438 40.628906 132.636719 40.867188 131.6875 40.71875 C 131.035156 40.621094 129.867188 40.710938 130.003906 39.390625 C 130.015625 39.285156 129.695312 39.035156 129.5625 39.058594 C 129.394531 39.085938 129.1875 39.300781 129.128906 39.476562 C 129.007812 39.847656 129 40.574219 128.890625 40.582031 C 127.875 40.683594 126.84375 40.699219 125.824219 40.628906 C 125.699219 40.621094 125.652344 39.949219 125.503906 39.613281 C 125.164062 38.824219 124.359375 38.6875 124.042969 39.460938 C 123.355469 41.121094 122.191406 41.148438 120.746094 40.808594 C 119.773438 40.578125 119.378906 39.890625 120.113281 39.289062 C 120.882812 38.660156 120.738281 38.644531 119.953125 38.421875 C 119.171875 38.199219 118.433594 37.839844 117.675781 37.539062 C 117.804688 37.144531 118.050781 36.742188 118.039062 36.351562 C 118.015625 35.550781 117.542969 35.929688 117.175781 36.117188 C 117.023438 36.042969 116.867188 35.972656 116.714844 35.898438 C 116.785156 36.054688 116.859375 36.207031 116.933594 36.363281 C 116.320312 37.082031 116.871094 37.414062 117.398438 37.757812 C 117.683594 38 118.097656 38.183594 118.226562 38.492188 C 118.476562 39.105469 118.570312 39.785156 118.726562 40.4375 C 118.082031 40.507812 117.433594 40.632812 116.785156 40.640625 C 115.523438 40.65625 114.261719 40.570312 113.003906 40.582031 C 107.851562 40.640625 102.703125 40.640625 97.554688 40.820312 C 93.421875 40.960938 89.289062 40.625 85.15625 40.832031 C 82.46875 40.96875 79.777344 41.128906 77.089844 41.113281 C 73.429688 41.089844 69.757812 40.644531 66.121094 40.859375 C 61.78125 41.113281 57.449219 40.242188 53.117188 41.007812 C 52.097656 41.183594 50.992188 40.832031 49.925781 40.765625 C 47.851562 40.632812 45.777344 40.523438 43.703125 40.414062 C 43.402344 40.398438 42.910156 40.3125 42.820312 40.453125 C 41.796875 42.082031 40.675781 41.058594 39.570312 40.632812 C 39.289062 40.527344 38.972656 40.332031 38.710938 40.382812 C 35.816406 40.9375 32.886719 39.929688 30.0625 40.445312 C 28.328125 40.761719 26.804688 39.847656 25.140625 40.246094 C 24.84375 40.316406 24.183594 39.742188 24.015625 39.332031 C 23.507812 38.074219 22.582031 37.929688 21.414062 37.980469 C 20.203125 38.03125 18.949219 38.199219 18.023438 37.003906 C 17.636719 36.5 17.402344 36.152344 17.890625 35.640625 C 18.5 35 18.523438 33.882812 19.632812 33.625 C 19.875 33.570312 20.011719 33.078125 20.195312 32.785156 C 19.945312 32.636719 19.714844 32.421875 19.445312 32.347656 C 19.003906 32.222656 18.53125 32.21875 18.089844 32.101562 C 17.890625 32.046875 17.566406 31.746094 17.582031 31.71875 C 18.40625 30.292969 16.390625 29.964844 16.453125 28.765625 C 16.484375 28.164062 16.5625 27.339844 17.152344 26.945312 C 17.390625 26.789062 17.527344 26.480469 17.707031 26.242188 C 17.484375 26.085938 17.273438 25.90625 17.03125 25.785156 C 16.117188 25.328125 15.421875 25.988281 14.640625 26.257812 C 14.066406 26.457031 13.34375 26.867188 12.90625 26.679688 C 11.890625 26.25 10.996094 25.523438 10.085938 24.871094 C 10.003906 24.8125 10.089844 24.363281 10.222656 24.191406 C 11.332031 22.757812 12.269531 22.421875 14.269531 22.726562 C 15.0625 22.847656 15.660156 22.984375 15.347656 21.746094 C 15.207031 21.183594 15.609375 20.476562 15.78125 19.839844 C 15.925781 19.300781 16.039062 18.886719 15.234375 19.34375 C 14.742188 19.625 14.265625 19.652344 13.886719 19.019531 C 13.355469 18.121094 12.453125 17.871094 11.46875 18 C 10.210938 18.164062 8.933594 17.304688 7.679688 18.105469 C 7.558594 18.183594 7.054688 17.96875 6.984375 17.789062 C 6.453125 16.441406 5.414062 15.503906 4.46875 14.488281 C 4.488281 14.320312 4.507812 14.152344 4.527344 13.984375 C 4.414062 14.0625 4.300781 14.136719 4.183594 14.210938 C 3.839844 14.105469 3.210938 14.035156 3.195312 13.894531 C 2.992188 12.117188 4.269531 10.898438 6.015625 11.074219 C 6.363281 11.109375 6.949219 11.089844 7.050781 10.894531 C 7.996094 9.105469 9.566406 10.308594 10.820312 10.0625 C 11.089844 10.007812 11.464844 10.320312 11.695312 10.230469 C 13.679688 9.457031 15.644531 8.644531 17.59375 7.789062 C 17.78125 7.703125 17.921875 7.246094 17.898438 6.976562 C 17.804688 5.777344 18.453125 5.496094 19.46875 5.601562 C 20.90625 5.75 22.332031 5.011719 23.777344 5.566406 C 23.90625 5.617188 24.082031 5.546875 24.234375 5.515625 C 25.203125 5.296875 25.296875 4.859375 24.546875 4.039062 C 24.410156 3.890625 24.28125 3.730469 24.148438 3.578125 C 24.332031 3.480469 24.515625 3.300781 24.699219 3.300781 C 27.867188 3.289062 31.039062 3.347656 34.207031 3.296875 C 38.890625 3.226562 43.574219 3.074219 48.257812 2.972656 C 49.21875 2.949219 50.1875 2.996094 51.152344 3.003906 C 56.558594 3.035156 61.96875 3.054688 67.378906 3.09375 C 73.261719 3.132812 79.144531 3.210938 85.027344 3.238281 C 91.433594 3.269531 97.839844 3.34375 104.242188 3.246094 C 112.214844 3.128906 120.179688 3.304688 128.148438 3.273438 C 135.632812 3.242188 143.121094 3.339844 150.601562 3.207031 C 155.71875 3.113281 160.828125 3.316406 165.941406 3.273438 C 171.0625 3.230469 176.179688 3.3125 181.300781 3.25 C 184.164062 3.21875 187.027344 2.949219 189.894531 2.890625 C 191.847656 2.847656 193.804688 3.011719 195.757812 3.039062 C 201.460938 3.121094 207.160156 3.175781 212.863281 3.246094 C 213.640625 3.253906 214.476562 3.359375 214.78125 2.378906 C 214.863281 2.109375 214.867188 1.722656 214.726562 1.511719 C 214.632812 1.371094 214.207031 1.390625 213.945312 1.441406 C 213.507812 1.527344 213.082031 1.699219 212.648438 1.820312 C 211.59375 2.113281 211.605469 2.097656 210.875 1.324219 C 210.792969 1.234375 210.609375 1.238281 210.425781 1.242188 C 212.269531 0.765625 214.117188 0.6875 216.003906 1.035156 C 216.90625 1.203125 216.480469 1.410156 216.230469 1.851562 C 215.609375 2.964844 215.726562 3.253906 216.898438 3.242188 C 222.003906 3.191406 227.109375 3.097656 232.214844 2.953125 C 232.820312 2.933594 233.808594 3.738281 234.074219 2.398438 C 234.078125 2.386719 234.371094 2.382812 234.386719 2.429688 C 234.988281 4 236.214844 2.941406 237.148438 3.109375 C 238.007812 3.261719 238.828125 3.378906 239.441406 2.5625 C 239.859375 3.6875 240.839844 3.226562 241.574219 3.230469 C 242.292969 3.230469 243.132812 3.105469 243.710938 2.722656 C 244.503906 2.199219 244.382812 3.59375 245.371094 3.15625 C 248.003906 1.988281 250.808594 2.789062 253.546875 3.171875 C 254.304688 3.277344 255.113281 3.117188 255.886719 3.015625 C 257.890625 2.75 259.84375 3.433594 261.933594 2.964844 C 263.875 2.53125 266.023438 3 268.078125 3.085938 C 269.300781 3.132812 270.519531 3.257812 271.742188 3.261719 C 281.332031 3.273438 290.929688 3.429688 300.515625 3.210938 C 306.414062 3.078125 312.300781 3.476562 318.195312 3.261719 C 321.796875 3.128906 325.398438 2.90625 329 2.925781 C 335.246094 2.957031 341.488281 3.203125 347.734375 3.253906 C 355.011719 3.316406 362.292969 3.34375 369.566406 3.21875 C 371.582031 3.183594 373.296875 3.992188 375.066406 4.554688 C 377.070312 5.191406 378.878906 6.25 381.136719 6.152344 C 382.46875 6.097656 383.886719 6.699219 384.761719 7.859375 C 385.71875 9.128906 385.355469 10.1875 383.789062 11.347656 C 383.585938 11.496094 383.429688 11.707031 383.25 11.890625 C 383.453125 11.980469 383.652344 12.132812 383.863281 12.15625 C 384.453125 12.214844 385.074219 12.125 385.640625 12.269531 C 387.4375 12.71875 388.601562 14.050781 389.667969 15.4375 C 389.847656 15.675781 389.699219 16.304688 389.515625 16.65625 Z M 16.832031 19.398438 C 16.777344 19.316406 16.683594 19.261719 16.597656 19.191406 C 16.566406 19.332031 16.535156 19.449219 16.507812 19.570312 C 16.605469 19.578125 16.703125 19.59375 16.800781 19.582031 C 16.820312 19.578125 16.859375 19.4375 16.832031 19.398438 Z M 23.082031 28.648438 C 22.910156 28.535156 22.746094 28.347656 22.558594 28.320312 C 21.84375 28.222656 21.125 28.136719 20.402344 28.125 C 20.15625 28.121094 19.910156 28.355469 19.660156 28.480469 C 19.898438 28.605469 20.121094 28.777344 20.375 28.851562 C 20.585938 28.914062 20.832031 28.863281 20.855469 28.863281 C 21.519531 28.828125 21.980469 28.8125 22.4375 28.773438 C 22.65625 28.753906 22.867188 28.691406 23.082031 28.648438 Z M 23.710938 26.941406 L 23.667969 26.78125 L 23.582031 26.917969 Z M 26.132812 5.265625 C 26.089844 5.214844 26.046875 5.167969 26 5.121094 C 25.953125 5.1875 25.902344 5.25 25.851562 5.316406 C 25.894531 5.34375 25.941406 5.367188 25.984375 5.394531 C 26.035156 5.351562 26.082031 5.308594 26.132812 5.265625 Z M 98.753906 39.199219 C 98.714844 39.179688 98.660156 39.125 98.628906 39.136719 C 98.570312 39.15625 98.53125 39.21875 98.480469 39.261719 C 98.574219 39.289062 98.664062 39.316406 98.753906 39.34375 C 98.753906 39.296875 98.753906 39.25 98.753906 39.199219 Z M 103.414062 39.199219 C 103.375 39.179688 103.320312 39.125 103.285156 39.136719 C 103.230469 39.15625 103.1875 39.21875 103.140625 39.261719 C 103.230469 39.289062 103.324219 39.316406 103.414062 39.34375 C 103.414062 39.296875 103.414062 39.25 103.414062 39.199219 Z M 106.210938 36.40625 C 106.171875 36.382812 106.113281 36.328125 106.082031 36.339844 C 106.027344 36.359375 105.984375 36.421875 105.933594 36.464844 C 106.027344 36.492188 106.117188 36.519531 106.210938 36.546875 C 106.210938 36.5 106.210938 36.453125 106.210938 36.40625 Z M 109.445312 39.632812 C 109.398438 39.632812 109.351562 39.632812 109.300781 39.632812 C 109.28125 39.671875 109.226562 39.726562 109.238281 39.761719 C 109.257812 39.816406 109.316406 39.859375 109.363281 39.90625 C 109.390625 39.816406 109.417969 39.722656 109.445312 39.632812 Z M 110.527344 35.730469 C 110.453125 35.621094 110.382812 35.515625 110.308594 35.40625 C 110.230469 35.511719 110.074219 35.632812 110.09375 35.714844 C 110.128906 35.847656 110.273438 35.957031 110.371094 36.074219 C 110.421875 35.960938 110.476562 35.84375 110.527344 35.730469 Z M 112.238281 37.304688 C 112.191406 37.304688 112.148438 37.304688 112.097656 37.304688 C 112.074219 37.34375 112.019531 37.398438 112.03125 37.429688 C 112.050781 37.488281 112.113281 37.527344 112.15625 37.578125 C 112.183594 37.484375 112.210938 37.394531 112.238281 37.304688 Z M 114.257812 34.742188 C 114.347656 34.984375 114.484375 35.203125 114.605469 35.433594 C 114.761719 35.503906 114.914062 35.578125 115.070312 35.648438 C 114.996094 35.496094 114.921875 35.339844 114.847656 35.1875 C 114.734375 34.953125 114.621094 34.722656 114.503906 34.488281 C 114.417969 34.574219 114.242188 34.695312 114.257812 34.742188 Z M 115.128906 39.722656 C 115.164062 39.464844 114.894531 39.167969 114.503906 38.378906 C 114.203125 38.929688 113.9375 39.195312 113.980469 39.386719 C 114.0625 39.730469 114.332031 40.03125 114.519531 40.351562 C 114.738281 40.144531 115.097656 39.953125 115.128906 39.722656 Z M 116.960938 32.25 C 116.917969 32.203125 116.875 32.15625 116.828125 32.105469 C 116.78125 32.152344 116.734375 32.195312 116.683594 32.238281 C 116.753906 32.289062 116.820312 32.335938 116.886719 32.386719 C 116.914062 32.34375 116.9375 32.296875 116.960938 32.25 Z M 119.578125 29.804688 C 119.550781 29.851562 119.757812 30.164062 119.855469 30.160156 C 120.019531 30.15625 120.183594 30.003906 120.429688 29.871094 C 120.257812 29.664062 120.097656 29.402344 120.042969 29.421875 C 119.863281 29.492188 119.6875 29.636719 119.578125 29.804688 Z M 118.789062 35.941406 C 118.75 35.917969 118.691406 35.863281 118.660156 35.875 C 118.605469 35.894531 118.5625 35.957031 118.511719 36 C 118.605469 36.027344 118.695312 36.054688 118.789062 36.082031 C 118.789062 36.035156 118.789062 35.988281 118.789062 35.941406 Z M 120.726562 36.015625 C 120.457031 35.296875 120.164062 34.589844 119.847656 33.828125 C 119.464844 34.074219 119.238281 34.148438 119.230469 34.242188 C 119.199219 34.574219 119.121094 35 119.285156 35.234375 C 119.558594 35.628906 119.992188 35.917969 120.382812 36.21875 C 120.421875 36.253906 120.738281 36.039062 120.726562 36.015625 Z M 122.726562 37.414062 C 122.375 37.113281 122.132812 36.746094 121.925781 36.765625 C 121.664062 36.789062 121.378906 37.09375 121.214844 37.347656 C 121.164062 37.425781 121.515625 37.929688 121.617188 37.90625 C 121.964844 37.84375 122.277344 37.628906 122.726562 37.414062 Z M 122.746094 32.5625 C 122.546875 32.355469 122.421875 32.117188 122.277344 32.101562 C 122.113281 32.085938 121.925781 32.265625 121.746094 32.359375 C 121.898438 32.558594 122.027344 32.78125 122.214844 32.929688 C 122.257812 32.964844 122.511719 32.730469 122.746094 32.5625 Z M 126.394531 32.394531 C 126.355469 32.527344 126.6875 32.914062 126.859375 32.921875 C 127.050781 32.929688 127.253906 32.628906 127.742188 32.222656 C 127.382812 32.015625 127.121094 31.742188 126.964844 31.796875 C 126.722656 31.875 126.464844 32.152344 126.394531 32.394531 Z M 124.632812 29.84375 C 124.707031 29.996094 124.78125 30.152344 124.851562 30.304688 C 125.164062 30.617188 125.476562 30.929688 125.789062 31.238281 C 125.941406 31.3125 126.097656 31.382812 126.25 31.457031 C 126.175781 31.300781 126.105469 31.148438 126.03125 30.992188 C 125.78125 30.617188 126.496094 29.28125 125.097656 30.058594 C 124.941406 29.988281 124.789062 29.914062 124.632812 29.84375 Z M 128.492188 37.996094 C 128.175781 37.546875 127.941406 36.992188 127.523438 36.679688 C 126.949219 36.246094 126.234375 35.992188 125.578125 35.664062 C 125.574219 35.273438 125.570312 34.882812 125.570312 34.492188 C 125.6875 34.265625 125.820312 34.039062 125.90625 33.800781 C 125.921875 33.753906 125.742188 33.640625 125.652344 33.554688 C 125.539062 33.792969 125.425781 34.027344 125.3125 34.261719 C 124.441406 33.65625 124.101562 34.230469 123.996094 34.949219 C 123.84375 36 124.699219 35.832031 125.324219 35.902344 C 125.816406 36.5 126.226562 37.207031 126.832031 37.65625 C 127.242188 37.960938 127.929688 37.894531 128.492188 37.996094 Z M 132.167969 29.101562 C 132.511719 28.359375 132.765625 28.019531 132.789062 27.667969 C 132.804688 27.46875 132.4375 27.242188 132.242188 27.027344 C 131.988281 27.261719 131.667969 27.460938 131.507812 27.75 C 131.441406 27.878906 131.707031 28.1875 132.167969 29.101562 Z M 129.136719 30.222656 C 129.421875 30.257812 129.707031 30.289062 129.992188 30.324219 C 130.148438 30.578125 130.269531 30.859375 130.464844 31.082031 C 130.636719 31.277344 130.890625 31.402344 131.105469 31.558594 C 131.265625 31.265625 131.535156 30.980469 131.566406 30.675781 C 131.691406 29.296875 130.757812 30.140625 130.25 30.085938 C 130.308594 29.683594 130.367188 29.285156 130.425781 28.886719 C 130.101562 29.0625 129.726562 29.183594 129.472656 29.429688 C 129.28125 29.613281 129.242188 29.953125 129.136719 30.222656 Z M 132.863281 37.101562 C 132.6875 36.890625 132.605469 36.792969 132.519531 36.695312 C 132.175781 37 131.824219 37.296875 131.503906 37.625 C 131.46875 37.65625 131.613281 37.867188 131.675781 37.996094 C 132.066406 37.699219 132.457031 37.40625 132.863281 37.101562 Z M 133.714844 33.191406 C 133.480469 33.078125 133.246094 32.960938 133.011719 32.847656 C 133.011719 32.621094 133.015625 32.394531 133.019531 32.167969 C 133.09375 32.011719 133.164062 31.859375 133.234375 31.703125 C 133.082031 31.777344 132.929688 31.851562 132.773438 31.925781 C 131.898438 31.980469 131.429688 32.445312 131.378906 33.320312 C 131.222656 33.476562 131.066406 33.632812 130.910156 33.789062 C 130.753906 33.945312 130.597656 34.097656 130.445312 34.253906 C 129.984375 34.523438 129.492188 34.75 129.082031 35.085938 C 128.925781 35.214844 128.890625 35.796875 128.929688 35.8125 C 129.46875 36.003906 130.023438 36.210938 130.585938 36.234375 C 130.765625 36.238281 130.964844 35.710938 131.15625 35.429688 C 131.230469 35.273438 131.300781 35.121094 131.371094 34.964844 C 131.21875 35.039062 131.0625 35.113281 130.910156 35.1875 C 130.835938 34.957031 130.761719 34.726562 130.6875 34.5 C 130.84375 34.34375 131 34.1875 131.15625 34.03125 C 131.308594 33.875 131.464844 33.722656 131.621094 33.566406 C 132.007812 33.414062 132.390625 33.257812 132.777344 33.105469 C 133.007812 33.222656 133.230469 33.359375 133.472656 33.445312 C 133.519531 33.460938 133.632812 33.28125 133.714844 33.191406 Z M 136.546875 36.023438 C 136.371094 35.480469 136.195312 34.933594 136.007812 34.394531 C 135.988281 34.335938 135.886719 34.304688 135.824219 34.261719 C 135.589844 33.984375 135.359375 33.703125 135.128906 33.425781 C 135.113281 33.707031 135.101562 33.988281 135.085938 34.269531 C 134 34.371094 133.933594 35.171875 134.5 35.664062 C 134.949219 36.054688 135.847656 35.921875 136.546875 36.023438 Z M 136.574219 30.027344 C 136.007812 29.625 135.699219 29.230469 135.375 29.21875 C 135.019531 29.207031 134.652344 29.546875 134.289062 29.734375 C 134.554688 30.15625 134.816406 30.578125 135.082031 30.996094 C 135.492188 30.730469 135.90625 30.464844 136.574219 30.027344 Z M 140.007812 26.332031 C 140.164062 26.261719 140.316406 26.1875 140.472656 26.113281 C 140.542969 25.957031 140.617188 25.804688 140.6875 25.648438 C 140.535156 25.722656 140.378906 25.796875 140.226562 25.871094 C 140.152344 26.023438 140.082031 26.179688 140.007812 26.332031 Z M 138.003906 27.773438 C 137.96875 27.871094 138.183594 28.054688 138.414062 28.382812 C 138.648438 27.898438 138.828125 27.605469 138.914062 27.285156 C 138.933594 27.21875 138.625 27.058594 138.464844 26.941406 C 138.304688 27.214844 138.105469 27.476562 138.003906 27.773438 Z M 137.757812 32.925781 C 138.128906 33.210938 138.6875 33.246094 139.164062 33.390625 C 139.136719 32.980469 139.109375 32.570312 139.082031 32.160156 C 139.71875 31.8125 140.570312 31.605469 140.929688 31.070312 C 141.277344 30.546875 141.148438 29.6875 141.152344 28.976562 C 141.152344 28.902344 140.632812 28.773438 140.355469 28.773438 C 140.25 28.777344 140.042969 29.089844 140.058594 29.238281 C 140.125 29.796875 140.667969 30.773438 139.375 29.871094 C 139.347656 29.851562 138.96875 30.175781 138.933594 30.375 C 138.847656 30.878906 138.867188 31.398438 138.839844 31.914062 C 138.492188 31.800781 138.152344 31.65625 137.796875 31.597656 C 137.613281 31.570312 137.40625 31.707031 137.207031 31.769531 C 137.382812 32.167969 137.457031 32.695312 137.757812 32.925781 Z M 141.269531 35.113281 C 140.949219 34.601562 140.28125 34.304688 139.765625 33.910156 C 139.6875 34.371094 139.613281 34.832031 139.53125 35.292969 C 139.460938 35.71875 139.382812 36.144531 139.304688 36.570312 C 139.085938 36.589844 138.8125 36.53125 138.65625 36.640625 C 138.410156 36.816406 138.242188 37.105469 138.042969 37.34375 C 138.289062 37.460938 138.632812 37.738281 138.761719 37.660156 C 139.074219 37.46875 139.292969 37.113281 139.546875 36.820312 C 139.863281 36.660156 140.160156 36.4375 140.496094 36.34375 C 141.164062 36.15625 141.679688 35.773438 141.269531 35.113281 Z M 145.484375 25.246094 C 145.609375 25.488281 145.863281 25.675781 146.097656 25.839844 C 146.125 25.859375 146.34375 25.617188 146.574219 25.398438 C 146.230469 25.117188 145.964844 24.898438 145.695312 24.679688 C 145.617188 24.871094 145.421875 25.125 145.484375 25.246094 Z M 144.21875 31.253906 C 144.226562 31.371094 144.59375 31.609375 144.644531 31.574219 C 145.257812 31.15625 145.878906 30.734375 146.414062 30.222656 C 146.53125 30.113281 146.308594 29.648438 146.253906 29.394531 C 145.199219 29.460938 144.183594 30.46875 144.21875 31.253906 Z M 142.507812 28.207031 C 143.011719 27.902344 143.554688 27.640625 143.984375 27.253906 C 144.089844 27.160156 143.824219 26.652344 143.730469 26.332031 C 143.578125 26.261719 143.421875 26.1875 143.269531 26.117188 C 143.339844 26.269531 143.414062 26.425781 143.488281 26.578125 C 143.082031 26.890625 142.644531 27.175781 142.289062 27.539062 C 142.214844 27.613281 142.429688 27.976562 142.507812 28.207031 Z M 143.386719 31.671875 C 143.199219 31.976562 142.96875 32.265625 142.859375 32.59375 C 142.828125 32.679688 143.171875 32.980469 143.375 33.019531 C 143.566406 33.058594 143.796875 32.882812 144.101562 32.765625 C 143.777344 32.269531 143.582031 31.96875 143.386719 31.671875 Z M 142.519531 31.246094 C 142.472656 31.246094 142.429688 31.246094 142.378906 31.246094 C 142.355469 31.285156 142.300781 31.34375 142.3125 31.375 C 142.332031 31.429688 142.394531 31.472656 142.4375 31.519531 C 142.464844 31.429688 142.492188 31.339844 142.519531 31.246094 Z M 145.101562 36.371094 C 144.917969 36.109375 144.808594 35.875 144.753906 35.886719 C 144.089844 36.039062 143.347656 36.101562 142.820312 36.46875 C 142.585938 36.632812 142.796875 37.433594 142.804688 37.945312 C 143.175781 37.839844 143.613281 37.832031 143.894531 37.613281 C 144.359375 37.261719 144.722656 36.773438 145.101562 36.371094 Z M 146.769531 35.371094 C 146.574219 35.023438 146.417969 34.554688 146.101562 34.253906 C 145.902344 34.0625 145.265625 33.960938 145.167969 34.089844 C 144.796875 34.558594 144.785156 35.117188 145.457031 35.382812 C 145.84375 35.535156 146.277344 35.554688 146.695312 35.625 C 146.703125 35.625 146.730469 35.507812 146.769531 35.371094 Z M 151.488281 29.914062 C 151.328125 29.472656 150.960938 29.105469 150.34375 28.210938 C 150.203125 29.320312 150.085938 29.863281 150.089844 30.40625 C 150.089844 30.578125 150.46875 30.929688 150.578125 30.894531 C 151.039062 30.746094 151.773438 30.695312 151.488281 29.914062 Z M 149.226562 25.53125 C 149.199219 25.589844 149.667969 26.023438 149.785156 25.976562 C 150.089844 25.855469 150.320312 25.5625 150.699219 25.238281 C 150.316406 24.980469 149.949219 24.636719 149.867188 24.695312 C 149.585938 24.894531 149.375 25.214844 149.226562 25.53125 Z M 148.347656 27.746094 C 148.535156 27.644531 148.722656 27.566406 148.714844 27.542969 C 148.664062 27.363281 148.574219 27.191406 148.496094 27.019531 C 148.445312 27.066406 148.359375 27.109375 148.355469 27.164062 C 148.335938 27.335938 148.347656 27.511719 148.347656 27.746094 Z M 147.929688 30.945312 C 147.972656 30.972656 148.019531 30.996094 148.066406 31.023438 C 148.113281 30.976562 148.160156 30.933594 148.210938 30.890625 C 148.164062 30.839844 148.121094 30.792969 148.078125 30.746094 C 148.027344 30.8125 147.976562 30.878906 147.929688 30.945312 Z M 149.472656 31.984375 C 149.460938 31.761719 148.890625 31.5625 149.03125 31.65625 C 147.28125 31.195312 147.535156 32.238281 147.320312 32.824219 C 147.289062 32.914062 147.621094 33.136719 147.785156 33.296875 C 148.234375 32.695312 149.519531 33.117188 149.472656 31.984375 Z M 150.101562 37.207031 C 149.28125 36.765625 148.800781 36.488281 148.300781 36.257812 C 148.257812 36.238281 147.960938 36.613281 147.980469 36.636719 C 148.296875 37.007812 148.609375 37.398438 149 37.671875 C 149.113281 37.75 149.46875 37.484375 150.101562 37.207031 Z M 151.394531 33.609375 C 150.5625 33.007812 150 33.574219 149.542969 34.253906 C 148.992188 34.648438 148.996094 35.042969 149.546875 35.433594 C 149.699219 36.605469 150.242188 36.464844 150.914062 35.832031 C 151.621094 35.160156 151.921875 33.992188 151.394531 33.609375 Z M 151.863281 35.941406 C 151.824219 35.917969 151.769531 35.863281 151.738281 35.875 C 151.679688 35.894531 151.636719 35.957031 151.589844 36 C 151.683594 36.027344 151.773438 36.054688 151.863281 36.082031 C 151.863281 36.035156 151.863281 35.988281 151.863281 35.941406 Z M 163.804688 21.640625 C 164.007812 21.714844 164.230469 21.882812 164.410156 21.84375 C 164.675781 21.789062 164.914062 21.589844 165.164062 21.453125 C 165.238281 21.296875 165.308594 21.144531 165.382812 20.988281 C 165.226562 21.0625 165.074219 21.136719 164.917969 21.210938 C 164.765625 21.21875 164.597656 21.1875 164.46875 21.246094 C 164.234375 21.347656 164.023438 21.503906 163.804688 21.640625 Z M 161.476562 23.941406 C 161.550781 24.121094 161.703125 24.292969 161.871094 24.398438 C 161.917969 24.425781 162.222656 24.210938 162.21875 24.113281 C 162.214844 23.949219 162.058594 23.789062 161.917969 23.542969 C 161.710938 23.722656 161.453125 23.890625 161.476562 23.941406 Z M 159.546875 24.785156 C 159.613281 24.835938 159.679688 24.882812 159.746094 24.933594 C 159.773438 24.886719 159.796875 24.84375 159.824219 24.796875 C 159.777344 24.75 159.734375 24.699219 159.691406 24.652344 C 159.640625 24.695312 159.59375 24.742188 159.546875 24.785156 Z M 157.761719 27.265625 C 158.273438 27.101562 158.804688 26.976562 159.292969 26.757812 C 159.894531 26.488281 160.457031 26.136719 161.289062 25.683594 C 160.765625 25.378906 160.585938 25.1875 160.464844 25.21875 C 159.933594 25.359375 159.324219 25.453125 158.914062 25.777344 C 158.4375 26.15625 158.136719 26.761719 157.761719 27.265625 Z M 160.546875 27.519531 C 160.527344 27.558594 160.46875 27.617188 160.480469 27.648438 C 160.503906 27.703125 160.5625 27.746094 160.609375 27.792969 C 160.636719 27.703125 160.664062 27.609375 160.691406 27.519531 C 160.644531 27.519531 160.597656 27.519531 160.546875 27.519531 Z M 159.59375 30.617188 C 159.324219 30.867188 159.117188 31.210938 158.988281 31.558594 C 158.957031 31.636719 159.355469 31.875 159.554688 32.035156 C 159.804688 31.699219 160.054688 31.363281 160.433594 30.847656 C 160.039062 30.730469 159.683594 30.53125 159.59375 30.617188 Z M 156.3125 24.46875 C 156.46875 24.394531 156.621094 24.324219 156.777344 24.25 C 157.027344 24.125 157.277344 24 157.527344 23.875 C 157.320312 23.667969 157.113281 23.460938 156.90625 23.253906 C 156.78125 23.503906 156.65625 23.753906 156.53125 24.007812 C 156.457031 24.160156 156.386719 24.316406 156.3125 24.46875 Z M 153.53125 26.15625 C 153.761719 26.277344 154.042969 26.550781 154.214844 26.492188 C 154.722656 26.324219 155.183594 26.023438 155.988281 25.605469 C 155.21875 25.304688 154.722656 24.929688 154.457031 25.054688 C 154.0625 25.238281 153.832031 25.769531 153.53125 26.15625 Z M 152.121094 28.152344 C 152.167969 28.175781 152.210938 28.203125 152.257812 28.226562 C 152.304688 28.183594 152.355469 28.136719 152.402344 28.09375 C 152.359375 28.046875 152.3125 27.996094 152.269531 27.949219 C 152.21875 28.015625 152.171875 28.082031 152.121094 28.152344 Z M 154.449219 31.699219 C 154.449219 31.464844 154.449219 31.230469 154.449219 30.996094 C 154.257812 30.71875 154.074219 30.441406 153.863281 30.183594 C 153.847656 30.164062 153.636719 30.304688 153.515625 30.367188 C 153.671875 30.617188 153.824219 30.867188 153.988281 31.109375 C 154.027344 31.164062 154.121094 31.1875 154.1875 31.222656 C 154.207031 31.304688 154.210938 31.382812 154.195312 31.464844 C 153.847656 31.351562 153.4375 31.0625 153.171875 31.160156 C 152.765625 31.308594 152.40625 31.6875 152.132812 32.050781 C 152.007812 32.222656 152.09375 32.808594 152.144531 32.816406 C 152.550781 32.882812 153.054688 32.996094 153.371094 32.816406 C 153.804688 32.574219 154.097656 32.085938 154.449219 31.699219 Z M 155.148438 30.648438 C 155.390625 30.5625 155.613281 30.425781 155.84375 30.308594 C 156.390625 29.917969 157.027344 29.601562 157.449219 29.105469 C 157.65625 28.863281 157.53125 28.261719 157.417969 27.867188 C 157.371094 27.707031 156.925781 27.535156 156.707031 27.582031 C 156.285156 27.671875 155.605469 29.320312 155.613281 30.050781 C 155.375 30.164062 155.136719 30.28125 154.902344 30.394531 C 154.984375 30.484375 155.101562 30.664062 155.148438 30.648438 Z M 157 35.898438 C 157.15625 35.96875 157.308594 36.042969 157.464844 36.113281 C 157.390625 35.960938 157.316406 35.804688 157.242188 35.652344 C 157.085938 35.496094 156.933594 35.339844 156.777344 35.183594 C 156.683594 34.910156 156.667969 34.558594 156.480469 34.386719 C 156.242188 34.160156 155.878906 34.046875 155.550781 33.964844 C 155.484375 33.949219 155.199219 34.335938 155.242188 34.433594 C 155.394531 34.777344 155.613281 35.109375 155.882812 35.367188 C 156.007812 35.484375 156.308594 35.414062 156.53125 35.429688 C 156.6875 35.585938 156.84375 35.742188 157 35.898438 Z M 157.492188 38.308594 C 157.449219 38.257812 157.40625 38.210938 157.359375 38.164062 C 157.3125 38.207031 157.265625 38.25 157.214844 38.296875 C 157.28125 38.34375 157.351562 38.394531 157.417969 38.441406 C 157.441406 38.398438 157.46875 38.351562 157.492188 38.308594 Z M 158.066406 32.832031 C 158.121094 32.785156 158.140625 32.699219 158.175781 32.632812 C 158.25 32.480469 158.320312 32.324219 158.394531 32.171875 C 158.238281 32.242188 158.085938 32.316406 157.929688 32.390625 C 157.5 32.734375 157.066406 33.074219 156.652344 33.4375 C 156.628906 33.460938 156.773438 33.671875 156.839844 33.796875 C 157.25 33.476562 157.660156 33.160156 158.066406 32.832031 Z M 159.082031 37.152344 C 158.855469 36.972656 158.617188 36.722656 158.578125 36.753906 C 158.382812 36.894531 158.242188 37.109375 158.082031 37.296875 C 158.253906 37.398438 158.425781 37.589844 158.589844 37.582031 C 158.738281 37.570312 158.871094 37.347656 159.082031 37.152344 Z M 159.882812 36.699219 C 160.363281 36.261719 160.84375 35.824219 161.324219 35.382812 C 160.765625 34.867188 160.207031 34.351562 159.398438 33.605469 C 159.054688 34.128906 158.636719 34.515625 158.714844 34.691406 C 159.019531 35.398438 159.480469 36.039062 159.882812 36.699219 Z M 161.855469 38.558594 C 161.394531 38.773438 160.808594 38.882812 160.535156 39.234375 C 160.386719 39.425781 160.714844 39.984375 160.855469 40.402344 C 161.15625 40.226562 161.578125 40.109375 161.699219 39.851562 C 161.875 39.476562 161.8125 38.996094 161.855469 38.558594 Z M 162.238281 33.957031 C 162.1875 33.84375 162.136719 33.726562 162.082031 33.609375 C 161.984375 33.730469 161.839844 33.835938 161.804688 33.972656 C 161.785156 34.050781 161.941406 34.175781 162.019531 34.28125 C 162.09375 34.171875 162.164062 34.066406 162.238281 33.957031 Z M 162.652344 32.753906 C 162.605469 32.703125 162.5625 32.65625 162.519531 32.609375 C 162.46875 32.675781 162.421875 32.742188 162.371094 32.808594 C 162.417969 32.835938 162.460938 32.859375 162.507812 32.886719 C 162.554688 32.839844 162.601562 32.796875 162.652344 32.753906 Z M 162.882812 26.929688 C 162.617188 27.027344 162.203125 27.054688 162.117188 27.238281 C 161.992188 27.503906 162.097656 27.882812 162.101562 28.214844 C 161.46875 28.375 160.488281 27.792969 160.351562 28.988281 C 160.328125 29.214844 160.539062 29.648438 160.71875 29.691406 C 161.738281 29.945312 162.242188 29.414062 162.371094 28.4375 C 162.535156 28.191406 162.746094 27.964844 162.84375 27.695312 C 162.925781 27.464844 162.875 27.1875 162.882812 26.929688 Z M 163.207031 26 C 163.53125 26.414062 163.898438 26.792969 164.4375 27.382812 C 164.765625 26.828125 164.894531 26.605469 165.027344 26.382812 C 164.539062 26.097656 164.054688 25.804688 163.546875 25.558594 C 163.511719 25.539062 163.175781 25.957031 163.207031 26 Z M 164.871094 36.554688 C 164.941406 36.351562 164.554688 35.992188 164.265625 35.542969 C 163.96875 35.863281 163.632812 36.0625 163.644531 36.242188 C 163.660156 36.554688 163.890625 36.855469 164.03125 37.160156 C 164.328125 36.964844 164.78125 36.820312 164.871094 36.554688 Z M 165.78125 29.816406 C 165.589844 29.925781 165.328125 29.992188 165.21875 30.15625 C 165.058594 30.398438 165.007812 30.714844 164.910156 31 C 164.476562 30.722656 163.992188 30.214844 163.640625 31.011719 C 163.539062 31.238281 163.871094 31.914062 163.925781 31.902344 C 164.394531 31.824219 165.257812 32.34375 165.164062 31.234375 C 165.398438 31.035156 165.71875 30.878906 165.839844 30.625 C 165.941406 30.414062 165.808594 30.089844 165.78125 29.816406 Z M 179.773438 26.101562 C 179.570312 26.277344 179.363281 26.453125 179.160156 26.628906 C 179.304688 26.726562 179.464844 26.917969 179.589844 26.894531 C 179.742188 26.867188 179.867188 26.667969 179.992188 26.554688 C 179.894531 26.351562 179.835938 26.226562 179.773438 26.101562 Z M 179.117188 22.058594 C 179.136719 22.113281 179.199219 22.15625 179.242188 22.203125 C 179.269531 22.113281 179.296875 22.019531 179.324219 21.929688 C 179.277344 21.929688 179.230469 21.929688 179.183594 21.929688 C 179.160156 21.96875 179.105469 22.023438 179.117188 22.058594 Z M 176.8125 14.640625 C 176.859375 14.664062 176.902344 14.691406 176.949219 14.714844 C 176.996094 14.671875 177.046875 14.628906 177.09375 14.582031 C 177.050781 14.535156 177.003906 14.488281 176.960938 14.4375 C 176.910156 14.507812 176.863281 14.574219 176.8125 14.640625 Z M 176.246094 19.28125 C 176.386719 19.488281 176.503906 19.726562 176.6875 19.882812 C 176.734375 19.921875 177 19.707031 177.238281 19.566406 C 177.058594 19.339844 176.957031 19.082031 176.808594 19.054688 C 176.640625 19.023438 176.4375 19.195312 176.246094 19.28125 Z M 176.460938 24.1875 C 176.414062 24.230469 176.363281 24.277344 176.316406 24.320312 C 176.382812 24.367188 176.449219 24.417969 176.519531 24.46875 C 176.542969 24.421875 176.570312 24.375 176.59375 24.332031 C 176.550781 24.285156 176.503906 24.234375 176.460938 24.1875 Z M 173.917969 21.738281 C 173.953125 21.871094 174.097656 21.980469 174.195312 22.097656 C 174.246094 21.984375 174.300781 21.871094 174.351562 21.753906 C 174.277344 21.644531 174.207031 21.539062 174.132812 21.429688 C 174.054688 21.535156 173.898438 21.65625 173.917969 21.738281 Z M 174.132812 26.515625 C 174.082031 26.5625 174.035156 26.605469 173.988281 26.648438 C 174.054688 26.699219 174.121094 26.746094 174.1875 26.796875 C 174.214844 26.75 174.238281 26.707031 174.265625 26.660156 C 174.21875 26.613281 174.175781 26.566406 174.132812 26.515625 Z M 171.292969 29.34375 C 171.261719 29.390625 171.480469 29.695312 171.578125 29.691406 C 171.742188 29.683594 171.902344 29.527344 172.144531 29.390625 C 171.96875 29.183594 171.800781 28.925781 171.746094 28.949219 C 171.566406 29.023438 171.398438 29.175781 171.292969 29.34375 Z M 169.359375 21.628906 C 169.40625 21.652344 169.449219 21.679688 169.496094 21.703125 C 169.542969 21.660156 169.589844 21.617188 169.640625 21.570312 C 169.59375 21.523438 169.550781 21.476562 169.507812 21.425781 C 169.457031 21.496094 169.410156 21.5625 169.359375 21.628906 Z M 167.027344 29.128906 C 167.066406 28.871094 167.109375 28.613281 167.152344 28.351562 C 166.945312 28.382812 166.738281 28.410156 166.535156 28.441406 C 166.617188 28.75 166.699219 29.0625 166.785156 29.375 C 166.9375 29.449219 167.09375 29.519531 167.246094 29.59375 C 167.171875 29.4375 167.101562 29.285156 167.027344 29.128906 Z M 166.097656 24.9375 C 166.25 24.863281 166.40625 24.789062 166.558594 24.714844 C 166.644531 24.265625 166.730469 23.820312 166.816406 23.371094 C 166.683594 23.375 166.441406 23.363281 166.4375 23.386719 C 166.375 23.746094 166.347656 24.109375 166.3125 24.472656 C 166.242188 24.628906 166.167969 24.78125 166.097656 24.9375 Z M 167.449219 38.90625 C 167.210938 38.777344 167.027344 38.597656 166.871094 38.621094 C 166.722656 38.644531 166.601562 38.875 166.46875 39.015625 C 166.664062 39.167969 166.863281 39.320312 167.058594 39.472656 C 167.171875 39.304688 167.285156 39.140625 167.449219 38.90625 Z M 168.402344 33.859375 C 167.464844 33.589844 167.078125 33.367188 166.714844 33.410156 C 166.464844 33.4375 166.253906 33.820312 166.023438 34.046875 C 166.34375 34.179688 166.660156 34.410156 166.984375 34.421875 C 167.277344 34.433594 167.578125 34.203125 168.402344 33.859375 Z M 168.425781 27.265625 C 168.582031 27.191406 168.734375 27.117188 168.890625 27.042969 C 169.113281 27.03125 169.398438 27.101562 169.550781 26.988281 C 169.785156 26.816406 169.933594 26.523438 170.117188 26.277344 C 169.863281 26.292969 169.589844 26.25 169.363281 26.335938 C 169.101562 26.433594 168.882812 26.640625 168.644531 26.800781 C 168.570312 26.957031 168.5 27.109375 168.425781 27.265625 Z M 168.726562 31.339844 C 168.753906 31.542969 169.0625 31.894531 169.144531 31.867188 C 169.476562 31.761719 169.769531 31.53125 170.078125 31.347656 C 169.78125 31.148438 169.484375 30.953125 168.992188 30.625 C 168.882812 30.890625 168.699219 31.128906 168.726562 31.339844 Z M 169.796875 37.328125 C 170.164062 36.777344 170.421875 36.152344 170.773438 35.4375 C 170.824219 35.519531 170.738281 35.308594 170.695312 35.316406 C 170.125 35.414062 169.441406 35.398438 169.046875 35.722656 C 168.78125 35.9375 168.871094 36.664062 168.933594 37.144531 C 168.945312 37.25 169.730469 37.425781 169.796875 37.328125 Z M 170.992188 38.183594 C 170.757812 38.183594 170.582031 38.171875 170.410156 38.1875 C 170.359375 38.195312 170.3125 38.28125 170.265625 38.328125 C 170.4375 38.40625 170.605469 38.496094 170.785156 38.550781 C 170.808594 38.554688 170.890625 38.371094 170.992188 38.183594 Z M 171.003906 30.386719 C 170.960938 30.339844 170.914062 30.292969 170.871094 30.242188 C 170.824219 30.289062 170.773438 30.332031 170.726562 30.375 C 170.792969 30.425781 170.859375 30.472656 170.929688 30.523438 C 170.953125 30.476562 170.976562 30.433594 171.003906 30.386719 Z M 171.464844 34.84375 C 171.703125 34.757812 171.925781 34.617188 172.152344 34.496094 C 172.226562 34.34375 172.296875 34.1875 172.371094 34.035156 C 172.214844 34.105469 172.0625 34.179688 171.90625 34.253906 C 171.675781 34.367188 171.441406 34.484375 171.210938 34.597656 C 171.296875 34.6875 171.414062 34.863281 171.464844 34.84375 Z M 173.304688 40.308594 C 173.230469 40.152344 173.15625 40 173.082031 39.84375 C 173.105469 39.429688 173.125 39.015625 173.148438 38.601562 C 172.675781 38.730469 172.085938 38.738281 171.769531 39.03125 C 171.542969 39.25 171.671875 39.847656 171.640625 40.273438 C 172.039062 40.214844 172.441406 40.152344 172.839844 40.089844 C 172.996094 40.164062 173.148438 40.234375 173.304688 40.308594 Z M 173.332031 37.84375 C 173.289062 37.792969 173.246094 37.746094 173.199219 37.699219 C 173.152344 37.742188 173.105469 37.785156 173.054688 37.828125 C 173.121094 37.878906 173.191406 37.929688 173.257812 37.976562 C 173.28125 37.933594 173.308594 37.886719 173.332031 37.84375 Z M 174.351562 37.128906 C 174.277344 37.019531 174.207031 36.910156 174.132812 36.804688 C 174.054688 36.90625 173.898438 37.03125 173.917969 37.109375 C 173.953125 37.246094 174.097656 37.355469 174.195312 37.472656 C 174.246094 37.359375 174.300781 37.242188 174.351562 37.128906 Z M 175.105469 31.695312 C 174.800781 31.328125 174.464844 30.988281 174.042969 30.539062 C 173.796875 30.9375 173.648438 31.175781 173.503906 31.417969 C 173.925781 31.640625 174.339844 31.882812 174.777344 32.074219 C 174.828125 32.09375 175.125 31.722656 175.105469 31.695312 Z M 175.597656 30.78125 C 175.550781 30.78125 175.503906 30.78125 175.457031 30.78125 C 175.433594 30.820312 175.378906 30.875 175.390625 30.910156 C 175.410156 30.964844 175.472656 31.007812 175.515625 31.054688 C 175.542969 30.964844 175.570312 30.871094 175.597656 30.78125 Z M 176.558594 30.164062 C 176.710938 30.152344 176.859375 29.992188 177.007812 29.902344 C 176.808594 29.71875 176.609375 29.535156 176.410156 29.351562 C 176.347656 29.476562 176.285156 29.597656 176.050781 30.050781 C 176.136719 30.074219 176.351562 30.175781 176.558594 30.164062 Z M 178.027344 39.714844 C 177.820312 39.507812 177.609375 39.300781 177.402344 39.089844 C 177.277344 39.34375 177.152344 39.59375 177.027344 39.847656 C 176.957031 40 176.882812 40.15625 176.8125 40.308594 C 176.964844 40.234375 177.121094 40.164062 177.273438 40.089844 C 177.527344 39.964844 177.777344 39.839844 178.027344 39.714844 Z M 178.191406 34.183594 C 177.8125 34.039062 177.488281 33.808594 177.378906 33.886719 C 177.085938 34.09375 176.835938 34.410156 176.679688 34.738281 C 176.640625 34.820312 176.996094 35.097656 177.171875 35.285156 C 177.449219 34.988281 177.722656 34.691406 178.191406 34.183594 Z M 179.917969 37.0625 C 179.890625 36.90625 179.683594 36.785156 179.574219 36.667969 C 179.371094 36.765625 179.25 36.828125 179.125 36.886719 C 179.300781 37.089844 179.480469 37.292969 179.65625 37.496094 C 179.75 37.347656 179.941406 37.1875 179.917969 37.0625 Z M 180.035156 32.351562 C 179.730469 32.078125 179.453125 31.691406 179.324219 31.734375 C 179.023438 31.839844 178.753906 32.125 178.558594 32.398438 C 178.519531 32.457031 178.914062 32.976562 179.007812 32.949219 C 179.339844 32.855469 179.625 32.609375 180.035156 32.351562 Z M 181.835938 34.902344 C 181.816406 34.984375 181.972656 35.109375 182.050781 35.210938 C 182.125 35.105469 182.199219 34.996094 182.269531 34.890625 C 182.21875 34.773438 182.167969 34.660156 182.117188 34.542969 C 182.015625 34.660156 181.871094 34.769531 181.835938 34.902344 Z M 181.472656 19.765625 C 181.515625 19.789062 181.5625 19.816406 181.609375 19.839844 C 181.65625 19.796875 181.703125 19.753906 181.753906 19.707031 C 181.707031 19.660156 181.664062 19.613281 181.621094 19.5625 C 181.570312 19.628906 181.519531 19.699219 181.472656 19.765625 Z M 181.472656 24.425781 C 181.515625 24.449219 181.5625 24.472656 181.609375 24.5 C 181.65625 24.457031 181.703125 24.410156 181.753906 24.367188 C 181.707031 24.320312 181.664062 24.269531 181.621094 24.222656 C 181.570312 24.289062 181.519531 24.355469 181.472656 24.425781 Z M 181.429688 29.9375 C 181.4375 29.992188 181.523438 30.035156 181.570312 30.085938 C 181.648438 29.914062 181.738281 29.742188 181.792969 29.5625 C 181.800781 29.539062 181.613281 29.457031 181.425781 29.355469 C 181.425781 29.589844 181.414062 29.765625 181.429688 29.9375 Z M 182.632812 39.746094 C 182.542969 39.65625 182.425781 39.480469 182.378906 39.5 C 182.136719 39.585938 181.914062 39.726562 181.6875 39.847656 C 181.617188 40 181.542969 40.15625 181.472656 40.308594 C 181.625 40.234375 181.78125 40.164062 181.933594 40.089844 C 182.167969 39.972656 182.398438 39.859375 182.632812 39.746094 Z M 182.648438 38.773438 C 182.605469 38.726562 182.5625 38.675781 182.515625 38.628906 C 182.46875 38.671875 182.421875 38.71875 182.371094 38.761719 C 182.441406 38.8125 182.507812 38.859375 182.574219 38.910156 C 182.601562 38.863281 182.625 38.820312 182.648438 38.773438 Z M 184.082031 22.039062 C 184.039062 21.988281 183.992188 21.941406 183.949219 21.894531 C 183.898438 21.960938 183.851562 22.027344 183.800781 22.09375 C 183.847656 22.121094 183.890625 22.144531 183.9375 22.171875 C 183.984375 22.125 184.03125 22.082031 184.082031 22.039062 Z M 184.449219 27.054688 C 184.402344 27.054688 184.355469 27.054688 184.308594 27.054688 C 184.285156 27.09375 184.230469 27.148438 184.242188 27.179688 C 184.261719 27.238281 184.324219 27.28125 184.367188 27.328125 C 184.394531 27.238281 184.421875 27.144531 184.449219 27.054688 Z M 191.695312 24.851562 C 191.714844 24.910156 191.777344 24.949219 191.820312 25 C 191.847656 24.90625 191.875 24.816406 191.902344 24.726562 C 191.855469 24.726562 191.808594 24.726562 191.761719 24.726562 C 191.738281 24.765625 191.683594 24.820312 191.695312 24.851562 Z M 189.367188 22.523438 C 189.386719 22.578125 189.449219 22.621094 189.492188 22.667969 C 189.519531 22.578125 189.546875 22.488281 189.574219 22.394531 C 189.527344 22.394531 189.480469 22.394531 189.429688 22.394531 C 189.410156 22.433594 189.355469 22.492188 189.367188 22.523438 Z M 189.292969 31.964844 C 189.28125 32.089844 189.382812 32.226562 189.433594 32.359375 C 189.53125 32.285156 189.628906 32.207031 189.722656 32.132812 C 189.671875 32 189.617188 31.867188 189.5625 31.734375 C 189.464844 31.8125 189.300781 31.882812 189.292969 31.964844 Z M 188.898438 16.933594 C 188.921875 16.988281 188.980469 17.03125 189.027344 17.078125 C 189.054688 16.988281 189.082031 16.894531 189.109375 16.804688 C 189.0625 16.804688 189.015625 16.804688 188.964844 16.804688 C 188.945312 16.84375 188.886719 16.902344 188.898438 16.933594 Z M 187.0625 34.257812 C 186.910156 34.175781 186.761719 34.097656 186.609375 34.015625 C 186.671875 34.171875 186.730469 34.324219 186.792969 34.480469 C 186.816406 34.558594 186.820312 34.640625 186.8125 34.722656 C 186.738281 34.875 186.667969 35.03125 186.597656 35.183594 C 186.75 35.113281 186.90625 35.039062 187.058594 34.964844 C 187.058594 34.730469 187.0625 34.492188 187.0625 34.257812 Z M 187.304688 29.476562 C 187.199219 29.40625 187.09375 29.332031 186.984375 29.257812 C 186.867188 29.308594 186.753906 29.363281 186.636719 29.414062 C 186.753906 29.511719 186.863281 29.660156 187 29.691406 C 187.078125 29.710938 187.203125 29.554688 187.304688 29.476562 Z M 187.386719 24.464844 C 187.179688 24.3125 187.03125 24.125 186.929688 24.148438 C 186.761719 24.183594 186.554688 24.332031 186.5 24.484375 C 186.464844 24.585938 186.664062 24.769531 186.757812 24.917969 C 186.925781 24.796875 187.089844 24.675781 187.386719 24.464844 Z M 188.886719 27.609375 C 188.890625 27.660156 188.976562 27.707031 189.023438 27.753906 C 189.101562 27.582031 189.195312 27.414062 189.246094 27.234375 C 189.253906 27.210938 189.066406 27.128906 188.878906 27.023438 C 188.878906 27.261719 188.867188 27.4375 188.886719 27.609375 Z M 190.074219 36.828125 C 189.917969 36.902344 189.765625 36.976562 189.609375 37.050781 C 189.378906 37.164062 189.144531 37.277344 188.914062 37.394531 C 189 37.480469 189.117188 37.65625 189.167969 37.640625 C 189.40625 37.550781 189.628906 37.414062 189.855469 37.292969 C 189.929688 37.136719 190 36.984375 190.074219 36.828125 Z M 191.1875 14.570312 C 191.28125 14.597656 191.371094 14.625 191.464844 14.652344 C 191.464844 14.605469 191.464844 14.558594 191.464844 14.507812 C 191.425781 14.488281 191.367188 14.433594 191.335938 14.445312 C 191.28125 14.464844 191.238281 14.527344 191.1875 14.570312 Z M 192 34.617188 C 191.957031 34.566406 191.914062 34.519531 191.867188 34.472656 C 191.820312 34.539062 191.769531 34.605469 191.722656 34.671875 C 191.765625 34.699219 191.8125 34.722656 191.855469 34.75 C 191.90625 34.703125 191.953125 34.660156 192 34.617188 Z M 192.328125 29.558594 C 192.214844 29.425781 192.101562 29.296875 191.960938 29.132812 C 191.71875 29.242188 191.527344 29.324219 191.332031 29.410156 C 191.464844 29.527344 191.589844 29.730469 191.726562 29.738281 C 191.921875 29.753906 192.128906 29.625 192.328125 29.558594 Z M 193.300781 35.90625 C 193.253906 35.90625 193.207031 35.90625 193.160156 35.90625 C 193.136719 35.945312 193.082031 36 193.09375 36.03125 C 193.113281 36.089844 193.175781 36.132812 193.21875 36.179688 C 193.246094 36.089844 193.273438 35.996094 193.300781 35.90625 Z M 193.765625 12.613281 C 193.71875 12.613281 193.675781 12.613281 193.625 12.613281 C 193.601562 12.652344 193.546875 12.707031 193.558594 12.738281 C 193.578125 12.796875 193.640625 12.839844 193.683594 12.886719 C 193.710938 12.796875 193.738281 12.703125 193.765625 12.613281 Z M 194.332031 32.285156 C 194.285156 32.238281 194.242188 32.191406 194.199219 32.140625 C 194.148438 32.210938 194.097656 32.277344 194.050781 32.34375 C 194.09375 32.367188 194.140625 32.394531 194.1875 32.417969 C 194.234375 32.375 194.28125 32.332031 194.332031 32.285156 Z M 194.726562 27.089844 C 194.683594 27.066406 194.628906 27.011719 194.597656 27.023438 C 194.539062 27.042969 194.5 27.105469 194.449219 27.148438 C 194.542969 27.175781 194.632812 27.203125 194.726562 27.230469 C 194.726562 27.183594 194.726562 27.136719 194.726562 27.089844 Z M 204.234375 19.695312 C 204.324219 19.722656 204.417969 19.75 204.507812 19.777344 C 204.507812 19.730469 204.507812 19.683594 204.507812 19.632812 C 204.46875 19.613281 204.414062 19.558594 204.378906 19.570312 C 204.324219 19.589844 204.28125 19.652344 204.234375 19.695312 Z M 199.144531 29.910156 C 199.210938 29.960938 199.277344 30.007812 199.347656 30.058594 C 199.371094 30.011719 199.394531 29.96875 199.421875 29.921875 C 199.378906 29.875 199.332031 29.824219 199.289062 29.777344 C 199.242188 29.820312 199.191406 29.867188 199.144531 29.910156 Z M 197.027344 29.847656 C 196.980469 29.847656 196.933594 29.847656 196.886719 29.847656 C 196.863281 29.886719 196.808594 29.945312 196.820312 29.976562 C 196.839844 30.035156 196.902344 30.074219 196.945312 30.125 C 196.972656 30.03125 197 29.941406 197.027344 29.847656 Z M 197.589844 35.082031 C 197.546875 35.035156 197.503906 34.984375 197.457031 34.9375 C 197.410156 35.003906 197.359375 35.070312 197.3125 35.140625 C 197.355469 35.164062 197.402344 35.1875 197.445312 35.214844 C 197.496094 35.171875 197.542969 35.125 197.589844 35.082031 Z M 199.496094 34.996094 C 199.441406 34.816406 199.351562 34.644531 199.277344 34.472656 C 199.226562 34.519531 199.140625 34.566406 199.136719 34.617188 C 199.117188 34.789062 199.128906 34.964844 199.128906 35.203125 C 199.3125 35.097656 199.5 35.019531 199.496094 34.996094 Z M 202.214844 22.933594 C 202.171875 22.886719 202.128906 22.835938 202.082031 22.789062 C 202.035156 22.832031 201.988281 22.878906 201.9375 22.921875 C 202.007812 22.972656 202.074219 23.019531 202.140625 23.070312 C 202.167969 23.023438 202.191406 22.980469 202.214844 22.933594 Z M 204.515625 34.5 C 204.359375 34.574219 204.207031 34.644531 204.050781 34.71875 C 203.894531 34.875 203.738281 35.03125 203.582031 35.1875 C 203.511719 35.34375 203.4375 35.496094 203.367188 35.652344 C 203.519531 35.578125 203.675781 35.503906 203.828125 35.429688 C 203.984375 35.273438 204.140625 35.117188 204.296875 34.964844 C 204.371094 34.808594 204.441406 34.65625 204.515625 34.5 Z M 204.515625 30.058594 C 204.441406 29.902344 204.371094 29.75 204.296875 29.59375 C 204.140625 29.523438 203.984375 29.449219 203.832031 29.378906 C 203.90625 29.53125 203.980469 29.6875 204.054688 29.84375 C 204.207031 29.914062 204.363281 29.984375 204.515625 30.058594 Z M 206.410156 37.375 C 206.363281 37.328125 206.320312 37.28125 206.277344 37.230469 C 206.230469 37.277344 206.179688 37.320312 206.132812 37.363281 C 206.199219 37.414062 206.265625 37.460938 206.332031 37.511719 C 206.359375 37.464844 206.382812 37.421875 206.410156 37.375 Z M 207.277344 32.179688 C 207.230469 32.179688 207.183594 32.179688 207.132812 32.179688 C 207.113281 32.21875 207.058594 32.273438 207.070312 32.304688 C 207.089844 32.363281 207.152344 32.40625 207.195312 32.453125 C 207.222656 32.363281 207.25 32.269531 207.277344 32.179688 Z M 207.769531 27.554688 C 207.730469 27.53125 207.671875 27.476562 207.640625 27.488281 C 207.585938 27.507812 207.542969 27.570312 207.496094 27.613281 C 207.585938 27.640625 207.675781 27.667969 207.769531 27.695312 C 207.769531 27.648438 207.769531 27.605469 207.769531 27.554688 Z M 209.167969 34.542969 C 209.128906 34.519531 209.070312 34.464844 209.039062 34.476562 C 208.984375 34.496094 208.941406 34.558594 208.890625 34.601562 C 208.984375 34.628906 209.074219 34.65625 209.167969 34.683594 C 209.167969 34.636719 209.167969 34.589844 209.167969 34.542969 Z M 209.640625 24.933594 C 209.566406 24.78125 209.492188 24.625 209.421875 24.472656 C 209.265625 24.398438 209.109375 24.324219 208.957031 24.253906 C 209.03125 24.40625 209.105469 24.5625 209.179688 24.71875 C 209.332031 24.789062 209.488281 24.863281 209.640625 24.933594 Z M 214.363281 34.617188 C 214.320312 34.566406 214.273438 34.519531 214.230469 34.472656 C 214.179688 34.539062 214.132812 34.605469 214.082031 34.671875 C 214.128906 34.699219 214.171875 34.722656 214.21875 34.75 C 214.265625 34.703125 214.316406 34.660156 214.363281 34.617188 Z M 252.933594 36.835938 C 252.886719 36.835938 252.839844 36.835938 252.789062 36.835938 C 252.769531 36.875 252.710938 36.933594 252.722656 36.964844 C 252.746094 37.019531 252.804688 37.0625 252.851562 37.113281 C 252.878906 37.019531 252.90625 36.929688 252.933594 36.835938 Z M 252.957031 32.210938 C 252.917969 32.191406 252.863281 32.136719 252.832031 32.148438 C 252.773438 32.167969 252.730469 32.230469 252.683594 32.273438 C 252.777344 32.300781 252.867188 32.328125 252.957031 32.355469 C 252.957031 32.308594 252.957031 32.261719 252.957031 32.210938 Z M 253.496094 22.96875 C 253.453125 22.921875 253.40625 22.871094 253.363281 22.824219 C 253.3125 22.890625 253.265625 22.960938 253.214844 23.027344 C 253.261719 23.050781 253.304688 23.078125 253.351562 23.101562 C 253.398438 23.058594 253.449219 23.011719 253.496094 22.96875 Z M 258.121094 27.59375 C 258.078125 27.542969 258.03125 27.496094 257.988281 27.449219 C 257.941406 27.492188 257.890625 27.535156 257.84375 27.582031 C 257.910156 27.628906 257.976562 27.679688 258.046875 27.726562 C 258.070312 27.683594 258.097656 27.636719 258.121094 27.59375 Z M 264.632812 27.46875 C 264.398438 27.46875 264.222656 27.457031 264.050781 27.472656 C 263.996094 27.480469 263.953125 27.5625 263.902344 27.613281 C 264.078125 27.691406 264.246094 27.78125 264.425781 27.835938 C 264.449219 27.839844 264.53125 27.65625 264.632812 27.46875 Z M 266.039062 19.671875 C 265.996094 19.625 265.953125 19.578125 265.90625 19.527344 C 265.859375 19.574219 265.8125 19.617188 265.761719 19.660156 C 265.832031 19.710938 265.898438 19.757812 265.964844 19.808594 C 265.992188 19.761719 266.015625 19.71875 266.039062 19.671875 Z M 266.539062 25.296875 C 266.496094 25.25 266.453125 25.203125 266.40625 25.152344 C 266.359375 25.222656 266.308594 25.289062 266.261719 25.355469 C 266.304688 25.378906 266.351562 25.40625 266.394531 25.429688 C 266.445312 25.386719 266.492188 25.34375 266.539062 25.296875 Z M 274.855469 37.335938 C 274.816406 37.316406 274.757812 37.261719 274.726562 37.273438 C 274.671875 37.292969 274.628906 37.355469 274.578125 37.398438 C 274.671875 37.425781 274.761719 37.453125 274.855469 37.480469 C 274.855469 37.433594 274.855469 37.386719 274.855469 37.335938 Z M 278.089844 13.542969 C 278.042969 13.542969 277.996094 13.542969 277.945312 13.542969 C 277.925781 13.582031 277.871094 13.640625 277.882812 13.671875 C 277.902344 13.726562 277.964844 13.769531 278.007812 13.816406 C 278.035156 13.726562 278.0625 13.636719 278.089844 13.542969 Z M 280.515625 26.230469 C 280.472656 26.183594 280.429688 26.132812 280.382812 26.085938 C 280.335938 26.152344 280.285156 26.21875 280.234375 26.289062 C 280.28125 26.3125 280.328125 26.335938 280.371094 26.363281 C 280.417969 26.320312 280.46875 26.273438 280.515625 26.230469 Z M 282.378906 39.742188 C 282.335938 39.691406 282.292969 39.644531 282.246094 39.597656 C 282.199219 39.664062 282.148438 39.730469 282.101562 39.796875 C 282.144531 39.824219 282.191406 39.847656 282.234375 39.875 C 282.285156 39.828125 282.332031 39.785156 282.378906 39.742188 Z M 282.773438 23.828125 C 282.734375 23.804688 282.679688 23.75 282.648438 23.761719 C 282.589844 23.78125 282.546875 23.84375 282.5 23.886719 C 282.589844 23.914062 282.683594 23.941406 282.773438 23.96875 C 282.773438 23.921875 282.773438 23.875 282.773438 23.828125 Z M 285.140625 21.070312 C 285.097656 21.023438 285.054688 20.972656 285.007812 20.925781 C 284.960938 20.96875 284.914062 21.015625 284.863281 21.058594 C 284.929688 21.109375 285 21.15625 285.066406 21.207031 C 285.089844 21.160156 285.117188 21.117188 285.140625 21.070312 Z M 286.105469 36.011719 C 286.0625 35.964844 286.019531 35.917969 285.972656 35.867188 C 285.925781 35.9375 285.875 36.003906 285.828125 36.070312 C 285.871094 36.097656 285.917969 36.121094 285.960938 36.144531 C 286.011719 36.101562 286.058594 36.058594 286.105469 36.011719 Z M 287.003906 39.707031 C 286.960938 39.65625 286.917969 39.609375 286.871094 39.5625 C 286.824219 39.605469 286.777344 39.648438 286.726562 39.695312 C 286.792969 39.742188 286.863281 39.792969 286.929688 39.839844 C 286.953125 39.796875 286.980469 39.75 287.003906 39.707031 Z M 287.46875 28.523438 C 287.425781 28.476562 287.382812 28.429688 287.339844 28.378906 C 287.289062 28.425781 287.242188 28.46875 287.195312 28.511719 C 287.261719 28.5625 287.328125 28.609375 287.394531 28.660156 C 287.421875 28.613281 287.445312 28.570312 287.46875 28.523438 Z M 290.226562 36.40625 C 290.1875 36.382812 290.132812 36.328125 290.101562 36.339844 C 290.042969 36.359375 290 36.421875 289.953125 36.464844 C 290.046875 36.492188 290.136719 36.519531 290.226562 36.546875 C 290.226562 36.5 290.226562 36.453125 290.226562 36.40625 Z M 290.226562 31.28125 C 290.1875 31.257812 290.132812 31.203125 290.101562 31.214844 C 290.042969 31.234375 290 31.296875 289.953125 31.339844 C 290.046875 31.367188 290.136719 31.394531 290.226562 31.421875 C 290.226562 31.375 290.226562 31.332031 290.226562 31.28125 Z M 290.265625 26.660156 C 290.222656 26.613281 290.175781 26.566406 290.132812 26.515625 C 290.085938 26.5625 290.035156 26.605469 289.988281 26.648438 C 290.054688 26.699219 290.121094 26.746094 290.191406 26.796875 C 290.214844 26.75 290.242188 26.707031 290.265625 26.660156 Z M 294.886719 36.40625 C 294.847656 36.382812 294.792969 36.328125 294.757812 36.339844 C 294.703125 36.359375 294.660156 36.421875 294.613281 36.464844 C 294.703125 36.492188 294.796875 36.519531 294.886719 36.546875 C 294.886719 36.5 294.886719 36.453125 294.886719 36.40625 Z M 295.390625 26.660156 C 295.347656 26.613281 295.300781 26.566406 295.257812 26.515625 C 295.210938 26.5625 295.160156 26.605469 295.113281 26.648438 C 295.179688 26.699219 295.246094 26.746094 295.316406 26.796875 C 295.339844 26.75 295.367188 26.707031 295.390625 26.660156 Z M 297.71875 29.457031 C 297.675781 29.40625 297.632812 29.359375 297.585938 29.3125 C 297.539062 29.355469 297.492188 29.398438 297.441406 29.445312 C 297.511719 29.492188 297.578125 29.542969 297.644531 29.59375 C 297.667969 29.546875 297.695312 29.5 297.71875 29.457031 Z M 298.21875 39.742188 C 298.175781 39.691406 298.132812 39.644531 298.085938 39.597656 C 298.039062 39.664062 297.988281 39.730469 297.9375 39.796875 C 297.984375 39.824219 298.03125 39.847656 298.074219 39.875 C 298.121094 39.828125 298.171875 39.785156 298.21875 39.742188 Z M 190.960938 1.925781 C 190.988281 2.035156 191.015625 2.144531 191.042969 2.25 C 191.582031 2.023438 192.132812 1.828125 192.640625 1.546875 C 192.773438 1.472656 192.835938 1.117188 192.785156 0.929688 C 192.738281 0.769531 192.472656 0.546875 192.324219 0.5625 C 190.777344 0.695312 189.230469 0.851562 187.695312 1.070312 C 187.488281 1.097656 187.335938 1.507812 187.15625 1.742188 C 187.398438 1.863281 187.640625 2.097656 187.878906 2.09375 C 188.90625 2.074219 189.933594 1.988281 190.960938 1.925781 Z M 265.648438 1.65625 C 266.675781 1.574219 267.863281 1.496094 269.046875 1.375 C 269.226562 1.355469 269.390625 1.152344 269.5625 1.03125 C 269.386719 0.894531 269.203125 0.632812 269.035156 0.636719 C 267.285156 0.710938 265.535156 0.808594 263.792969 0.941406 C 263.335938 0.976562 262.890625 1.152344 262.441406 1.265625 C 262.925781 1.394531 263.402344 1.578125 263.890625 1.640625 C 264.414062 1.707031 264.953125 1.65625 265.648438 1.65625 Z M 60.671875 1.359375 C 61.902344 1.375 63.152344 1.371094 64.347656 1.617188 C 64.703125 1.691406 64.964844 2.230469 65.410156 1.742188 C 65.5625 1.578125 65.683594 1.386719 65.820312 1.210938 C 65.460938 1.015625 65.121094 0.746094 64.738281 0.648438 C 64.398438 0.558594 64.003906 0.632812 63.636719 0.675781 C 62.734375 0.785156 61.835938 0.917969 60.933594 1.039062 C 60.929688 1.007812 60.925781 0.976562 60.921875 0.945312 C 60.386719 0.945312 59.839844 0.894531 59.3125 0.964844 C 58.984375 1.007812 58.683594 1.238281 58.371094 1.382812 C 58.695312 1.472656 59.027344 1.648438 59.347656 1.632812 C 59.792969 1.609375 60.234375 1.351562 60.671875 1.359375 Z M 150.242188 1.652344 C 151.277344 1.816406 152.316406 2.050781 153.351562 2.0625 C 153.867188 2.066406 154.386719 1.640625 155.28125 1.242188 C 154.644531 1.058594 154.433594 1.046875 154.285156 0.949219 C 152.878906 0.0195312 151.507812 0.703125 150.132812 1.035156 C 150.042969 1.054688 149.9375 1.273438 149.957031 1.375 C 149.976562 1.484375 150.128906 1.632812 150.242188 1.652344 Z M 253.882812 1.59375 C 254.554688 1.601562 255.230469 1.535156 255.902344 1.496094 C 255.902344 1.539062 255.902344 1.582031 255.902344 1.625 C 256.738281 1.625 257.574219 1.660156 258.40625 1.601562 C 258.648438 1.585938 258.871094 1.292969 259.105469 1.128906 C 258.898438 1.039062 258.699219 0.882812 258.488281 0.867188 C 256.949219 0.75 255.410156 0.640625 253.867188 0.589844 C 253.710938 0.585938 253.503906 0.980469 253.40625 1.226562 C 253.382812 1.28125 253.710938 1.589844 253.882812 1.59375 Z M 81.320312 1.59375 C 83.078125 1.5 84.835938 1.390625 86.59375 1.261719 C 86.785156 1.246094 86.96875 1.101562 87.15625 1.019531 C 86.976562 0.882812 86.804688 0.632812 86.625 0.625 C 85.519531 0.589844 84.410156 0.605469 83.304688 0.605469 C 83.277344 0.554688 83.253906 0.503906 83.226562 0.453125 C 82.53125 0.640625 81.832031 0.820312 81.140625 1.03125 C 81.054688 1.058594 80.945312 1.289062 80.976562 1.371094 C 81.019531 1.480469 81.203125 1.601562 81.320312 1.59375 Z M 175.714844 1.867188 C 176.050781 1.828125 176.347656 1.429688 176.660156 1.191406 C 176.230469 0.96875 175.769531 0.511719 175.375 0.5625 C 174.410156 0.683594 173.472656 1.039062 172.523438 1.304688 C 173.328125 2.890625 174.613281 1.996094 175.714844 1.867188 Z M 172.523438 1.304688 C 172.523438 1.300781 172.523438 1.300781 172.519531 1.296875 C 172.503906 1.257812 172.488281 1.21875 172.472656 1.183594 C 172.480469 1.222656 172.492188 1.265625 172.503906 1.308594 C 172.511719 1.308594 172.515625 1.304688 172.523438 1.304688 Z M 240.96875 1.765625 C 240.875 1.855469 240.777344 1.9375 240.699219 2.039062 C 240.675781 2.066406 240.71875 2.144531 240.730469 2.203125 C 240.816406 2.0625 240.902344 1.921875 240.988281 1.78125 C 241.898438 1.285156 242.804688 1.105469 243.839844 1.5 C 244.382812 1.707031 245.042969 1.640625 245.648438 1.617188 C 245.875 1.609375 246.09375 1.367188 246.316406 1.234375 C 246.125 1.160156 245.941406 1.039062 245.742188 1.019531 C 244.175781 0.839844 242.613281 0.628906 241.039062 0.550781 C 240.605469 0.53125 240.148438 0.921875 239.703125 1.125 C 240.117188 1.261719 240.53125 1.394531 240.9375 1.542969 C 240.96875 1.554688 240.957031 1.6875 240.96875 1.765625 Z M 370.660156 1.570312 C 371.234375 1.769531 371.964844 1.542969 372.621094 1.472656 C 372.71875 1.464844 372.859375 1.273438 372.867188 1.15625 C 372.878906 1.03125 372.773438 0.796875 372.691406 0.785156 C 372.1875 0.695312 371.664062 0.574219 371.164062 0.625 C 370.257812 0.71875 369.367188 0.925781 368.46875 1.082031 C 368.460938 1.027344 368.453125 0.96875 368.445312 0.914062 C 367.835938 0.914062 367.222656 0.886719 366.617188 0.933594 C 366.449219 0.945312 366.300781 1.191406 366.140625 1.328125 C 366.308594 1.433594 366.503906 1.652344 366.636719 1.617188 C 367.976562 1.269531 369.277344 1.078125 370.660156 1.570312 Z M 116.46875 1.53125 C 117.8125 1.589844 119.15625 1.640625 120.5 1.640625 C 120.667969 1.640625 120.835938 1.351562 121.003906 1.199219 C 120.867188 1.113281 120.742188 0.96875 120.597656 0.949219 C 119.847656 0.851562 119.09375 0.78125 118.367188 0.707031 C 117.773438 0.75 117.191406 0.777344 116.613281 0.847656 C 116.503906 0.863281 116.367188 1.046875 116.332031 1.175781 C 116.308594 1.28125 116.414062 1.53125 116.46875 1.53125 Z M 95.328125 1.8125 C 95.644531 1.636719 96.058594 1.636719 96.382812 1.472656 C 96.515625 1.40625 96.570312 1.105469 96.570312 0.910156 C 96.570312 0.792969 96.417969 0.601562 96.300781 0.570312 C 96.011719 0.492188 95.707031 0.488281 95.675781 0.488281 C 95.253906 0.488281 95.078125 0.4375 94.953125 0.496094 C 94.320312 0.78125 93.699219 1.09375 93.074219 1.398438 C 93.796875 1.683594 94.445312 2.296875 95.328125 1.8125 Z M 356.472656 1.84375 C 357.304688 1.609375 358.109375 1.40625 358.894531 1.144531 C 359.070312 1.085938 359.183594 0.832031 359.328125 0.667969 C 359.125 0.609375 358.910156 0.476562 358.722656 0.503906 C 357.972656 0.601562 357.226562 0.875 356.488281 0.851562 C 355.875 0.828125 355.164062 0.105469 354.90625 1.222656 C 354.890625 1.300781 355.875 1.613281 356.472656 1.84375 Z M 133.164062 1.671875 C 133.308594 1.710938 133.472656 1.664062 133.625 1.65625 C 133.628906 1.691406 133.636719 1.730469 133.640625 1.765625 C 134.390625 1.589844 135.140625 1.410156 135.890625 1.234375 C 135.105469 1.089844 134.316406 0.941406 133.527344 0.796875 C 133.382812 0.769531 133.230469 0.707031 133.09375 0.734375 C 132.46875 0.855469 131.851562 1.007812 131.230469 1.148438 C 131.617188 2.261719 132.519531 1.503906 133.164062 1.671875 Z M 139.140625 1.585938 C 140.890625 1.507812 142.644531 1.394531 144.394531 1.289062 C 142.6875 0.4375 140.878906 1.042969 139.117188 0.984375 C 139.003906 0.980469 138.886719 1.125 138.769531 1.203125 C 138.894531 1.335938 139.023438 1.59375 139.140625 1.585938 Z M 156.140625 1.96875 C 157.371094 1.980469 158.605469 2 159.835938 1.980469 C 159.988281 1.976562 160.136719 1.753906 160.285156 1.636719 C 160.113281 1.5 159.945312 1.363281 159.769531 1.230469 C 158.558594 0.304688 157.378906 1 156.191406 1.300781 C 156.1875 1.300781 156.1875 1.300781 156.1875 1.300781 C 156.171875 1.523438 156.15625 1.746094 156.140625 1.96875 Z M 178.117188 1.320312 C 178.117188 1.308594 178.113281 1.300781 178.109375 1.289062 C 178.078125 1.285156 178.046875 1.28125 178.015625 1.28125 C 178.027344 1.300781 178.042969 1.320312 178.054688 1.339844 C 178.074219 1.332031 178.097656 1.328125 178.117188 1.320312 Z M 179.203125 2.09375 C 180.050781 1.890625 180.878906 1.589844 181.714844 1.324219 C 181.332031 1.078125 180.929688 0.636719 180.578125 0.671875 C 179.742188 0.765625 178.9375 1.085938 178.117188 1.320312 C 178.1875 1.980469 178.613281 2.234375 179.203125 2.09375 Z M 334.273438 1.292969 C 334.496094 1.261719 334.714844 1.203125 335.082031 1.128906 C 334.789062 0.984375 334.625 0.878906 334.449219 0.824219 C 333.332031 0.488281 332.210938 0.226562 331.101562 0.832031 C 330.855469 0.964844 330.648438 1.164062 330.421875 1.335938 C 330.746094 1.4375 331.074219 1.648438 331.390625 1.625 C 332.355469 1.5625 333.3125 1.414062 334.273438 1.292969 Z M 49.085938 1.648438 C 49.527344 1.648438 49.792969 1.726562 49.980469 1.636719 C 50.613281 1.332031 51.222656 0.972656 51.839844 0.632812 C 51.265625 0.726562 50.695312 0.851562 50.121094 0.90625 C 49.527344 0.964844 48.925781 0.9375 48.332031 0.992188 C 48.160156 1.011719 48.003906 1.1875 47.839844 1.289062 C 48.023438 1.375 48.199219 1.496094 48.390625 1.542969 C 48.683594 1.613281 48.992188 1.636719 49.085938 1.648438 Z M 299.890625 1.523438 C 300.148438 1.394531 300.214844 1.324219 300.28125 1.328125 C 300.972656 1.355469 301.753906 1.789062 302.222656 0.867188 C 301.492188 0.824219 300.765625 0.753906 300.039062 0.746094 C 299.746094 0.742188 299.441406 0.855469 299.15625 0.957031 C 298.984375 1.015625 298.839844 1.160156 298.679688 1.265625 C 298.851562 1.378906 299.015625 1.570312 299.199219 1.589844 C 299.488281 1.621094 299.789062 1.535156 299.890625 1.523438 Z M 347.574219 1.65625 C 347.574219 1.625 347.574219 1.59375 347.574219 1.5625 C 348.101562 1.5625 348.632812 1.589844 349.15625 1.535156 C 349.25 1.527344 349.394531 1.15625 349.355469 0.984375 C 349.324219 0.832031 349.042969 0.597656 348.925781 0.625 C 348.121094 0.804688 347.328125 1.042969 346.535156 1.265625 C 346.324219 1.324219 346.113281 1.386719 345.902344 1.449219 C 346.152344 1.519531 346.402344 1.617188 346.660156 1.648438 C 346.960938 1.683594 347.269531 1.65625 347.574219 1.65625 Z M 163.121094 1.59375 C 163.484375 1.515625 163.867188 1.535156 164.222656 1.445312 C 164.417969 1.398438 164.574219 1.210938 164.742188 1.089844 C 164.671875 0.964844 164.648438 0.894531 164.601562 0.835938 C 164.140625 0.273438 162.703125 0.347656 162.433594 0.988281 C 162.328125 1.238281 162.445312 1.582031 162.460938 1.882812 C 162.679688 1.78125 162.890625 1.640625 163.121094 1.59375 Z M 144.566406 1.304688 C 144.5625 1.296875 144.558594 1.289062 144.554688 1.277344 C 144.503906 1.28125 144.449219 1.285156 144.394531 1.289062 C 144.433594 1.308594 144.476562 1.316406 144.515625 1.339844 C 144.53125 1.328125 144.550781 1.316406 144.566406 1.304688 Z M 146.449219 1.417969 C 146.601562 1.300781 146.757812 0.882812 146.707031 0.839844 C 146.15625 0.367188 145.597656 0.382812 145.070312 0.925781 C 144.925781 1.074219 144.738281 1.183594 144.566406 1.304688 C 145.082031 2.757812 145.800781 1.90625 146.449219 1.417969 Z M 2.03125 11.863281 C 1.773438 12.136719 1.511719 12.425781 1.339844 12.753906 C 1.210938 13.003906 1.21875 13.320312 1.164062 13.609375 C 1.5 13.511719 1.882812 13.488281 2.152344 13.300781 C 2.4375 13.101562 2.617188 12.746094 2.847656 12.453125 C 2.671875 12.167969 2.582031 11.957031 2.429688 11.816406 C 2.363281 11.753906 2.105469 11.785156 2.03125 11.863281 Z M 316.421875 1.292969 C 316.566406 1.257812 316.691406 1.160156 316.859375 1.074219 C 316.65625 0.972656 316.484375 0.824219 316.292969 0.800781 C 315.886719 0.75 315.464844 0.71875 315.058594 0.761719 C 314.621094 0.804688 314.191406 0.945312 313.757812 1.042969 C 314.222656 1.210938 314.675781 1.464844 315.152344 1.519531 C 315.5625 1.566406 316 1.390625 316.421875 1.292969 Z M 205.503906 1.140625 C 205.605469 1.105469 205.683594 0.902344 205.691406 0.769531 C 205.695312 0.714844 205.46875 0.578125 205.371094 0.597656 C 204.40625 0.816406 203.441406 1.058594 202.480469 1.292969 C 203.085938 1.363281 203.695312 1.460938 204.300781 1.457031 C 204.703125 1.453125 205.113281 1.28125 205.503906 1.140625 Z M 341.496094 1.273438 C 341.777344 1.277344 342.050781 1.46875 342.335938 1.523438 C 342.449219 1.546875 342.589844 1.429688 342.71875 1.375 C 342.597656 1.230469 342.503906 1.003906 342.355469 0.960938 C 342.070312 0.878906 341.753906 0.902344 341.128906 0.863281 C 340.949219 0.921875 340.484375 1.078125 340.015625 1.230469 C 340.492188 2.144531 341.003906 1.261719 341.496094 1.273438 Z M 110.257812 1.046875 C 110.03125 0.878906 109.746094 0.523438 109.582031 0.574219 C 109.175781 0.695312 108.824219 0.996094 108.449219 1.226562 C 108.722656 1.402344 109 1.578125 109.421875 1.847656 C 109.730469 1.550781 109.996094 1.300781 110.257812 1.046875 Z M 327.5 1.324219 C 328 1.238281 328.476562 1.019531 328.964844 0.855469 C 328.476562 0.734375 327.984375 0.523438 327.507812 0.5625 C 327.140625 0.589844 326.796875 0.964844 326.441406 1.183594 C 326.792969 1.238281 327.164062 1.382812 327.5 1.324219 Z M 218.929688 1.421875 C 218.972656 1.375 218.683594 1.046875 218.542969 0.851562 C 218.175781 1.183594 217.800781 1.503906 217.457031 1.859375 C 217.421875 1.890625 217.585938 2.117188 217.796875 2.515625 C 218.285156 2.066406 218.644531 1.773438 218.929688 1.421875 Z M 201.792969 1.289062 C 201.503906 0.902344 201.320312 0.15625 200.660156 0.734375 C 200.34375 1.015625 200.296875 1.601562 200.125 2.046875 C 200.558594 1.835938 200.992188 1.621094 201.433594 1.417969 C 201.546875 1.363281 201.671875 1.328125 201.792969 1.289062 Z M 124.503906 1.027344 C 124.203125 0.832031 123.90625 0.632812 123.574219 0.414062 C 123.136719 0.628906 122.765625 0.816406 122.394531 1 C 122.777344 1.203125 123.148438 1.539062 123.542969 1.566406 C 123.847656 1.585938 124.183594 1.222656 124.503906 1.027344 Z M 76.289062 1.585938 C 76.410156 1.550781 76.503906 1.414062 76.609375 1.320312 C 76.480469 1.199219 76.375 1.019531 76.222656 0.964844 C 76.019531 0.890625 75.78125 0.910156 75.335938 0.871094 C 75.210938 0.96875 74.953125 1.164062 74.695312 1.363281 C 75.003906 1.460938 75.308594 1.589844 75.625 1.644531 C 75.835938 1.679688 76.074219 1.644531 76.289062 1.585938 Z M 99.261719 1.542969 C 99.605469 1.503906 99.925781 1.25 100.332031 1.050781 C 100.058594 0.996094 99.84375 0.90625 99.640625 0.917969 C 99.148438 0.953125 98.660156 1.035156 98.167969 1.097656 C 98.203125 1.160156 98.226562 1.269531 98.277344 1.285156 C 98.601562 1.390625 98.945312 1.578125 99.261719 1.542969 Z M 105.378906 1.238281 C 105.636719 1.238281 105.796875 1.265625 105.941406 1.234375 C 106.257812 1.160156 106.566406 1.0625 106.878906 0.972656 C 106.546875 0.867188 106.214844 0.671875 105.882812 0.679688 C 105.523438 0.6875 105.164062 0.878906 104.808594 1.003906 C 104.695312 1.046875 104.601562 1.144531 104.496094 1.214844 C 104.609375 1.277344 104.726562 1.394531 104.832031 1.382812 C 105.050781 1.359375 105.265625 1.269531 105.378906 1.238281 Z M 231.207031 0.75 C 230.714844 0.820312 230.191406 0.820312 229.738281 0.996094 C 229.5625 1.0625 229.511719 1.449219 229.417969 1.726562 C 229.960938 1.5625 230.507812 1.414062 231.039062 1.214844 C 231.140625 1.175781 231.152344 0.910156 231.207031 0.75 Z M 291.363281 0.933594 C 291.117188 0.769531 290.871094 0.605469 290.535156 0.378906 C 290.207031 0.621094 289.917969 0.835938 289.625 1.054688 C 289.9375 1.214844 290.253906 1.507812 290.5625 1.496094 C 290.835938 1.484375 291.097656 1.136719 291.363281 0.933594 Z M 114.410156 1.128906 C 114.019531 0.84375 113.769531 0.542969 113.628906 0.589844 C 113.378906 0.667969 113.070312 0.929688 113.019531 1.164062 C 112.976562 1.347656 113.292969 1.605469 113.453125 1.832031 C 113.710938 1.640625 113.96875 1.453125 114.410156 1.128906 Z M 226.9375 1.347656 C 226.886719 1.355469 226.832031 1.359375 226.796875 1.335938 C 225.925781 0.816406 225.640625 1.574219 225.242188 2.058594 C 225.175781 2.140625 225.207031 2.3125 225.195312 2.441406 C 225.625 2.207031 226.066406 1.984375 226.488281 1.730469 C 226.652344 1.628906 226.792969 1.480469 226.9375 1.347656 Z M 306.164062 1.328125 C 306.011719 1.183594 305.855469 1.039062 305.679688 0.878906 C 305.242188 1.070312 304.941406 1.203125 304.636719 1.335938 C 304.882812 1.441406 305.132812 1.628906 305.378906 1.625 C 305.640625 1.621094 305.902344 1.4375 306.164062 1.328125 Z M 320.921875 1.125 C 320.609375 1.011719 320.300781 0.902344 320.234375 0.878906 C 319.601562 0.878906 319.25 0.878906 318.894531 0.878906 C 319.121094 1.039062 319.339844 1.324219 319.566406 1.332031 C 320.015625 1.34375 320.472656 1.203125 320.921875 1.125 Z M 69.097656 1.328125 C 69.09375 1.328125 69.089844 1.324219 69.089844 1.324219 L 69.023438 1.238281 L 69.046875 1.363281 C 69.0625 1.351562 69.082031 1.34375 69.097656 1.328125 Z M 70.496094 1 C 70.558594 0.925781 70.492188 0.753906 70.484375 0.625 C 70.0625 0.824219 69.640625 1.023438 69.222656 1.230469 C 69.175781 1.253906 69.136719 1.292969 69.097656 1.328125 C 69.726562 1.949219 70.125 1.488281 70.496094 1 Z M 236.207031 1.09375 C 236.222656 0.929688 236.050781 0.75 235.960938 0.578125 C 235.695312 0.761719 235.425781 0.941406 235.160156 1.125 C 235.292969 1.28125 235.421875 1.4375 235.90625 2.011719 C 236.039062 1.632812 236.183594 1.371094 236.207031 1.09375 Z M 167.324219 1.335938 C 167.265625 1.316406 167.207031 1.292969 167.144531 1.289062 C 166.75 1.277344 166.351562 1.261719 165.960938 1.285156 C 165.914062 1.289062 165.882812 1.527344 165.84375 1.65625 C 166.238281 1.644531 166.632812 1.65625 167.019531 1.609375 C 167.132812 1.59375 167.226562 1.4375 167.324219 1.335938 Z M 221.335938 2.484375 C 221.53125 2.4375 221.695312 2.269531 222.21875 1.933594 C 221.476562 1.933594 221.191406 1.890625 220.9375 1.953125 C 220.835938 1.980469 220.800781 2.25 220.734375 2.40625 C 220.9375 2.4375 221.152344 2.527344 221.335938 2.484375 Z M 274.03125 0.859375 C 273.589844 0.898438 273.148438 0.925781 272.714844 0.992188 C 272.609375 1.007812 272.527344 1.164062 272.433594 1.257812 C 272.597656 1.332031 272.796875 1.503906 272.910156 1.457031 C 273.300781 1.296875 273.660156 1.066406 274.03125 0.859375 Z M 338.402344 0.800781 C 338.269531 0.683594 338.140625 0.566406 337.90625 0.351562 C 337.679688 0.605469 337.507812 0.800781 337.332031 0.996094 C 337.460938 1.0625 337.613281 1.207031 337.707031 1.175781 C 337.953125 1.09375 338.171875 0.933594 338.402344 0.800781 Z M 248.09375 1.574219 C 248.277344 1.550781 248.496094 1.375 248.585938 1.207031 C 248.636719 1.113281 248.453125 0.898438 248.074219 0.125 C 247.867188 0.699219 247.71875 0.960938 247.699219 1.230469 C 247.6875 1.34375 247.972656 1.589844 248.09375 1.574219 Z M 170.320312 1.347656 C 170.128906 1.125 170.042969 0.949219 169.90625 0.890625 C 169.753906 0.824219 169.550781 0.863281 169.371094 0.851562 C 169.441406 1.101562 169.511719 1.351562 169.585938 1.601562 C 169.773438 1.535156 169.964844 1.472656 170.320312 1.347656 Z M 111.503906 1.601562 C 111.710938 1.441406 111.875 1.222656 112.054688 1.023438 C 111.898438 0.894531 111.742188 0.765625 111.464844 0.53125 C 111.328125 0.90625 111.214844 1.160156 111.152344 1.429688 C 111.144531 1.460938 111.457031 1.640625 111.503906 1.601562 Z M 102.320312 1.207031 C 102.535156 1.074219 102.703125 0.878906 102.890625 0.707031 C 102.761719 0.652344 102.628906 0.597656 102.417969 0.511719 C 102.257812 0.714844 102.082031 0.941406 101.90625 1.167969 C 102.046875 1.183594 102.226562 1.265625 102.320312 1.207031 Z M 55.699219 1.054688 C 55.554688 1.019531 55.410156 0.984375 55.269531 0.949219 C 55.128906 0.988281 54.992188 1.023438 54.855469 1.058594 C 54.941406 1.121094 55.039062 1.242188 55.113281 1.230469 C 55.3125 1.203125 55.503906 1.117188 55.699219 1.054688 Z M 287.589844 0.773438 C 287.367188 0.691406 287.191406 0.605469 287.003906 0.578125 C 286.964844 0.570312 286.894531 0.792969 286.835938 0.90625 C 287.019531 0.972656 287.195312 1.054688 287.382812 1.085938 C 287.417969 1.09375 287.488281 0.929688 287.589844 0.773438 Z M 130.222656 1.515625 C 130.09375 1.351562 129.992188 1.140625 129.824219 1.054688 C 129.742188 1.011719 129.410156 1.207031 129.414062 1.285156 C 129.425781 1.464844 129.570312 1.636719 129.609375 1.71875 C 129.960938 1.601562 130.089844 1.558594 130.222656 1.515625 Z M 78.957031 1.003906 C 78.738281 0.960938 78.550781 0.890625 78.367188 0.910156 C 78.273438 0.917969 78.199219 1.089844 78.113281 1.183594 C 78.304688 1.253906 78.492188 1.355469 78.6875 1.371094 C 78.75 1.378906 78.835938 1.171875 78.957031 1.003906 Z M 209.230469 2.40625 C 209.425781 2.371094 209.730469 2.398438 209.796875 2.285156 C 209.960938 2 210.054688 1.671875 210.164062 1.351562 C 209.894531 1.574219 209.621094 1.785156 209.371094 2.023438 C 209.28125 2.109375 209.273438 2.277344 209.230469 2.40625 Z M 177.671875 0.777344 C 177.542969 0.925781 177.414062 1.078125 177.285156 1.226562 C 177.527344 1.246094 177.773438 1.261719 178.015625 1.28125 C 177.898438 1.113281 177.785156 0.945312 177.671875 0.777344 Z M 90.417969 0.773438 C 90.410156 0.792969 90.40625 0.8125 90.398438 0.835938 C 90.421875 0.832031 90.445312 0.828125 90.464844 0.824219 Z M 89.617188 1.445312 C 89.804688 1.460938 90.050781 1.441406 90.175781 1.332031 C 90.300781 1.21875 90.339844 1.015625 90.398438 0.835938 C 90.277344 0.855469 90.15625 0.871094 90.035156 0.902344 C 89.835938 0.953125 89.644531 1.023438 89.445312 1.085938 C 89.503906 1.210938 89.550781 1.441406 89.617188 1.445312 Z M 39.828125 1.25 C 39.847656 1.199219 39.710938 1.082031 39.605469 0.945312 C 39.476562 1.113281 39.355469 1.265625 39.234375 1.421875 C 39.34375 1.46875 39.476562 1.578125 39.554688 1.546875 C 39.671875 1.503906 39.78125 1.371094 39.828125 1.25 Z M 185.652344 1.433594 C 185.542969 1.339844 185.433594 1.246094 185.328125 1.148438 C 185.238281 1.265625 185.152344 1.378906 185.070312 1.492188 C 185.1875 1.550781 185.304688 1.648438 185.421875 1.652344 C 185.496094 1.652344 185.574219 1.511719 185.652344 1.433594 Z M 73.3125 0.972656 C 73.246094 0.996094 73.203125 1.082031 73.152344 1.140625 C 73.316406 1.054688 73.480469 0.96875 73.648438 0.882812 C 73.535156 0.90625 73.417969 0.929688 73.3125 0.972656 Z M 137.523438 1.105469 C 137.460938 1.078125 137.410156 1.042969 137.355469 1.035156 C 137.292969 1.019531 137.226562 1.03125 137.164062 1.03125 C 137.214844 1.054688 137.265625 1.09375 137.320312 1.101562 C 137.382812 1.117188 137.449219 1.105469 137.523438 1.105469 Z M 224.402344 0.695312 C 224.34375 0.730469 224.261719 0.753906 224.230469 0.808594 C 224.175781 0.898438 224.15625 1.007812 224.117188 1.109375 C 224.242188 1.085938 224.363281 1.0625 224.484375 1.042969 C 224.457031 0.925781 224.429688 0.8125 224.402344 0.695312 Z M 233.101562 1.179688 C 233.140625 1.074219 233.242188 0.921875 233.207031 0.867188 C 233.132812 0.761719 232.980469 0.707031 232.863281 0.632812 C 232.820312 0.761719 232.71875 0.914062 232.757812 1.015625 C 232.789062 1.101562 232.980469 1.125 233.101562 1.179688 Z M 249.675781 1.132812 C 249.769531 1.171875 249.921875 1.066406 250.046875 1.023438 C 249.976562 0.910156 249.925781 0.761719 249.824219 0.691406 C 249.765625 0.652344 249.621094 0.753906 249.515625 0.792969 C 249.566406 0.910156 249.589844 1.097656 249.675781 1.132812 Z M 261.011719 1.160156 C 261.011719 1.121094 261.015625 1.027344 261.011719 1.023438 C 260.867188 1.015625 260.71875 1.015625 260.574219 1.015625 C 260.574219 1.0625 260.574219 1.15625 260.578125 1.15625 C 260.722656 1.164062 260.871094 1.160156 261.011719 1.160156 Z M 279.011719 1.417969 C 278.992188 1.316406 278.929688 1.222656 278.882812 1.125 C 278.796875 1.222656 278.710938 1.320312 278.625 1.417969 C 278.71875 1.472656 278.8125 1.535156 278.910156 1.570312 C 278.925781 1.578125 279.019531 1.460938 279.011719 1.417969 Z M 322.605469 1.15625 C 322.589844 1.109375 322.570312 1.058594 322.554688 1.011719 C 322.4375 1.054688 322.316406 1.09375 322.207031 1.148438 C 322.199219 1.152344 322.246094 1.269531 322.265625 1.335938 C 322.378906 1.277344 322.492188 1.214844 322.605469 1.15625 Z M 198.730469 0.722656 C 198.675781 0.761719 198.613281 0.796875 198.570312 0.84375 C 198.523438 0.890625 198.492188 0.953125 198.457031 1.007812 C 198.570312 1.007812 198.683594 1.007812 198.796875 1.007812 C 198.777344 0.917969 198.753906 0.820312 198.730469 0.722656 Z M 193.757812 0.707031 C 193.742188 0.824219 193.726562 0.945312 193.710938 1.0625 C 193.753906 1.011719 193.800781 0.957031 193.84375 0.902344 C 193.816406 0.835938 193.785156 0.773438 193.757812 0.707031 Z M 227.269531 0.886719 C 227.207031 1.003906 227.140625 1.117188 227.074219 1.234375 C 227.152344 1.179688 227.234375 1.125 227.300781 1.058594 C 227.324219 1.035156 227.28125 0.945312 227.269531 0.886719 Z M 227.074219 1.234375 C 227.042969 1.257812 227.015625 1.285156 226.980469 1.308594 C 226.96875 1.320312 226.953125 1.335938 226.9375 1.347656 C 226.964844 1.34375 226.992188 1.339844 227.015625 1.339844 C 227.035156 1.304688 227.054688 1.269531 227.074219 1.234375 Z M 296.542969 0.539062 L 296.351562 0.617188 L 296.539062 0.699219 Z M 71.664062 1.09375 C 71.648438 1.214844 71.632812 1.339844 71.621094 1.460938 C 71.660156 1.40625 71.730469 1.351562 71.738281 1.289062 C 71.746094 1.226562 71.691406 1.160156 71.664062 1.09375 Z M 92.039062 1.113281 C 92.023438 1.070312 92.003906 1.027344 91.988281 0.984375 C 91.929688 1 91.871094 1.011719 91.808594 1.027344 C 91.828125 1.074219 91.84375 1.152344 91.863281 1.152344 C 91.917969 1.15625 91.980469 1.128906 92.039062 1.113281 Z M 161.433594 1.09375 C 161.390625 1.0625 161.347656 1.003906 161.300781 1 C 161.25 0.992188 161.195312 1.03125 161.140625 1.046875 C 161.183594 1.082031 161.226562 1.117188 161.269531 1.148438 C 161.324219 1.132812 161.378906 1.113281 161.433594 1.09375 Z M 221.445312 1.003906 L 221.242188 1.046875 L 221.414062 1.140625 Z M 251.113281 1.222656 C 251.113281 1.199219 251.027344 1.179688 250.976562 1.15625 C 250.960938 1.21875 250.925781 1.285156 250.929688 1.34375 C 250.933594 1.371094 251.019531 1.390625 251.066406 1.410156 C 251.082031 1.347656 251.117188 1.285156 251.113281 1.222656 Z M 351.703125 1.253906 C 351.703125 1.230469 351.628906 1.210938 351.585938 1.191406 C 351.570312 1.25 351.539062 1.304688 351.539062 1.359375 C 351.539062 1.382812 351.613281 1.402344 351.65625 1.421875 C 351.671875 1.367188 351.703125 1.308594 351.703125 1.253906 Z M 353.128906 1.234375 C 353.128906 1.210938 353.039062 1.191406 352.992188 1.167969 C 352.96875 1.234375 352.933594 1.296875 352.933594 1.363281 C 352.933594 1.386719 353.023438 1.410156 353.074219 1.429688 C 353.09375 1.363281 353.128906 1.300781 353.128906 1.234375 Z M 182.773438 1.347656 C 182.785156 1.285156 182.800781 1.21875 182.816406 1.15625 C 182.785156 1.207031 182.757812 1.257812 182.726562 1.304688 C 182.417969 1.304688 182.105469 1.300781 181.792969 1.296875 C 181.765625 1.304688 181.738281 1.316406 181.714844 1.324219 C 181.726562 1.332031 181.738281 1.339844 181.75 1.347656 C 182.089844 1.347656 182.429688 1.347656 182.773438 1.347656 Z M 73.847656 0.8125 C 73.804688 0.820312 73.761719 0.832031 73.722656 0.84375 C 73.695312 0.855469 73.671875 0.871094 73.648438 0.882812 C 73.675781 0.875 73.703125 0.867188 73.730469 0.859375 C 73.769531 0.84375 73.808594 0.828125 73.847656 0.8125 Z M 274.203125 0.785156 C 274.152344 0.804688 274.105469 0.824219 274.054688 0.84375 C 274.046875 0.847656 274.039062 0.851562 274.03125 0.859375 C 274.039062 0.855469 274.042969 0.855469 274.050781 0.855469 C 274.101562 0.832031 274.152344 0.808594 274.203125 0.785156 Z M 329.085938 0.765625 L 328.996094 0.84375 C 328.984375 0.847656 328.972656 0.851562 328.964844 0.855469 C 328.980469 0.859375 329 0.867188 329.015625 0.871094 Z M 156.1875 1.144531 C 156.136719 1.199219 156.085938 1.253906 156.035156 1.308594 C 156.085938 1.304688 156.136719 1.304688 156.1875 1.300781 C 156.1875 1.246094 156.1875 1.195312 156.1875 1.144531 Z M 167.4375 1.238281 L 167.339844 1.316406 C 167.335938 1.324219 167.332031 1.328125 167.324219 1.335938 C 167.339844 1.339844 167.351562 1.34375 167.367188 1.347656 Z M 202.359375 1.324219 C 202.398438 1.3125 202.4375 1.304688 202.480469 1.292969 C 202.425781 1.289062 202.375 1.28125 202.320312 1.277344 C 202.160156 1.273438 202 1.273438 201.839844 1.273438 C 201.824219 1.277344 201.808594 1.285156 201.792969 1.289062 C 201.800781 1.296875 201.804688 1.308594 201.808594 1.3125 C 201.992188 1.316406 202.175781 1.320312 202.359375 1.324219 Z M 229.394531 1.792969 C 229.402344 1.773438 229.410156 1.746094 229.417969 1.726562 C 229.394531 1.730469 229.375 1.738281 229.351562 1.746094 C 229.195312 1.898438 229.039062 2.050781 228.882812 2.203125 L 228.808594 2.308594 L 228.90625 2.226562 C 229.070312 2.082031 229.230469 1.9375 229.394531 1.792969 Z M 135.457031 34.671875 L 135.566406 34.496094 L 135.355469 34.492188 Z M 135.457031 34.671875 " fill-opacity="1" fill-rule="nonzero"/></g></svg>