<svg xmlns="http://www.w3.org/2000/svg" xmlns:xlink="http://www.w3.org/1999/xlink" width="522" zoomAndPan="magnify" viewBox="0 0 391.5 30.000001" height="40" preserveAspectRatio="xMidYMid meet" version="1.0"><defs><clipPath id="fdf1cccacc"><path d="M 185.511719 15.480469 L 185.53125 15.480469 L 185.53125 15.5 L 185.511719 15.5 Z M 185.511719 15.480469 " clip-rule="nonzero"/></clipPath><clipPath id="f8b6c7b73a"><path d="M 185.53125 15.488281 C 185.519531 15.503906 185.511719 15.5 185.511719 15.496094 C 185.507812 15.492188 185.511719 15.484375 185.511719 15.480469 C 185.515625 15.480469 185.527344 15.484375 185.527344 15.484375 " clip-rule="nonzero"/></clipPath><clipPath id="6d3b620512"><path d="M 6.074219 2 L 384.945312 2 L 384.945312 23 L 6.074219 23 Z M 6.074219 2 " clip-rule="nonzero"/></clipPath></defs><g clip-path="url(#fdf1cccacc)"><g clip-path="url(#f8b6c7b73a)"><path fill="#000000" d="M 185.464844 15.4375 L 185.578125 15.4375 L 185.578125 15.546875 L 185.464844 15.546875 Z M 185.464844 15.4375 " fill-opacity="1" fill-rule="nonzero"/></g></g><g clip-path="url(#6d3b620512)"><path fill="#518d87" d="M 8.589844 19.191406 C 8.066406 19.679688 7.246094 19.65625 6.757812 19.132812 C 6.265625 18.613281 6.289062 17.792969 6.8125 17.300781 C 15.230469 9.351562 18.699219 11.09375 23.179688 13.347656 C 27.410156 15.472656 32.71875 18.136719 46.730469 10.042969 C 51.980469 7.011719 54.695312 8.738281 58.25 10.992188 C 63.507812 14.328125 70.917969 19.027344 95.414062 6.296875 C 107.523438 0.00390625 111.765625 1.570312 113.785156 5.457031 C 115.300781 8.378906 115.121094 12.207031 116.65625 14.890625 C 118.519531 18.140625 123.515625 18.757812 140.226562 9.1875 C 152.574219 2.117188 156.660156 6.371094 161.726562 11.648438 C 167.675781 17.84375 175.160156 25.636719 204.0625 13.296875 C 208.875 11.242188 210.421875 12.199219 212.683594 13.601562 C 215.59375 15.40625 219.992188 18.128906 240.371094 12.757812 C 248.445312 10.628906 252.335938 11.6875 256.679688 12.867188 C 261.824219 14.265625 267.652344 15.851562 283.105469 11.753906 C 294.148438 8.824219 306.445312 9.769531 320.816406 10.878906 C 338.132812 12.210938 358.5 13.78125 383.082031 8.980469 C 383.785156 8.84375 384.46875 9.300781 384.605469 10.007812 C 384.742188 10.710938 384.285156 11.390625 383.578125 11.53125 C 358.652344 16.394531 338.101562 14.8125 320.621094 13.46875 C 306.480469 12.378906 294.378906 11.445312 283.765625 14.261719 C 267.632812 18.539062 261.453125 16.859375 256 15.378906 C 252.003906 14.289062 248.425781 13.320312 241.03125 15.265625 C 219.578125 20.921875 214.613281 17.84375 211.324219 15.804688 C 209.742188 14.824219 208.65625 14.152344 205.078125 15.683594 C 174.53125 28.726562 166.355469 20.210938 159.855469 13.445312 C 155.570312 8.980469 152.109375 5.378906 141.515625 11.445312 C 122.941406 22.078125 116.976562 20.675781 114.402344 16.179688 C 112.6875 13.1875 112.945312 9.476562 111.480469 6.65625 C 110.140625 4.074219 106.839844 3.289062 96.613281 8.601562 C 70.789062 22.023438 62.644531 16.855469 56.859375 13.183594 C 54.058594 11.40625 51.914062 10.046875 48.035156 12.289062 C 32.8125 21.082031 26.8125 18.066406 22.027344 15.660156 C 18.453125 13.867188 15.695312 12.484375 8.589844 19.191406 Z M 8.589844 19.191406 " fill-opacity="1" fill-rule="evenodd"/></g></svg>