<svg xmlns="http://www.w3.org/2000/svg" xmlns:xlink="http://www.w3.org/1999/xlink" width="400" zoomAndPan="magnify" viewBox="0 0 300 177.000001" height="236" preserveAspectRatio="xMidYMid meet" version="1.0"><defs><g/></defs><path fill="#ed6f5f" d="M 287.125 146.75 C 276.921875 154.679688 252.667969 157.476562 252.667969 157.476562 C 252.667969 157.476562 239.609375 175.199219 214.011719 175.667969 C 188.417969 176.132812 151.6875 156.078125 151.6875 156.078125 C 151.6875 156.078125 113.324219 165.40625 89.128906 165.871094 C 64.875 166.339844 48.605469 152.8125 48.605469 152.8125 C 48.605469 152.8125 40.210938 153.746094 28.550781 153.277344 C 16.890625 152.8125 1.089844 137.421875 2.898438 127.625 C 4.703125 117.832031 19.222656 89.261719 19.222656 89.261719 C 19.222656 89.261719 12.226562 65.183594 9.894531 54.457031 C 7.5625 43.726562 13.160156 26.003906 18.289062 21.863281 C 23.421875 17.664062 54.613281 21.863281 54.613281 21.863281 C 54.613281 21.863281 63.941406 6.9375 87.203125 6.003906 C 110.523438 5.074219 151.628906 17.664062 151.628906 17.664062 C 151.628906 17.664062 213.082031 0 225.148438 0 C 237.277344 0 248.9375 18.191406 248.9375 18.191406 C 248.9375 18.191406 291.789062 18.65625 292.257812 37.3125 C 292.722656 55.972656 284.328125 96.492188 284.328125 96.492188 C 299.136719 129.492188 295.171875 140.511719 287.125 146.75 Z M 287.125 146.75 " fill-opacity="1" fill-rule="nonzero"/><path fill="#ffffff" d="M 54.320312 134.097656 C 56.886719 134.214844 59.625 134.273438 62.542969 134.332031 L 62.484375 136.136719 C 59.566406 136.078125 56.828125 135.964844 54.261719 135.90625 Z M 87.144531 134.621094 L 87.144531 136.429688 C 89.886719 136.429688 92.625 136.371094 95.367188 136.371094 L 95.367188 134.5625 C 92.625 134.621094 89.886719 134.621094 87.144531 134.621094 Z M 77.117188 39.585938 L 77.117188 37.78125 L 76.359375 37.78125 C 73.734375 37.78125 71.230469 37.78125 68.898438 37.78125 L 68.898438 39.585938 C 71.230469 39.585938 73.734375 39.585938 76.359375 39.53125 L 77.117188 39.53125 Z M 70.703125 136.371094 C 73.386719 136.429688 76.125 136.429688 78.925781 136.429688 L 78.925781 134.621094 C 76.125 134.621094 73.386719 134.5625 70.703125 134.5625 Z M 93.558594 37.839844 C 90.703125 37.78125 87.960938 37.78125 85.339844 37.78125 L 85.339844 39.585938 C 87.960938 39.585938 90.703125 39.644531 93.558594 39.644531 Z M 119.96875 135.847656 C 122.769531 135.789062 125.507812 135.789062 128.191406 135.789062 L 128.191406 133.980469 C 125.566406 133.980469 122.828125 133.980469 119.96875 134.039062 Z M 126.382812 38.480469 C 123.875 38.421875 121.195312 38.363281 118.222656 38.304688 L 118.164062 40.113281 C 121.136719 40.171875 123.816406 40.230469 126.324219 40.289062 Z M 108.425781 134.273438 C 106.792969 134.332031 105.160156 134.390625 103.527344 134.390625 L 103.585938 136.195312 C 105.21875 136.136719 106.851562 136.136719 108.484375 136.078125 C 109.59375 136.019531 110.699219 136.019531 111.808594 135.964844 L 111.75 134.15625 C 110.640625 134.214844 109.535156 134.273438 108.425781 134.273438 Z M 110 38.128906 C 107.492188 38.070312 104.753906 38.011719 101.78125 38.011719 L 101.78125 39.820312 C 104.753906 39.878906 107.433594 39.9375 110 39.9375 Z M 266.835938 89.730469 L 265.027344 89.671875 C 264.910156 92.46875 264.796875 95.210938 264.738281 97.890625 L 266.542969 97.949219 C 266.601562 95.265625 266.71875 92.46875 266.835938 89.730469 Z M 43.011719 45.242188 C 43.070312 43.496094 43.183594 41.863281 43.300781 41.21875 C 43.417969 41.160156 43.769531 40.988281 44.527344 40.871094 L 44.175781 39.0625 C 42.542969 39.414062 41.84375 39.820312 41.609375 40.519531 C 41.378906 41.21875 41.320312 42.503906 41.203125 45.183594 L 41.144531 46.816406 L 42.953125 46.933594 Z M 42.253906 55.15625 L 40.445312 54.921875 C 40.09375 57.953125 39.511719 60.578125 38.871094 62.792969 L 40.621094 63.316406 C 41.320312 60.984375 41.84375 58.304688 42.253906 55.15625 Z M 142.765625 38.886719 C 139.910156 38.828125 137.226562 38.773438 134.605469 38.65625 L 134.546875 40.460938 C 137.226562 40.519531 139.910156 40.578125 142.707031 40.695312 Z M 38.519531 71.1875 L 36.714844 70.839844 C 36.246094 73.402344 35.898438 76.203125 35.722656 79.117188 L 37.53125 79.234375 C 37.703125 76.378906 38.054688 73.695312 38.519531 71.1875 Z M 38.636719 103.894531 L 38.636719 103.722656 L 36.828125 103.722656 L 36.828125 103.894531 C 36.828125 107.042969 36.597656 109.726562 36.1875 111.707031 L 37.996094 112.058594 C 38.402344 109.960938 38.636719 107.21875 38.636719 103.894531 Z M 37.761719 134.855469 C 39.511719 135.089844 42.253906 135.320312 46.042969 135.554688 L 46.160156 133.746094 C 42.425781 133.515625 39.746094 133.28125 38.054688 133.046875 Z M 33.914062 119.578125 C 33.449219 121.621094 32.867188 124.710938 32.867188 127.507812 L 32.867188 127.917969 L 34.671875 127.859375 L 34.671875 127.449219 C 34.671875 124.769531 35.199219 121.910156 35.664062 119.929688 Z M 60.675781 37.898438 C 57.527344 37.957031 54.789062 38.070312 52.457031 38.1875 L 52.570312 39.996094 C 54.902344 39.878906 57.644531 39.761719 60.734375 39.703125 Z M 38.230469 95.441406 C 38.054688 93.34375 37.820312 91.59375 37.703125 90.488281 C 37.585938 89.613281 37.472656 88.503906 37.472656 87.28125 L 35.664062 87.339844 C 35.722656 88.621094 35.839844 89.730469 35.957031 90.660156 C 36.070312 91.710938 36.304688 93.460938 36.480469 95.5 Z M 175.53125 39.414062 C 172.617188 39.414062 169.878906 39.355469 167.3125 39.355469 L 167.3125 41.160156 C 169.878906 41.160156 172.558594 41.21875 175.53125 41.21875 Z M 261.121094 128.734375 L 262.289062 130.132812 C 264.679688 128.148438 266.078125 125.644531 266.484375 122.554688 L 264.679688 122.320312 C 264.328125 124.945312 263.105469 127.101562 261.121094 128.734375 Z M 247.011719 132.757812 C 246.488281 132.757812 246.195312 132.757812 246.195312 132.757812 L 246.078125 134.5625 C 246.078125 134.5625 246.429688 134.5625 247.011719 134.5625 C 248.46875 134.5625 251.386719 134.445312 254.535156 133.6875 L 254.125 131.941406 C 251.09375 132.699219 248.355469 132.757812 247.011719 132.757812 Z M 249.402344 41.570312 C 252.667969 41.628906 255.351562 41.746094 257.566406 41.863281 L 257.683594 40.054688 C 255.410156 39.9375 252.726562 39.820312 249.460938 39.761719 Z M 234.886719 133.28125 L 234.945312 135.089844 C 238.441406 134.914062 241.242188 134.796875 243.164062 134.679688 L 243.046875 132.871094 C 241.183594 132.988281 238.382812 133.164062 234.886719 133.28125 Z M 266.835938 41.335938 C 266.601562 41.21875 266.371094 41.160156 266.019531 41.046875 L 265.496094 42.792969 C 265.726562 42.851562 265.902344 42.910156 266.019531 42.96875 C 267.242188 43.496094 267.769531 44.601562 267.769531 46.699219 C 267.769531 47.285156 267.710938 47.925781 267.652344 48.683594 L 269.460938 48.917969 C 269.574219 48.101562 269.574219 47.34375 269.574219 46.699219 C 269.632812 43.960938 268.703125 42.210938 266.835938 41.335938 Z M 241.242188 39.644531 C 238.675781 39.644531 235.933594 39.585938 233.019531 39.585938 L 233.019531 41.394531 C 235.933594 41.394531 238.675781 41.394531 241.242188 41.453125 Z M 265.496094 65.066406 L 267.300781 65.066406 C 267.300781 62.675781 267.535156 60.226562 268.058594 57.019531 L 266.253906 56.730469 C 265.785156 59.992188 265.554688 62.558594 265.496094 65.066406 Z M 266.542969 106.054688 L 264.738281 106.171875 C 264.796875 106.929688 264.855469 107.628906 264.910156 108.386719 C 265.027344 109.960938 265.203125 111.417969 265.203125 113.515625 C 265.203125 113.75 265.203125 114.039062 265.203125 114.332031 L 267.011719 114.332031 C 267.011719 114.039062 267.011719 113.75 267.011719 113.515625 C 267.011719 111.300781 266.894531 109.726562 266.71875 108.210938 C 266.660156 107.511719 266.601562 106.753906 266.542969 106.054688 Z M 265.320312 81.449219 L 267.128906 81.507812 C 267.242188 78.300781 267.300781 75.675781 267.300781 73.285156 L 265.496094 73.285156 C 265.496094 75.675781 265.4375 78.242188 265.320312 81.449219 Z M 218.503906 133.921875 L 218.5625 135.730469 C 221.476562 135.613281 224.214844 135.554688 226.78125 135.4375 L 226.722656 133.628906 C 224.101562 133.746094 221.359375 133.804688 218.503906 133.921875 Z M 169.238281 136.429688 C 171.859375 136.488281 174.601562 136.488281 177.457031 136.488281 L 177.457031 134.679688 C 174.601562 134.679688 171.917969 134.621094 169.238281 134.621094 Z M 152.792969 136.136719 C 155.476562 136.195312 158.21875 136.253906 161.015625 136.3125 L 161.074219 134.503906 C 158.273438 134.445312 155.535156 134.390625 152.851562 134.332031 Z M 191.917969 39.53125 C 189.234375 39.53125 186.492188 39.53125 183.695312 39.472656 L 183.695312 41.277344 C 186.492188 41.277344 189.234375 41.335938 191.917969 41.335938 Z M 159.148438 39.238281 C 156.175781 39.179688 153.4375 39.121094 150.988281 39.121094 L 150.929688 40.929688 C 153.4375 40.988281 156.117188 41.046875 159.148438 41.046875 Z M 185.621094 134.621094 L 185.621094 136.429688 C 188.359375 136.429688 191.101562 136.371094 193.839844 136.3125 L 193.839844 134.503906 C 191.101562 134.5625 188.359375 134.621094 185.621094 134.621094 Z M 202.0625 134.390625 L 202.121094 136.195312 C 204.917969 136.136719 207.65625 136.078125 210.339844 135.964844 L 210.28125 134.15625 C 207.601562 134.273438 204.859375 134.332031 202.0625 134.390625 Z M 224.800781 41.394531 L 224.800781 39.585938 L 216.578125 39.585938 L 216.578125 41.394531 Z M 208.359375 39.585938 C 205.675781 39.585938 202.9375 39.585938 200.136719 39.585938 L 200.136719 41.394531 C 202.9375 41.394531 205.675781 41.394531 208.359375 41.394531 Z M 136.410156 135.847656 C 139.210938 135.847656 141.890625 135.90625 144.632812 135.964844 L 144.632812 134.15625 C 141.890625 134.097656 139.210938 134.039062 136.410156 134.039062 Z M 136.410156 135.847656 " fill-opacity="1" fill-rule="nonzero"/><g fill="#ffffff" fill-opacity="1"><g transform="translate(51.221783, 100.510125)"><g><path d="M 4.515625 -25.75 L 4.515625 -9.640625 C 4.515625 -6.734375 5.171875 -4.597656 6.484375 -3.234375 C 7.804688 -1.878906 9.601562 -1.203125 11.875 -1.203125 C 14.125 -1.203125 15.894531 -1.875 17.1875 -3.21875 C 18.488281 -4.570312 19.140625 -6.710938 19.140625 -9.640625 L 19.140625 -25.75 L 20.796875 -25.75 L 20.796875 -9.6875 C 20.796875 -6.332031 19.988281 -3.835938 18.375 -2.203125 C 16.757812 -0.566406 14.59375 0.25 11.875 0.25 C 9.164062 0.25 6.984375 -0.570312 5.328125 -2.21875 C 3.679688 -3.863281 2.859375 -6.351562 2.859375 -9.6875 L 2.859375 -25.75 Z M 4.515625 -25.75 "/></g></g></g><g fill="#ffffff" fill-opacity="1"><g transform="translate(74.873326, 100.510125)"><g><path d="M 4.65625 -27.140625 L 4.65625 0 L 3 0 L 3 -27.140625 Z M 4.65625 -27.140625 "/></g></g></g><g fill="#ffffff" fill-opacity="1"><g transform="translate(82.573827, 100.510125)"><g><path d="M 5.46875 -18.484375 L 5.46875 -5.3125 C 5.46875 -3.84375 5.734375 -2.832031 6.265625 -2.28125 C 6.804688 -1.738281 7.757812 -1.46875 9.125 -1.46875 L 11.375 -1.46875 L 11.375 0 L 8.875 0 C 7.132812 0 5.851562 -0.40625 5.03125 -1.21875 C 4.21875 -2.039062 3.8125 -3.40625 3.8125 -5.3125 L 3.8125 -18.484375 L 0.8125 -18.484375 L 0.8125 -19.90625 L 3.8125 -19.90625 L 3.8125 -24.96875 L 5.46875 -24.96875 L 5.46875 -19.90625 L 11.375 -19.90625 L 11.375 -18.484375 Z M 5.46875 -18.484375 "/></g></g></g><g fill="#ffffff" fill-opacity="1"><g transform="translate(95.297993, 100.510125)"><g><path d="M 3.84375 -24.34375 C 3.457031 -24.34375 3.128906 -24.472656 2.859375 -24.734375 C 2.585938 -24.992188 2.453125 -25.34375 2.453125 -25.78125 C 2.453125 -26.195312 2.585938 -26.535156 2.859375 -26.796875 C 3.128906 -27.066406 3.457031 -27.203125 3.84375 -27.203125 C 4.238281 -27.203125 4.570312 -27.066406 4.84375 -26.796875 C 5.113281 -26.535156 5.25 -26.195312 5.25 -25.78125 C 5.25 -25.34375 5.113281 -24.992188 4.84375 -24.734375 C 4.570312 -24.472656 4.238281 -24.34375 3.84375 -24.34375 Z M 4.65625 -19.90625 L 4.65625 0 L 3 0 L 3 -19.90625 Z M 4.65625 -19.90625 "/></g></g></g><g fill="#ffffff" fill-opacity="1"><g transform="translate(102.998494, 100.510125)"><g><path d="M 26.546875 -20.3125 C 28.816406 -20.3125 30.671875 -19.582031 32.109375 -18.125 C 33.554688 -16.675781 34.28125 -14.519531 34.28125 -11.65625 L 34.28125 0 L 32.671875 0 L 32.671875 -11.546875 C 32.671875 -13.921875 32.101562 -15.738281 30.96875 -17 C 29.832031 -18.257812 28.273438 -18.890625 26.296875 -18.890625 C 24.242188 -18.890625 22.59375 -18.175781 21.34375 -16.75 C 20.09375 -15.332031 19.46875 -13.28125 19.46875 -10.59375 L 19.46875 0 L 17.859375 0 L 17.859375 -11.546875 C 17.859375 -13.921875 17.289062 -15.738281 16.15625 -17 C 15.019531 -18.257812 13.460938 -18.890625 11.484375 -18.890625 C 9.421875 -18.890625 7.765625 -18.175781 6.515625 -16.75 C 5.273438 -15.332031 4.65625 -13.28125 4.65625 -10.59375 L 4.65625 0 L 3 0 L 3 -19.90625 L 4.65625 -19.90625 L 4.65625 -15.578125 C 5.21875 -17.148438 6.128906 -18.332031 7.390625 -19.125 C 8.648438 -19.914062 10.097656 -20.3125 11.734375 -20.3125 C 13.546875 -20.3125 15.101562 -19.84375 16.40625 -18.90625 C 17.71875 -17.96875 18.617188 -16.578125 19.109375 -14.734375 C 19.566406 -16.578125 20.46875 -17.96875 21.8125 -18.90625 C 23.164062 -19.84375 24.742188 -20.3125 26.546875 -20.3125 Z M 26.546875 -20.3125 "/></g></g></g><g fill="#ffffff" fill-opacity="1"><g transform="translate(140.144264, 100.510125)"><g><path d="M 11.765625 0.296875 C 9.910156 0.296875 8.238281 -0.117188 6.75 -0.953125 C 5.257812 -1.785156 4.09375 -2.976562 3.25 -4.53125 C 2.40625 -6.082031 1.984375 -7.894531 1.984375 -9.96875 C 1.984375 -12.03125 2.410156 -13.835938 3.265625 -15.390625 C 4.117188 -16.941406 5.296875 -18.125 6.796875 -18.9375 C 8.304688 -19.757812 9.988281 -20.171875 11.84375 -20.171875 C 13.695312 -20.171875 15.367188 -19.757812 16.859375 -18.9375 C 18.359375 -18.125 19.53125 -16.945312 20.375 -15.40625 C 21.21875 -13.863281 21.640625 -12.050781 21.640625 -9.96875 C 21.640625 -7.894531 21.207031 -6.082031 20.34375 -4.53125 C 19.488281 -2.976562 18.3125 -1.785156 16.8125 -0.953125 C 15.3125 -0.117188 13.628906 0.296875 11.765625 0.296875 Z M 11.765625 -1.171875 C 13.210938 -1.171875 14.566406 -1.492188 15.828125 -2.140625 C 17.085938 -2.785156 18.09375 -3.769531 18.84375 -5.09375 C 19.601562 -6.414062 19.984375 -8.039062 19.984375 -9.96875 C 19.984375 -11.875 19.601562 -13.488281 18.84375 -14.8125 C 18.09375 -16.132812 17.09375 -17.117188 15.84375 -17.765625 C 14.59375 -18.410156 13.25 -18.734375 11.8125 -18.734375 C 10.363281 -18.734375 9.019531 -18.410156 7.78125 -17.765625 C 6.550781 -17.117188 5.554688 -16.132812 4.796875 -14.8125 C 4.046875 -13.488281 3.671875 -11.875 3.671875 -9.96875 C 3.671875 -8.039062 4.039062 -6.414062 4.78125 -5.09375 C 5.53125 -3.769531 6.519531 -2.785156 7.75 -2.140625 C 8.988281 -1.492188 10.328125 -1.171875 11.765625 -1.171875 Z M 11.765625 -1.171875 "/></g></g></g><g fill="#ffffff" fill-opacity="1"><g transform="translate(163.795807, 100.510125)"><g/></g></g><g fill="#ffffff" fill-opacity="1"><g transform="translate(174.136488, 100.510125)"><g><path d="M 18.59375 -18.484375 C 18.59375 -16.210938 17.882812 -14.445312 16.46875 -13.1875 C 15.050781 -11.925781 12.945312 -11.296875 10.15625 -11.296875 L 4.65625 -11.296875 L 4.65625 0 L 3 0 L 3 -25.75 L 10.15625 -25.75 C 12.988281 -25.75 15.101562 -25.09375 16.5 -23.78125 C 17.894531 -22.46875 18.59375 -20.703125 18.59375 -18.484375 Z M 10.15625 -12.765625 C 14.675781 -12.765625 16.9375 -14.671875 16.9375 -18.484375 C 16.9375 -20.367188 16.398438 -21.804688 15.328125 -22.796875 C 14.253906 -23.785156 12.53125 -24.28125 10.15625 -24.28125 L 4.65625 -24.28125 L 4.65625 -12.765625 Z M 10.15625 -12.765625 "/></g></g></g><g fill="#ffffff" fill-opacity="1"><g transform="translate(194.157798, 100.510125)"><g><path d="M 11.765625 0.296875 C 9.910156 0.296875 8.238281 -0.117188 6.75 -0.953125 C 5.257812 -1.785156 4.09375 -2.976562 3.25 -4.53125 C 2.40625 -6.082031 1.984375 -7.894531 1.984375 -9.96875 C 1.984375 -12.03125 2.410156 -13.835938 3.265625 -15.390625 C 4.117188 -16.941406 5.296875 -18.125 6.796875 -18.9375 C 8.304688 -19.757812 9.988281 -20.171875 11.84375 -20.171875 C 13.695312 -20.171875 15.367188 -19.757812 16.859375 -18.9375 C 18.359375 -18.125 19.53125 -16.945312 20.375 -15.40625 C 21.21875 -13.863281 21.640625 -12.050781 21.640625 -9.96875 C 21.640625 -7.894531 21.207031 -6.082031 20.34375 -4.53125 C 19.488281 -2.976562 18.3125 -1.785156 16.8125 -0.953125 C 15.3125 -0.117188 13.628906 0.296875 11.765625 0.296875 Z M 11.765625 -1.171875 C 13.210938 -1.171875 14.566406 -1.492188 15.828125 -2.140625 C 17.085938 -2.785156 18.09375 -3.769531 18.84375 -5.09375 C 19.601562 -6.414062 19.984375 -8.039062 19.984375 -9.96875 C 19.984375 -11.875 19.601562 -13.488281 18.84375 -14.8125 C 18.09375 -16.132812 17.09375 -17.117188 15.84375 -17.765625 C 14.59375 -18.410156 13.25 -18.734375 11.8125 -18.734375 C 10.363281 -18.734375 9.019531 -18.410156 7.78125 -17.765625 C 6.550781 -17.117188 5.554688 -16.132812 4.796875 -14.8125 C 4.046875 -13.488281 3.671875 -11.875 3.671875 -9.96875 C 3.671875 -8.039062 4.039062 -6.414062 4.78125 -5.09375 C 5.53125 -3.769531 6.519531 -2.785156 7.75 -2.140625 C 8.988281 -1.492188 10.328125 -1.171875 11.765625 -1.171875 Z M 11.765625 -1.171875 "/></g></g></g><g fill="#ffffff" fill-opacity="1"><g transform="translate(217.809341, 100.510125)"><g><path d="M 9.640625 0.296875 C 7.421875 0.296875 5.609375 -0.191406 4.203125 -1.171875 C 2.796875 -2.148438 2.003906 -3.546875 1.828125 -5.359375 L 3.515625 -5.359375 C 3.640625 -4.054688 4.234375 -3.023438 5.296875 -2.265625 C 6.359375 -1.515625 7.804688 -1.140625 9.640625 -1.140625 C 11.160156 -1.140625 12.363281 -1.523438 13.25 -2.296875 C 14.144531 -3.066406 14.59375 -4.015625 14.59375 -5.140625 C 14.59375 -5.921875 14.351562 -6.5625 13.875 -7.0625 C 13.40625 -7.5625 12.8125 -7.945312 12.09375 -8.21875 C 11.382812 -8.488281 10.421875 -8.78125 9.203125 -9.09375 C 7.734375 -9.488281 6.546875 -9.875 5.640625 -10.25 C 4.742188 -10.625 3.976562 -11.191406 3.34375 -11.953125 C 2.707031 -12.710938 2.390625 -13.726562 2.390625 -15 C 2.390625 -15.925781 2.671875 -16.785156 3.234375 -17.578125 C 3.796875 -18.378906 4.578125 -19.007812 5.578125 -19.46875 C 6.578125 -19.9375 7.710938 -20.171875 8.984375 -20.171875 C 11.066406 -20.171875 12.75 -19.648438 14.03125 -18.609375 C 15.3125 -17.566406 16 -16.128906 16.09375 -14.296875 L 14.453125 -14.296875 C 14.378906 -15.617188 13.863281 -16.695312 12.90625 -17.53125 C 11.957031 -18.363281 10.640625 -18.78125 8.953125 -18.78125 C 7.535156 -18.78125 6.359375 -18.410156 5.421875 -17.671875 C 4.492188 -16.941406 4.03125 -16.050781 4.03125 -15 C 4.03125 -14.070312 4.289062 -13.316406 4.8125 -12.734375 C 5.34375 -12.160156 5.992188 -11.722656 6.765625 -11.421875 C 7.535156 -11.117188 8.554688 -10.796875 9.828125 -10.453125 C 11.222656 -10.085938 12.34375 -9.726562 13.1875 -9.375 C 14.03125 -9.019531 14.742188 -8.503906 15.328125 -7.828125 C 15.910156 -7.160156 16.203125 -6.265625 16.203125 -5.140625 C 16.203125 -4.109375 15.921875 -3.175781 15.359375 -2.34375 C 14.796875 -1.507812 14.015625 -0.859375 13.015625 -0.390625 C 12.015625 0.0664062 10.890625 0.296875 9.640625 0.296875 Z M 9.640625 0.296875 "/></g></g></g><g fill="#ffffff" fill-opacity="1"><g transform="translate(236.033874, 100.510125)"><g><path d="M 5.46875 -18.484375 L 5.46875 -5.3125 C 5.46875 -3.84375 5.734375 -2.832031 6.265625 -2.28125 C 6.804688 -1.738281 7.757812 -1.46875 9.125 -1.46875 L 11.375 -1.46875 L 11.375 0 L 8.875 0 C 7.132812 0 5.851562 -0.40625 5.03125 -1.21875 C 4.21875 -2.039062 3.8125 -3.40625 3.8125 -5.3125 L 3.8125 -18.484375 L 0.8125 -18.484375 L 0.8125 -19.90625 L 3.8125 -19.90625 L 3.8125 -24.96875 L 5.46875 -24.96875 L 5.46875 -19.90625 L 11.375 -19.90625 L 11.375 -18.484375 Z M 5.46875 -18.484375 "/></g></g></g></svg>