<?xml version="1.0" encoding="UTF-8"?>
<svg id="Capa_2" data-name="Capa 2" xmlns="http://www.w3.org/2000/svg" viewBox="0 0 148.46 114.08">
  <defs>
    <style>
      .cls-1, .cls-2 {
        fill: #fff;
      }

      .cls-2 {
        font-family: Poppins-Medium, Poppins;
        font-size: 28.53px;
        font-weight: 500;
      }
    </style>
  </defs>
  <g id="Capa_1-2" data-name="Capa 1">
    <g>
      <text class="cls-2" transform="translate(37.34 57.69) rotate(-20.39)"><tspan x="0" y="0">yo</tspan><tspan x="-30.84" y="32.09">asegurar</tspan></text>
      <path class="cls-1" d="M83.15,22.18l-.95,2.07-2.07-.95c-3.57-1.63-7.79-.07-9.42,3.5-.82,1.78-.83,3.73-.2,5.43.8,2.15,2.64,3.63,4.51,4.85,2.05,1.34,4.18,2.56,6.38,3.62,2.22,1.08,4.51,2.01,6.89,2.65.34.14.71.15,1.03.04.31-.13.58-.37.75-.7,1.38-2.04,2.51-4.25,3.49-6.51.97-2.25,1.79-4.56,2.47-6.91.62-2.14,1.05-4.46.25-6.61-.63-1.7-1.92-3.17-3.7-3.98-3.57-1.63-7.78-.07-9.42,3.5"/>
    </g>
  </g>
</svg>